<?xml version="1.0" encoding="utf-8"?>
<!-- Generator: Adobe Illustrator 28.4.1, SVG Export Plug-In . SVG Version: 6.00 Build 0)  -->
<svg version="1.1" id="Layer_1" xmlns="http://www.w3.org/2000/svg" xmlns:xlink="http://www.w3.org/1999/xlink" x="0px" y="0px"
	 viewBox="0 0 1280 720" style="enable-background:new 0 0 1280 720;" xml:space="preserve">
<style type="text/css">
	.st0{fill:#EAE50A;enable-background:new    ;}
	.st1{fill:#35690C;enable-background:new    ;}
	.st2{fill:#867758;enable-background:new    ;}
	.st3{fill:#E59607;enable-background:new    ;}
	.st4{fill:#070E1A;enable-background:new    ;}
	.st5{fill:#A70308;enable-background:new    ;}
	.st6{fill:#FEBEEB;enable-background:new    ;}
	.st7{fill:#F3F3F3;enable-background:new    ;}
</style>
<g>
	<circle class="st0" cx="509.4" cy="137.7" r="20.8"/>
	<circle class="st1" cx="509.4" cy="323" r="20.8"/>
	<circle class="st2" cx="509.4" cy="411.9" r="20.8"/>
	<circle class="st3" cx="509.4" cy="500.8" r="20.8"/>
	<circle class="st4" cx="509.4" cy="589.7" r="20.8"/>
	<circle class="st5" cx="509.4" cy="678.7" r="20.8"/>
	<circle class="st6" cx="509.4" cy="234" r="20.8"/>
	<circle class="st7" cx="509.4" cy="41.3" r="20.8"/>
	<g>
		<path d="M539.2,36.9h7.7v1.5H541v4.8h5.4v1.5H541v6.5h-1.8V36.9z"/>
		<path d="M549.3,49.1c0.5,0.3,1.8,0.9,3.1,0.9c2.4,0,3.1-1.5,3.1-2.7c0-1.9-1.8-2.8-3.6-2.8h-1v-1.4h1c1.4,0,3.1-0.7,3.1-2.3
			c0-1.1-0.7-2.1-2.4-2.1c-1.1,0-2.2,0.5-2.8,0.9l-0.5-1.4c0.7-0.5,2.1-1.1,3.6-1.1c2.7,0,3.9,1.6,3.9,3.3c0,1.4-0.8,2.6-2.5,3.2v0
			c1.7,0.3,3.1,1.6,3.1,3.5c0,2.2-1.7,4.1-5,4.1c-1.5,0-2.9-0.5-3.6-0.9L549.3,49.1z"/>
		<path d="M560.4,36.9h7.7v1.5h-5.9v4.8h5.4v1.5h-5.4v6.5h-1.8V36.9z"/>
		<path d="M570.5,49.1c0.5,0.3,1.8,0.9,3.1,0.9c2.4,0,3.1-1.5,3.1-2.7c0-1.9-1.8-2.8-3.6-2.8h-1v-1.4h1c1.4,0,3.1-0.7,3.1-2.3
			c0-1.1-0.7-2.1-2.4-2.1c-1.1,0-2.2,0.5-2.8,0.9l-0.5-1.4c0.7-0.5,2.1-1.1,3.6-1.1c2.7,0,3.9,1.6,3.9,3.3c0,1.4-0.8,2.6-2.5,3.2v0
			c1.7,0.3,3.1,1.6,3.1,3.5c0,2.2-1.7,4.1-5,4.1c-1.5,0-2.9-0.5-3.6-0.9L570.5,49.1z"/>
		<path d="M581.6,36.9h7.7v1.5h-5.9v4.8h5.4v1.5h-5.4v6.5h-1.8V36.9z"/>
		<path d="M591.7,49.1c0.5,0.3,1.8,0.9,3.1,0.9c2.4,0,3.1-1.5,3.1-2.7c0-1.9-1.8-2.8-3.6-2.8h-1v-1.4h1c1.4,0,3.1-0.7,3.1-2.3
			c0-1.1-0.7-2.1-2.4-2.1c-1.1,0-2.2,0.5-2.8,0.9l-0.5-1.4c0.7-0.5,2.1-1.1,3.6-1.1c2.7,0,3.9,1.6,3.9,3.3c0,1.4-0.8,2.6-2.5,3.2v0
			c1.7,0.3,3.1,1.6,3.1,3.5c0,2.2-1.7,4.1-5,4.1c-1.5,0-2.9-0.5-3.6-0.9L591.7,49.1z"/>
		<path d="M611.5,44.8v1.4h-5.2v-1.4H611.5z"/>
		<path d="M620.7,51.2L616,36.9h2l2.2,7c0.6,1.9,1.1,3.7,1.5,5.3h0c0.4-1.7,1-3.5,1.6-5.3l2.4-7.1h2l-5.1,14.3H620.7z"/>
		<path d="M629.6,46.4c0,2.5,1.7,3.6,3.5,3.6c1.3,0,2.1-0.2,2.8-0.5l0.3,1.3c-0.7,0.3-1.8,0.6-3.4,0.6c-3.2,0-5-2.1-5-5.2
			c0-3.1,1.8-5.5,4.8-5.5c3.4,0,4.2,2.9,4.2,4.8c0,0.4,0,0.7-0.1,0.9H629.6z M635.1,45.1c0-1.2-0.5-3-2.6-3c-1.9,0-2.7,1.7-2.9,3
			H635.1z"/>
		<path d="M639.2,44.2c0-1.2,0-2.2-0.1-3.2h1.6l0.1,2h0.1c0.5-1.4,1.6-2.2,2.8-2.2c0.2,0,0.4,0,0.5,0.1v1.8c-0.2,0-0.4-0.1-0.6-0.1
			c-1.3,0-2.2,1-2.5,2.4c0,0.3-0.1,0.6-0.1,0.9v5.5h-1.8V44.2z"/>
		<path d="M647.4,41l2.2,6.1c0.2,0.7,0.5,1.5,0.7,2.1h0c0.2-0.6,0.4-1.4,0.7-2.1l2-6h2l-2.8,7.3c-1.3,3.5-2.2,5.3-3.5,6.4
			c-0.9,0.8-1.8,1.1-2.3,1.2l-0.5-1.6c0.5-0.1,1.1-0.4,1.6-0.9c0.5-0.4,1.1-1.1,1.6-2.1c0.1-0.2,0.1-0.3,0.1-0.4
			c0-0.1,0-0.3-0.1-0.5l-3.8-9.5H647.4z"/>
		<path d="M661,49c0.8,0.5,2,0.9,3.3,0.9c1.9,0,3-1,3-2.4c0-1.3-0.8-2.1-2.7-2.8c-2.3-0.8-3.8-2-3.8-4.1c0-2.2,1.8-3.9,4.6-3.9
			c1.5,0,2.5,0.3,3.2,0.7l-0.5,1.5c-0.5-0.3-1.4-0.7-2.7-0.7c-2,0-2.7,1.2-2.7,2.1c0,1.3,0.9,2,2.8,2.8c2.4,0.9,3.6,2.1,3.6,4.2
			c0,2.2-1.6,4.1-5,4.1c-1.4,0-2.9-0.4-3.6-0.9L661,49z"/>
		<path d="M671.6,43.7c0-1.1,0-1.9-0.1-2.8h1.6l0.1,1.7h0.1c0.6-1,1.5-1.9,3.2-1.9c1.4,0,2.5,0.8,2.9,2.1h0c0.3-0.6,0.7-1,1.1-1.3
			c0.6-0.5,1.3-0.7,2.3-0.7c1.4,0,3.4,0.9,3.4,4.5v6h-1.8v-5.8c0-2-0.7-3.2-2.2-3.2c-1.1,0-1.9,0.8-2.2,1.7
			c-0.1,0.3-0.1,0.6-0.1,0.9v6.3H678v-6.2c0-1.6-0.7-2.8-2.1-2.8c-1.2,0-2,0.9-2.3,1.9c-0.1,0.3-0.1,0.6-0.1,0.9v6.2h-1.8V43.7z"/>
		<path d="M695,51.2l-0.1-1.3h-0.1c-0.6,0.8-1.7,1.5-3.1,1.5c-2.1,0-3.1-1.5-3.1-2.9c0-2.5,2.2-3.8,6.2-3.8v-0.2
			c0-0.8-0.2-2.4-2.3-2.4c-1,0-2,0.3-2.7,0.8l-0.4-1.2c0.8-0.6,2.1-0.9,3.4-0.9c3.1,0,3.9,2.1,3.9,4.2v3.8c0,0.9,0,1.8,0.2,2.5H695z
			 M694.7,46c-2,0-4.3,0.3-4.3,2.3c0,1.2,0.8,1.8,1.8,1.8c1.3,0,2.2-0.8,2.5-1.7c0.1-0.2,0.1-0.4,0.1-0.6V46z"/>
		<path d="M699.5,36.2h1.9v15.1h-1.9V36.2z"/>
		<path d="M704.5,36.2h1.9v15.1h-1.9V36.2z"/>
		<path d="M724.1,50.8c-0.7,0.3-2,0.7-3.8,0.7c-4,0-7.1-2.5-7.1-7.2c0-4.5,3-7.5,7.5-7.5c1.8,0,2.9,0.4,3.4,0.6l-0.4,1.5
			c-0.7-0.3-1.7-0.6-2.9-0.6c-3.4,0-5.6,2.1-5.6,5.9c0,3.5,2,5.7,5.5,5.7c1.1,0,2.3-0.2,3-0.6L724.1,50.8z"/>
		<path d="M731.9,51.2l-0.1-1.3h-0.1c-0.6,0.8-1.7,1.5-3.1,1.5c-2.1,0-3.1-1.5-3.1-2.9c0-2.5,2.2-3.8,6.2-3.8v-0.2
			c0-0.8-0.2-2.4-2.3-2.4c-1,0-2,0.3-2.7,0.8l-0.4-1.2c0.8-0.6,2.1-0.9,3.4-0.9c3.1,0,3.9,2.1,3.9,4.2v3.8c0,0.9,0,1.8,0.2,2.5
			H731.9z M731.6,46c-2,0-4.3,0.3-4.3,2.3c0,1.2,0.8,1.8,1.8,1.8c1.3,0,2.2-0.8,2.5-1.7c0.1-0.2,0.1-0.4,0.1-0.6V46z"/>
		<path d="M736.4,44.3c0-1.3,0-2.4-0.1-3.4h1.7l0.1,1.8h0c0.8-1.3,2-2,3.6-2c2.5,0,4.3,2.1,4.3,5.2c0,3.7-2.2,5.5-4.7,5.5
			c-1.4,0-2.5-0.6-3.2-1.6h0v5.6h-1.8V44.3z M738.2,47.1c0,0.3,0,0.5,0.1,0.8c0.3,1.3,1.5,2.2,2.8,2.2c2,0,3.1-1.6,3.1-4
			c0-2.1-1.1-3.8-3.1-3.8c-1.3,0-2.5,0.9-2.8,2.3c-0.1,0.2-0.1,0.5-0.1,0.8V47.1z"/>
		<path d="M754.1,51.2l-0.1-1.3h-0.1c-0.6,0.8-1.7,1.5-3.1,1.5c-2.1,0-3.1-1.5-3.1-2.9c0-2.5,2.2-3.8,6.2-3.8v-0.2
			c0-0.8-0.2-2.4-2.3-2.4c-1,0-2,0.3-2.7,0.8l-0.4-1.2c0.8-0.6,2.1-0.9,3.4-0.9c3.1,0,3.9,2.1,3.9,4.2v3.8c0,0.9,0,1.8,0.2,2.5
			H754.1z M753.9,46c-2,0-4.3,0.3-4.3,2.3c0,1.2,0.8,1.8,1.8,1.8c1.3,0,2.2-0.8,2.5-1.7c0.1-0.2,0.1-0.4,0.1-0.6V46z"/>
		<path d="M766,50.9c-0.5,0.3-1.6,0.6-2.9,0.6c-3.1,0-5.1-2.1-5.1-5.2c0-3.2,2.2-5.5,5.5-5.5c1.1,0,2.1,0.3,2.6,0.5l-0.4,1.4
			c-0.4-0.3-1.1-0.5-2.2-0.5c-2.4,0-3.6,1.7-3.6,3.9c0,2.4,1.5,3.8,3.6,3.8c1.1,0,1.8-0.3,2.3-0.5L766,50.9z"/>
		<path d="M770.3,38.1c0,0.6-0.4,1.1-1.2,1.1c-0.7,0-1.1-0.5-1.1-1.1c0-0.7,0.5-1.2,1.2-1.2C769.8,36.9,770.3,37.4,770.3,38.1z
			 M768.2,51.2V41h1.9v10.3H768.2z"/>
		<path d="M775.4,38V41h2.7v1.4h-2.7v5.5c0,1.3,0.4,2,1.4,2c0.5,0,0.8-0.1,1.1-0.1l0.1,1.4c-0.4,0.1-0.9,0.3-1.7,0.3
			c-0.9,0-1.6-0.3-2-0.8c-0.5-0.6-0.7-1.5-0.7-2.7v-5.6H772V41h1.6v-2.5L775.4,38z"/>
		<path d="M781,41l2.2,6.1c0.2,0.7,0.5,1.5,0.7,2.1h0c0.2-0.6,0.4-1.4,0.7-2.1l2-6h2l-2.8,7.3c-1.3,3.5-2.2,5.3-3.5,6.4
			c-0.9,0.8-1.8,1.1-2.3,1.2l-0.5-1.6c0.5-0.1,1.1-0.4,1.6-0.9c0.5-0.4,1.1-1.1,1.6-2.1c0.1-0.2,0.1-0.3,0.1-0.4
			c0-0.1,0-0.3-0.1-0.5L779,41H781z"/>
	</g>
	<g>
		<path d="M546.6,140H541v5.2h6.2v1.5h-8v-14.3h7.7v1.5H541v4.5h5.6V140z"/>
		<path d="M551.9,142.2l-1.5,4.5h-1.9l4.9-14.3h2.2l4.9,14.3h-2l-1.5-4.5H551.9z M556.6,140.8l-1.4-4.1c-0.3-0.9-0.5-1.8-0.7-2.6h0
			c-0.2,0.8-0.4,1.7-0.7,2.6l-1.4,4.1H556.6z"/>
		<path d="M570,140h-5.6v5.2h6.2v1.5h-8v-14.3h7.7v1.5h-5.9v4.5h5.6V140z"/>
		<path d="M580.6,134.5h-5.3l-0.5,3.5c0.3,0,0.6-0.1,1.1-0.1c1.1,0,2.1,0.2,3,0.7c1.1,0.6,2,1.8,2,3.5c0,2.7-2.1,4.7-5.1,4.7
			c-1.5,0-2.8-0.4-3.4-0.8l0.5-1.4c0.6,0.3,1.7,0.8,2.9,0.8c1.8,0,3.3-1.1,3.3-3c0-1.8-1.2-3.1-4-3.1c-0.8,0-1.4,0.1-1.9,0.1
			l0.9-6.6h6.6V134.5z"/>
		<path d="M592.4,139.7c0,4.7-1.7,7.3-4.8,7.3c-2.7,0-4.5-2.5-4.6-7.1c0-4.6,2-7.2,4.8-7.2C590.7,132.7,592.4,135.3,592.4,139.7z
			 M584.9,139.9c0,3.6,1.1,5.6,2.8,5.6c1.9,0,2.8-2.2,2.8-5.7c0-3.4-0.9-5.6-2.8-5.6C586.1,134.2,584.9,136.1,584.9,139.9z"/>
		<path d="M597.1,142.2l-1.5,4.5h-1.9l4.9-14.3h2.2l4.9,14.3h-2l-1.5-4.5H597.1z M601.8,140.8l-1.4-4.1c-0.3-0.9-0.5-1.8-0.7-2.6h0
			c-0.2,0.8-0.4,1.7-0.7,2.6l-1.4,4.1H601.8z"/>
		<path d="M616.5,140.3v1.4h-5.2v-1.4H616.5z"/>
		<path d="M623,144.5c0.8,0.5,2,0.9,3.3,0.9c1.9,0,3-1,3-2.4c0-1.3-0.8-2.1-2.7-2.8c-2.3-0.8-3.8-2-3.8-4.1c0-2.2,1.8-3.9,4.6-3.9
			c1.5,0,2.5,0.3,3.2,0.7l-0.5,1.5c-0.5-0.3-1.4-0.7-2.7-0.7c-2,0-2.7,1.2-2.7,2.1c0,1.3,0.9,2,2.8,2.8c2.4,0.9,3.6,2.1,3.6,4.2
			c0,2.2-1.6,4.1-5,4.1c-1.4,0-2.9-0.4-3.6-0.9L623,144.5z"/>
		<path d="M633.6,139.2c0-1.1,0-1.9-0.1-2.8h1.6l0.1,1.7h0.1c0.6-1,1.5-1.9,3.2-1.9c1.4,0,2.5,0.8,2.9,2.1h0c0.3-0.6,0.7-1,1.1-1.3
			c0.6-0.5,1.3-0.7,2.3-0.7c1.4,0,3.4,0.9,3.4,4.5v6h-1.8v-5.8c0-2-0.7-3.2-2.2-3.2c-1.1,0-1.9,0.8-2.2,1.7
			c-0.1,0.3-0.1,0.6-0.1,0.9v6.3h-1.8v-6.2c0-1.6-0.7-2.8-2.1-2.8c-1.2,0-2,0.9-2.3,1.9c-0.1,0.3-0.1,0.6-0.1,0.9v6.2h-1.8V139.2z"
			/>
		<path d="M657,146.7l-0.1-1.3h-0.1c-0.6,0.8-1.7,1.5-3.1,1.5c-2.1,0-3.1-1.5-3.1-2.9c0-2.5,2.2-3.8,6.2-3.8V140
			c0-0.8-0.2-2.4-2.3-2.4c-1,0-2,0.3-2.7,0.8l-0.4-1.2c0.8-0.6,2.1-0.9,3.4-0.9c3.1,0,3.9,2.1,3.9,4.2v3.8c0,0.9,0,1.8,0.2,2.5H657z
			 M656.7,141.5c-2,0-4.3,0.3-4.3,2.3c0,1.2,0.8,1.8,1.8,1.8c1.3,0,2.2-0.8,2.5-1.7c0.1-0.2,0.1-0.4,0.1-0.6V141.5z"/>
		<path d="M661.5,131.7h1.9v15.1h-1.9V131.7z"/>
		<path d="M666.5,131.7h1.9v15.1h-1.9V131.7z"/>
		<path d="M686.1,146.3c-0.7,0.3-2,0.7-3.8,0.7c-4,0-7.1-2.5-7.1-7.2c0-4.5,3-7.5,7.5-7.5c1.8,0,2.9,0.4,3.4,0.6l-0.4,1.5
			c-0.7-0.3-1.7-0.6-2.9-0.6c-3.4,0-5.6,2.1-5.6,5.9c0,3.5,2,5.7,5.5,5.7c1.1,0,2.3-0.2,3-0.6L686.1,146.3z"/>
		<path d="M693.9,146.7l-0.1-1.3h-0.1c-0.6,0.8-1.7,1.5-3.1,1.5c-2.1,0-3.1-1.5-3.1-2.9c0-2.5,2.2-3.8,6.2-3.8V140
			c0-0.8-0.2-2.4-2.3-2.4c-1,0-2,0.3-2.7,0.8l-0.4-1.2c0.8-0.6,2.1-0.9,3.4-0.9c3.1,0,3.9,2.1,3.9,4.2v3.8c0,0.9,0,1.8,0.2,2.5
			H693.9z M693.6,141.5c-2,0-4.3,0.3-4.3,2.3c0,1.2,0.8,1.8,1.8,1.8c1.3,0,2.2-0.8,2.5-1.7c0.1-0.2,0.1-0.4,0.1-0.6V141.5z"/>
		<path d="M698.4,139.8c0-1.3,0-2.4-0.1-3.4h1.7l0.1,1.8h0c0.8-1.3,2-2,3.6-2c2.5,0,4.3,2.1,4.3,5.2c0,3.7-2.2,5.5-4.7,5.5
			c-1.4,0-2.5-0.6-3.2-1.6h0v5.6h-1.8V139.8z M700.3,142.6c0,0.3,0,0.5,0.1,0.8c0.3,1.3,1.5,2.2,2.8,2.2c2,0,3.1-1.6,3.1-4
			c0-2.1-1.1-3.8-3.1-3.8c-1.3,0-2.5,0.9-2.8,2.3c-0.1,0.2-0.1,0.5-0.1,0.8V142.6z"/>
		<path d="M716.2,146.7l-0.1-1.3H716c-0.6,0.8-1.7,1.5-3.1,1.5c-2.1,0-3.1-1.5-3.1-2.9c0-2.5,2.2-3.8,6.2-3.8V140
			c0-0.8-0.2-2.4-2.3-2.4c-1,0-2,0.3-2.7,0.8l-0.4-1.2c0.8-0.6,2.1-0.9,3.4-0.9c3.1,0,3.9,2.1,3.9,4.2v3.8c0,0.9,0,1.8,0.2,2.5
			H716.2z M715.9,141.5c-2,0-4.3,0.3-4.3,2.3c0,1.2,0.8,1.8,1.8,1.8c1.3,0,2.2-0.8,2.5-1.7c0.1-0.2,0.1-0.4,0.1-0.6V141.5z"/>
		<path d="M728,146.3c-0.5,0.3-1.6,0.6-2.9,0.6c-3.1,0-5.1-2.1-5.1-5.2c0-3.2,2.2-5.5,5.5-5.5c1.1,0,2.1,0.3,2.6,0.5l-0.4,1.4
			c-0.4-0.3-1.1-0.5-2.2-0.5c-2.4,0-3.6,1.7-3.6,3.9c0,2.4,1.5,3.8,3.6,3.8c1.1,0,1.8-0.3,2.3-0.5L728,146.3z"/>
		<path d="M732.3,133.6c0,0.6-0.4,1.1-1.2,1.1c-0.7,0-1.1-0.5-1.1-1.1c0-0.7,0.5-1.2,1.2-1.2C731.8,132.4,732.3,132.9,732.3,133.6z
			 M730.2,146.7v-10.3h1.9v10.3H730.2z"/>
		<path d="M737.4,133.5v2.9h2.7v1.4h-2.7v5.5c0,1.3,0.4,2,1.4,2c0.5,0,0.8-0.1,1.1-0.1l0.1,1.4c-0.4,0.1-0.9,0.3-1.7,0.3
			c-0.9,0-1.6-0.3-2-0.8c-0.5-0.6-0.7-1.5-0.7-2.7v-5.6H734v-1.4h1.6V134L737.4,133.5z"/>
		<path d="M743.1,136.5l2.2,6.1c0.2,0.7,0.5,1.5,0.7,2.1h0c0.2-0.6,0.4-1.4,0.7-2.1l2-6h2l-2.8,7.3c-1.3,3.5-2.2,5.3-3.5,6.4
			c-0.9,0.8-1.8,1.1-2.3,1.2l-0.5-1.6c0.5-0.1,1.1-0.4,1.6-0.9c0.5-0.4,1.1-1.1,1.6-2.1c0.1-0.2,0.1-0.3,0.1-0.4
			c0-0.1,0-0.3-0.1-0.5l-3.8-9.5H743.1z"/>
	</g>
	<g>
		<path d="M539.2,227.4h7.7v1.5H541v4.8h5.4v1.5H541v6.5h-1.8V227.4z"/>
		<path d="M556.9,235h-5.6v5.2h6.2v1.5h-8v-14.3h7.7v1.5h-5.9v4.5h5.6V235z"/>
		<path d="M559.9,227.6c0.8-0.2,2.1-0.3,3.4-0.3c1.8,0,3,0.3,3.9,1c0.7,0.6,1.2,1.4,1.2,2.5c0,1.4-0.9,2.6-2.4,3.1v0
			c1.4,0.3,2.9,1.5,2.9,3.6c0,1.2-0.5,2.2-1.2,2.9c-1,0.9-2.6,1.3-4.9,1.3c-1.3,0-2.2-0.1-2.9-0.2V227.6z M561.8,233.5h1.7
			c2,0,3.1-1,3.1-2.4c0-1.7-1.3-2.3-3.1-2.3c-0.8,0-1.3,0.1-1.6,0.1V233.5z M561.8,240.3c0.4,0.1,0.9,0.1,1.5,0.1
			c1.9,0,3.7-0.7,3.7-2.8c0-2-1.7-2.8-3.7-2.8h-1.5V240.3z"/>
		<path d="M578.8,235h-5.6v5.2h6.2v1.5h-8v-14.3h7.7v1.5h-5.9v4.5h5.6V235z"/>
		<path d="M589.2,235h-5.6v5.2h6.2v1.5h-8v-14.3h7.7v1.5h-5.9v4.5h5.6V235z"/>
		<path d="M592.3,227.6c0.8-0.2,2.1-0.3,3.4-0.3c1.8,0,3,0.3,3.9,1c0.7,0.6,1.2,1.4,1.2,2.5c0,1.4-0.9,2.6-2.4,3.1v0
			c1.4,0.3,2.9,1.5,2.9,3.6c0,1.2-0.5,2.2-1.2,2.9c-1,0.9-2.6,1.3-4.9,1.3c-1.3,0-2.2-0.1-2.9-0.2V227.6z M594.1,233.5h1.7
			c2,0,3.1-1,3.1-2.4c0-1.7-1.3-2.3-3.1-2.3c-0.8,0-1.3,0.1-1.6,0.1V233.5z M594.1,240.3c0.4,0.1,0.9,0.1,1.5,0.1
			c1.9,0,3.7-0.7,3.7-2.8c0-2-1.7-2.8-3.7-2.8h-1.5V240.3z"/>
		<path d="M612.5,235.3v1.4h-5.2v-1.4H612.5z"/>
		<path d="M631.3,235.5c-0.1-2-0.2-4.4-0.2-6.2H631c-0.5,1.7-1.1,3.5-1.8,5.4l-2.5,6.9h-1.4l-2.3-6.8c-0.7-2-1.3-3.9-1.7-5.6h0
			c0,1.8-0.1,4.2-0.3,6.3l-0.4,6.1h-1.8l1-14.3h2.4l2.4,6.9c0.6,1.8,1.1,3.3,1.4,4.8h0.1c0.4-1.4,0.9-3,1.5-4.8l2.5-6.9h2.4
			l0.9,14.3h-1.8L631.3,235.5z"/>
		<path d="M645.7,236.5c0,3.8-2.6,5.5-5.1,5.5c-2.8,0-4.9-2-4.9-5.3c0-3.4,2.2-5.5,5.1-5.5C643.7,231.2,645.7,233.4,645.7,236.5z
			 M637.5,236.6c0,2.2,1.3,3.9,3.1,3.9c1.8,0,3.1-1.7,3.1-4c0-1.7-0.9-3.9-3.1-3.9C638.5,232.6,637.5,234.7,637.5,236.6z"/>
		<path d="M656.9,226.7v12.4c0,0.9,0,2,0.1,2.7h-1.7l-0.1-1.8h0c-0.6,1.1-1.8,2-3.5,2c-2.5,0-4.4-2.1-4.4-5.2c0-3.4,2.1-5.5,4.6-5.5
			c1.6,0,2.6,0.7,3.1,1.6h0v-6.1H656.9z M655,235.6c0-0.2,0-0.6-0.1-0.8c-0.3-1.2-1.3-2.2-2.7-2.2c-1.9,0-3.1,1.7-3.1,4
			c0,2.1,1,3.8,3,3.8c1.3,0,2.4-0.8,2.7-2.2c0.1-0.3,0.1-0.5,0.1-0.8V235.6z"/>
		<path d="M661,236.9c0,2.5,1.7,3.6,3.5,3.6c1.3,0,2.1-0.2,2.8-0.5l0.3,1.3c-0.7,0.3-1.8,0.6-3.4,0.6c-3.2,0-5-2.1-5-5.2
			c0-3.1,1.8-5.5,4.8-5.5c3.4,0,4.2,2.9,4.2,4.8c0,0.4,0,0.7-0.1,0.9H661z M666.5,235.6c0-1.2-0.5-3-2.6-3c-1.9,0-2.7,1.7-2.9,3
			H666.5z"/>
		<path d="M670.6,234.7c0-1.2,0-2.2-0.1-3.2h1.6l0.1,2h0.1c0.5-1.4,1.6-2.2,2.8-2.2c0.2,0,0.4,0,0.5,0.1v1.8c-0.2,0-0.4-0.1-0.6-0.1
			c-1.3,0-2.2,1-2.5,2.4c0,0.3-0.1,0.6-0.1,0.9v5.5h-1.8V234.7z"/>
		<path d="M683.1,241.7l-0.1-1.3h-0.1c-0.6,0.8-1.7,1.5-3.1,1.5c-2.1,0-3.1-1.5-3.1-2.9c0-2.5,2.2-3.8,6.2-3.8V235
			c0-0.8-0.2-2.4-2.3-2.4c-1,0-2,0.3-2.7,0.8l-0.4-1.2c0.8-0.6,2.1-0.9,3.4-0.9c3.1,0,3.9,2.1,3.9,4.2v3.8c0,0.9,0,1.8,0.2,2.5
			H683.1z M682.9,236.5c-2,0-4.3,0.3-4.3,2.3c0,1.2,0.8,1.8,1.8,1.8c1.3,0,2.2-0.8,2.5-1.7c0.1-0.2,0.1-0.4,0.1-0.6V236.5z"/>
		<path d="M689.8,228.5v2.9h2.7v1.4h-2.7v5.5c0,1.3,0.4,2,1.4,2c0.5,0,0.8-0.1,1.1-0.1l0.1,1.4c-0.4,0.1-0.9,0.3-1.7,0.3
			c-0.9,0-1.6-0.3-2-0.8c-0.5-0.6-0.7-1.5-0.7-2.7v-5.6h-1.6v-1.4h1.6V229L689.8,228.5z"/>
		<path d="M695.5,236.9c0,2.5,1.7,3.6,3.5,3.6c1.3,0,2.1-0.2,2.8-0.5l0.3,1.3c-0.7,0.3-1.8,0.6-3.4,0.6c-3.2,0-5-2.1-5-5.2
			c0-3.1,1.8-5.5,4.8-5.5c3.4,0,4.2,2.9,4.2,4.8c0,0.4,0,0.7-0.1,0.9H695.5z M701,235.6c0-1.2-0.5-3-2.6-3c-1.9,0-2.7,1.7-2.9,3H701
			z"/>
		<path d="M719.6,241.3c-0.7,0.3-2,0.7-3.8,0.7c-4,0-7.1-2.5-7.1-7.2c0-4.5,3-7.5,7.5-7.5c1.8,0,2.9,0.4,3.4,0.6l-0.4,1.5
			c-0.7-0.3-1.7-0.6-2.9-0.6c-3.4,0-5.6,2.1-5.6,5.9c0,3.5,2,5.7,5.5,5.7c1.1,0,2.3-0.2,3-0.6L719.6,241.3z"/>
		<path d="M727.4,241.7l-0.1-1.3h-0.1c-0.6,0.8-1.7,1.5-3.1,1.5c-2.1,0-3.1-1.5-3.1-2.9c0-2.5,2.2-3.8,6.2-3.8V235
			c0-0.8-0.2-2.4-2.3-2.4c-1,0-2,0.3-2.7,0.8l-0.4-1.2c0.8-0.6,2.1-0.9,3.4-0.9c3.1,0,3.9,2.1,3.9,4.2v3.8c0,0.9,0,1.8,0.2,2.5
			H727.4z M727.2,236.5c-2,0-4.3,0.3-4.3,2.3c0,1.2,0.8,1.8,1.8,1.8c1.3,0,2.2-0.8,2.5-1.7c0.1-0.2,0.1-0.4,0.1-0.6V236.5z"/>
		<path d="M732,234.8c0-1.3,0-2.4-0.1-3.4h1.7l0.1,1.8h0c0.8-1.3,2-2,3.6-2c2.5,0,4.3,2.1,4.3,5.2c0,3.7-2.2,5.5-4.7,5.5
			c-1.4,0-2.5-0.6-3.2-1.6h0v5.6H732V234.8z M733.8,237.6c0,0.3,0,0.5,0.1,0.8c0.3,1.3,1.5,2.2,2.8,2.2c2,0,3.1-1.6,3.1-4
			c0-2.1-1.1-3.8-3.1-3.8c-1.3,0-2.5,0.9-2.8,2.3c-0.1,0.2-0.1,0.5-0.1,0.8V237.6z"/>
		<path d="M749.7,241.7l-0.1-1.3h-0.1c-0.6,0.8-1.7,1.5-3.1,1.5c-2.1,0-3.1-1.5-3.1-2.9c0-2.5,2.2-3.8,6.2-3.8V235
			c0-0.8-0.2-2.4-2.3-2.4c-1,0-2,0.3-2.7,0.8l-0.4-1.2c0.8-0.6,2.1-0.9,3.4-0.9c3.1,0,3.9,2.1,3.9,4.2v3.8c0,0.9,0,1.8,0.2,2.5
			H749.7z M749.4,236.5c-2,0-4.3,0.3-4.3,2.3c0,1.2,0.8,1.8,1.8,1.8c1.3,0,2.2-0.8,2.5-1.7c0.1-0.2,0.1-0.4,0.1-0.6V236.5z"/>
		<path d="M761.6,241.4c-0.5,0.3-1.6,0.6-2.9,0.6c-3.1,0-5.1-2.1-5.1-5.2c0-3.2,2.2-5.5,5.5-5.5c1.1,0,2.1,0.3,2.6,0.5l-0.4,1.4
			c-0.4-0.3-1.1-0.5-2.2-0.5c-2.4,0-3.6,1.7-3.6,3.9c0,2.4,1.5,3.8,3.6,3.8c1.1,0,1.8-0.3,2.3-0.5L761.6,241.4z"/>
		<path d="M765.8,228.6c0,0.6-0.4,1.1-1.2,1.1c-0.7,0-1.1-0.5-1.1-1.1c0-0.7,0.5-1.2,1.2-1.2C765.4,227.4,765.8,227.9,765.8,228.6z
			 M763.8,241.7v-10.3h1.9v10.3H763.8z"/>
		<path d="M771,228.5v2.9h2.7v1.4H771v5.5c0,1.3,0.4,2,1.4,2c0.5,0,0.8-0.1,1.1-0.1l0.1,1.4c-0.4,0.1-0.9,0.3-1.7,0.3
			c-0.9,0-1.6-0.3-2-0.8c-0.5-0.6-0.7-1.5-0.7-2.7v-5.6h-1.6v-1.4h1.6V229L771,228.5z"/>
		<path d="M776.6,231.5l2.2,6.1c0.2,0.7,0.5,1.5,0.7,2.1h0c0.2-0.6,0.4-1.4,0.7-2.1l2-6h2l-2.8,7.3c-1.3,3.5-2.2,5.3-3.5,6.4
			c-0.9,0.8-1.8,1.1-2.3,1.2l-0.5-1.6c0.5-0.1,1.1-0.4,1.6-0.9c0.5-0.4,1.1-1.1,1.6-2.1c0.1-0.2,0.1-0.3,0.1-0.4
			c0-0.1,0-0.3-0.1-0.5l-3.8-9.5H776.6z"/>
	</g>
	<g>
		<path d="M538.9,328.7c0.5,0.3,1.8,0.9,3.1,0.9c2.4,0,3.1-1.5,3.1-2.7c0-1.9-1.8-2.8-3.6-2.8h-1v-1.4h1c1.4,0,3.1-0.7,3.1-2.3
			c0-1.1-0.7-2.1-2.4-2.1c-1.1,0-2.2,0.5-2.8,0.9l-0.5-1.4c0.7-0.5,2.1-1.1,3.6-1.1c2.7,0,3.9,1.6,3.9,3.3c0,1.4-0.8,2.6-2.5,3.2v0
			c1.7,0.3,3.1,1.6,3.1,3.5c0,2.2-1.7,4.1-5,4.1c-1.5,0-2.9-0.5-3.6-0.9L538.9,328.7z"/>
		<path d="M557.6,318.6h-5.3l-0.5,3.5c0.3,0,0.6-0.1,1.1-0.1c1.1,0,2.1,0.2,3,0.7c1.1,0.6,2,1.8,2,3.5c0,2.7-2.1,4.7-5.1,4.7
			c-1.5,0-2.8-0.4-3.4-0.8l0.5-1.4c0.6,0.3,1.7,0.8,2.9,0.8c1.8,0,3.3-1.1,3.3-3c0-1.8-1.2-3.1-4-3.1c-0.8,0-1.4,0.1-1.9,0.1
			l0.9-6.6h6.6V318.6z"/>
		<path d="M568.1,318.4c-0.4,0-0.9,0-1.4,0.1c-2.9,0.5-4.5,2.6-4.8,4.9h0.1c0.7-0.9,1.8-1.6,3.3-1.6c2.4,0,4.2,1.8,4.2,4.5
			c0,2.5-1.7,4.9-4.6,4.9c-2.9,0-4.9-2.3-4.9-5.9c0-2.7,1-4.9,2.3-6.2c1.1-1.1,2.7-1.8,4.4-2c0.6-0.1,1-0.1,1.4-0.1V318.4z
			 M567.6,326.3c0-2-1.1-3.2-2.8-3.2c-1.1,0-2.2,0.7-2.7,1.7c-0.1,0.2-0.2,0.5-0.2,0.8c0,2.3,1.1,3.9,3,3.9
			C566.5,329.7,567.6,328.3,567.6,326.3z"/>
		<path d="M572.2,329.6c0.4,0,0.9,0,1.5-0.1c1.1-0.1,2.1-0.6,2.9-1.3c0.9-0.8,1.6-2,1.8-3.7h-0.1c-0.8,0.9-1.9,1.5-3.2,1.5
			c-2.5,0-4.1-1.9-4.1-4.2c0-2.6,1.9-4.9,4.7-4.9c2.8,0,4.6,2.3,4.6,5.8c0,3-1,5.2-2.4,6.5c-1.1,1-2.5,1.7-4,1.8
			c-0.7,0.1-1.3,0.1-1.7,0.1V329.6z M572.9,321.6c0,1.7,1,2.9,2.7,2.9c1.3,0,2.2-0.6,2.7-1.4c0.1-0.2,0.2-0.4,0.2-0.7
			c0-2.4-0.9-4.2-2.8-4.2C574,318.3,572.9,319.7,572.9,321.6z"/>
		<path d="M591.2,323.8c0,4.7-1.7,7.3-4.8,7.3c-2.7,0-4.5-2.5-4.6-7.1c0-4.6,2-7.2,4.8-7.2C589.5,316.8,591.2,319.4,591.2,323.8z
			 M583.7,324c0,3.6,1.1,5.6,2.8,5.6c1.9,0,2.8-2.2,2.8-5.7c0-3.4-0.9-5.6-2.8-5.6C584.9,318.3,583.7,320.3,583.7,324z"/>
		<path d="M603.5,330.4c-0.7,0.3-2,0.7-3.8,0.7c-4,0-7.1-2.5-7.1-7.2c0-4.5,3-7.5,7.5-7.5c1.8,0,2.9,0.4,3.4,0.6l-0.4,1.5
			c-0.7-0.3-1.7-0.6-2.9-0.6c-3.4,0-5.6,2.1-5.6,5.9c0,3.5,2,5.7,5.5,5.7c1.1,0,2.3-0.2,3-0.6L603.5,330.4z"/>
		<path d="M614.6,324.4v1.4h-5.2v-1.4H614.6z"/>
		<path d="M621.4,316.6h1.8v12.7h6.1v1.5h-8V316.6z"/>
		<path d="M637,330.9l-0.1-1.3h-0.1c-0.6,0.8-1.7,1.5-3.1,1.5c-2.1,0-3.1-1.5-3.1-2.9c0-2.5,2.2-3.8,6.2-3.8v-0.2
			c0-0.8-0.2-2.4-2.3-2.4c-1,0-2,0.3-2.7,0.8l-0.4-1.2c0.8-0.6,2.1-0.9,3.4-0.9c3.1,0,3.9,2.1,3.9,4.2v3.8c0,0.9,0,1.8,0.2,2.5H637z
			 M636.7,325.6c-2,0-4.3,0.3-4.3,2.3c0,1.2,0.8,1.8,1.8,1.8c1.3,0,2.2-0.8,2.5-1.7c0.1-0.2,0.1-0.4,0.1-0.6V325.6z"/>
		<path d="M641.5,323.8c0-1.2,0-2.2-0.1-3.2h1.6l0.1,2h0.1c0.5-1.4,1.6-2.2,2.8-2.2c0.2,0,0.4,0,0.5,0.1v1.8c-0.2,0-0.4-0.1-0.6-0.1
			c-1.3,0-2.2,1-2.5,2.4c0,0.3-0.1,0.6-0.1,0.9v5.5h-1.8V323.8z"/>
		<path d="M657.1,320.6c0,0.7-0.1,1.6-0.1,2.8v6c0,2.4-0.5,3.8-1.5,4.7c-1,0.9-2.4,1.2-3.7,1.2c-1.2,0-2.6-0.3-3.4-0.8l0.5-1.4
			c0.7,0.4,1.7,0.8,3,0.8c1.9,0,3.3-1,3.3-3.6v-1.1h0c-0.6,1-1.7,1.7-3.3,1.7c-2.5,0-4.4-2.2-4.4-5c0-3.5,2.3-5.5,4.6-5.5
			c1.8,0,2.8,0.9,3.2,1.8h0l0.1-1.5H657.1z M655.2,324.7c0-0.3,0-0.6-0.1-0.8c-0.3-1.1-1.3-2-2.6-2c-1.8,0-3.1,1.5-3.1,3.9
			c0,2,1,3.7,3,3.7c1.1,0,2.2-0.7,2.6-1.9c0.1-0.3,0.1-0.7,0.1-1V324.7z"/>
		<path d="M661.2,326.1c0,2.5,1.7,3.6,3.5,3.6c1.3,0,2.1-0.2,2.8-0.5l0.3,1.3c-0.7,0.3-1.8,0.6-3.4,0.6c-3.2,0-5-2.1-5-5.2
			c0-3.1,1.8-5.5,4.8-5.5c3.4,0,4.2,2.9,4.2,4.8c0,0.4,0,0.7-0.1,0.9H661.2z M666.7,324.7c0-1.2-0.5-3-2.6-3c-1.9,0-2.7,1.7-2.9,3
			H666.7z"/>
		<path d="M685.3,330.4c-0.7,0.3-2,0.7-3.8,0.7c-4,0-7.1-2.5-7.1-7.2c0-4.5,3-7.5,7.5-7.5c1.8,0,2.9,0.4,3.4,0.6l-0.4,1.5
			c-0.7-0.3-1.7-0.6-2.9-0.6c-3.4,0-5.6,2.1-5.6,5.9c0,3.5,2,5.7,5.5,5.7c1.1,0,2.3-0.2,3-0.6L685.3,330.4z"/>
		<path d="M693.1,330.9l-0.1-1.3h-0.1c-0.6,0.8-1.7,1.5-3.1,1.5c-2.1,0-3.1-1.5-3.1-2.9c0-2.5,2.2-3.8,6.2-3.8v-0.2
			c0-0.8-0.2-2.4-2.3-2.4c-1,0-2,0.3-2.7,0.8l-0.4-1.2c0.8-0.6,2.1-0.9,3.4-0.9c3.1,0,3.9,2.1,3.9,4.2v3.8c0,0.9,0,1.8,0.2,2.5
			H693.1z M692.8,325.6c-2,0-4.3,0.3-4.3,2.3c0,1.2,0.8,1.8,1.8,1.8c1.3,0,2.2-0.8,2.5-1.7c0.1-0.2,0.1-0.4,0.1-0.6V325.6z"/>
		<path d="M697.6,324c0-1.3,0-2.4-0.1-3.4h1.7l0.1,1.8h0c0.8-1.3,2-2,3.6-2c2.5,0,4.3,2.1,4.3,5.2c0,3.7-2.2,5.5-4.7,5.5
			c-1.4,0-2.5-0.6-3.2-1.6h0v5.6h-1.8V324z M699.5,326.7c0,0.3,0,0.5,0.1,0.8c0.3,1.3,1.5,2.2,2.8,2.2c2,0,3.1-1.6,3.1-4
			c0-2.1-1.1-3.8-3.1-3.8c-1.3,0-2.5,0.9-2.8,2.3c-0.1,0.2-0.1,0.5-0.1,0.8V326.7z"/>
		<path d="M715.4,330.9l-0.1-1.3h-0.1c-0.6,0.8-1.7,1.5-3.1,1.5c-2.1,0-3.1-1.5-3.1-2.9c0-2.5,2.2-3.8,6.2-3.8v-0.2
			c0-0.8-0.2-2.4-2.3-2.4c-1,0-2,0.3-2.7,0.8l-0.4-1.2c0.8-0.6,2.1-0.9,3.4-0.9c3.1,0,3.9,2.1,3.9,4.2v3.8c0,0.9,0,1.8,0.2,2.5
			H715.4z M715.1,325.6c-2,0-4.3,0.3-4.3,2.3c0,1.2,0.8,1.8,1.8,1.8c1.3,0,2.2-0.8,2.5-1.7c0.1-0.2,0.1-0.4,0.1-0.6V325.6z"/>
		<path d="M727.2,330.5c-0.5,0.3-1.6,0.6-2.9,0.6c-3.1,0-5.1-2.1-5.1-5.2c0-3.2,2.2-5.5,5.5-5.5c1.1,0,2.1,0.3,2.6,0.5l-0.4,1.4
			c-0.4-0.3-1.1-0.5-2.2-0.5c-2.4,0-3.6,1.7-3.6,3.9c0,2.4,1.5,3.8,3.6,3.8c1.1,0,1.8-0.3,2.3-0.5L727.2,330.5z"/>
		<path d="M731.5,317.7c0,0.6-0.4,1.1-1.2,1.1c-0.7,0-1.1-0.5-1.1-1.1c0-0.7,0.5-1.2,1.2-1.2C731.1,316.5,731.5,317.1,731.5,317.7z
			 M729.4,330.9v-10.3h1.9v10.3H729.4z"/>
		<path d="M736.6,317.7v2.9h2.7v1.4h-2.7v5.5c0,1.3,0.4,2,1.4,2c0.5,0,0.8-0.1,1.1-0.1l0.1,1.4c-0.4,0.1-0.9,0.3-1.7,0.3
			c-0.9,0-1.6-0.3-2-0.8c-0.5-0.6-0.7-1.5-0.7-2.7V322h-1.6v-1.4h1.6v-2.5L736.6,317.7z"/>
		<path d="M742.3,320.6l2.2,6.1c0.2,0.7,0.5,1.5,0.7,2.1h0c0.2-0.6,0.4-1.4,0.7-2.1l2-6h2l-2.8,7.3c-1.3,3.5-2.2,5.3-3.5,6.4
			c-0.9,0.8-1.8,1.1-2.3,1.2l-0.5-1.6c0.5-0.1,1.1-0.4,1.6-0.9c0.5-0.4,1.1-1.1,1.6-2.1c0.1-0.2,0.1-0.3,0.1-0.4s0-0.3-0.1-0.5
			l-3.8-9.5H742.3z"/>
	</g>
	<g>
		<path d="M538.3,416.7c0-1.7,1-3,2.7-3.7l0-0.1c-1.5-0.7-2.2-1.9-2.2-3.1c0-2.2,1.8-3.7,4.3-3.7c2.7,0,4,1.7,4,3.4
			c0,1.2-0.6,2.4-2.3,3.2v0.1c1.7,0.7,2.8,1.9,2.8,3.6c0,2.4-2.1,4-4.7,4C540.1,420.4,538.3,418.7,538.3,416.7z M545.8,416.6
			c0-1.7-1.2-2.5-3-3c-1.6,0.5-2.5,1.5-2.5,2.8c-0.1,1.4,1,2.6,2.8,2.6C544.7,419.1,545.8,418,545.8,416.6z M540.6,409.7
			c0,1.4,1,2.1,2.6,2.5c1.2-0.4,2.1-1.3,2.1-2.5c0-1.1-0.7-2.2-2.3-2.2C541.5,407.5,540.6,408.5,540.6,409.7z"/>
		<path d="M557.2,407.7c-0.4,0-0.9,0-1.4,0.1c-2.9,0.5-4.5,2.6-4.8,4.9h0.1c0.7-0.9,1.8-1.6,3.3-1.6c2.4,0,4.2,1.8,4.2,4.5
			c0,2.5-1.7,4.9-4.6,4.9c-2.9,0-4.9-2.3-4.9-5.9c0-2.7,1-4.9,2.3-6.2c1.1-1.1,2.7-1.8,4.4-2c0.6-0.1,1-0.1,1.4-0.1V407.7z
			 M556.7,415.7c0-2-1.1-3.2-2.8-3.2c-1.1,0-2.2,0.7-2.7,1.7c-0.1,0.2-0.2,0.5-0.2,0.8c0,2.3,1.1,3.9,3,3.9
			C555.6,419,556.7,417.6,556.7,415.7z"/>
		<path d="M569.2,406.4v1.2l-6,12.6h-1.9l6-12.2v0h-6.7v-1.5H569.2z"/>
		<path d="M580.1,406.4v1.2l-6,12.6h-1.9l6-12.2v0h-6.7v-1.5H580.1z"/>
		<path d="M590.2,408H585l-0.5,3.5c0.3,0,0.6-0.1,1.1-0.1c1.1,0,2.1,0.2,3,0.7c1.1,0.6,2,1.8,2,3.5c0,2.7-2.1,4.7-5.1,4.7
			c-1.5,0-2.8-0.4-3.4-0.8l0.5-1.4c0.6,0.3,1.7,0.8,2.9,0.8c1.8,0,3.3-1.1,3.3-3c0-1.8-1.2-3.1-4-3.1c-0.8,0-1.4,0.1-1.9,0.1
			l0.9-6.6h6.6V408z"/>
		<path d="M592.7,416.7c0-1.7,1-3,2.7-3.7l0-0.1c-1.5-0.7-2.2-1.9-2.2-3.1c0-2.2,1.8-3.7,4.3-3.7c2.7,0,4,1.7,4,3.4
			c0,1.2-0.6,2.4-2.3,3.2v0.1c1.7,0.7,2.8,1.9,2.8,3.6c0,2.4-2.1,4-4.7,4C594.5,420.4,592.7,418.7,592.7,416.7z M600.1,416.6
			c0-1.7-1.2-2.5-3-3c-1.6,0.5-2.5,1.5-2.5,2.8c-0.1,1.4,1,2.6,2.8,2.6C599.1,419.1,600.1,418,600.1,416.6z M595,409.7
			c0,1.4,1,2.1,2.6,2.5c1.2-0.4,2.1-1.3,2.1-2.5c0-1.1-0.7-2.2-2.3-2.2C595.9,407.5,595,408.5,595,409.7z"/>
		<path d="M613.2,413.8v1.4h-5.2v-1.4H613.2z"/>
		<path d="M622.3,420.2l-4.7-14.3h2l2.2,7c0.6,1.9,1.1,3.7,1.5,5.3h0c0.4-1.7,1-3.5,1.6-5.3l2.4-7.1h2l-5.1,14.3H622.3z"/>
		<path d="M631.3,415.4c0,2.5,1.7,3.6,3.5,3.6c1.3,0,2.1-0.2,2.8-0.5l0.3,1.3c-0.7,0.3-1.8,0.6-3.4,0.6c-3.2,0-5-2.1-5-5.2
			c0-3.1,1.8-5.5,4.8-5.5c3.4,0,4.2,2.9,4.2,4.8c0,0.4,0,0.7-0.1,0.9H631.3z M636.8,414c0-1.2-0.5-3-2.6-3c-1.9,0-2.7,1.7-2.9,3
			H636.8z"/>
		<path d="M640.9,413.1c0-1.2,0-2.2-0.1-3.2h1.6l0.1,2h0.1c0.5-1.4,1.6-2.2,2.8-2.2c0.2,0,0.4,0,0.5,0.1v1.8c-0.2,0-0.4-0.1-0.6-0.1
			c-1.3,0-2.2,1-2.5,2.4c0,0.3-0.1,0.6-0.1,0.9v5.5h-1.8V413.1z"/>
		<path d="M649,409.9l2.2,6.1c0.2,0.7,0.5,1.5,0.7,2.1h0c0.2-0.6,0.4-1.4,0.7-2.1l2-6h2l-2.8,7.3c-1.3,3.5-2.2,5.3-3.5,6.4
			c-0.9,0.8-1.8,1.1-2.3,1.2l-0.5-1.6c0.5-0.1,1.1-0.4,1.6-0.9c0.5-0.4,1.1-1.1,1.6-2.1c0.1-0.2,0.1-0.3,0.1-0.4
			c0-0.1,0-0.3-0.1-0.5l-3.8-9.5H649z"/>
		<path d="M662.9,405.9h1.8v12.7h6.1v1.5h-8V405.9z"/>
		<path d="M678.5,420.2l-0.1-1.3h-0.1c-0.6,0.8-1.7,1.5-3.1,1.5c-2.1,0-3.1-1.5-3.1-2.9c0-2.5,2.2-3.8,6.2-3.8v-0.2
			c0-0.8-0.2-2.4-2.3-2.4c-1,0-2,0.3-2.7,0.8l-0.4-1.2c0.8-0.6,2.1-0.9,3.4-0.9c3.1,0,3.9,2.1,3.9,4.2v3.8c0,0.9,0,1.8,0.2,2.5
			H678.5z M678.2,414.9c-2,0-4.3,0.3-4.3,2.3c0,1.2,0.8,1.8,1.8,1.8c1.3,0,2.2-0.8,2.5-1.7c0.1-0.2,0.1-0.4,0.1-0.6V414.9z"/>
		<path d="M683,413.1c0-1.2,0-2.2-0.1-3.2h1.6l0.1,2h0.1c0.5-1.4,1.6-2.2,2.8-2.2c0.2,0,0.4,0,0.5,0.1v1.8c-0.2,0-0.4-0.1-0.6-0.1
			c-1.3,0-2.2,1-2.5,2.4c0,0.3-0.1,0.6-0.1,0.9v5.5H683V413.1z"/>
		<path d="M698.7,409.9c0,0.7-0.1,1.6-0.1,2.8v6c0,2.4-0.5,3.8-1.5,4.7c-1,0.9-2.4,1.2-3.7,1.2c-1.2,0-2.6-0.3-3.4-0.8l0.5-1.4
			c0.7,0.4,1.7,0.8,3,0.8c1.9,0,3.3-1,3.3-3.6v-1.1h0c-0.6,1-1.7,1.7-3.3,1.7c-2.5,0-4.4-2.2-4.4-5c0-3.5,2.3-5.5,4.6-5.5
			c1.8,0,2.8,0.9,3.2,1.8h0l0.1-1.5H698.7z M696.7,414c0-0.3,0-0.6-0.1-0.8c-0.3-1.1-1.3-2-2.6-2c-1.8,0-3.1,1.5-3.1,3.9
			c0,2,1,3.7,3,3.7c1.1,0,2.2-0.7,2.6-1.9c0.1-0.3,0.1-0.7,0.1-1V414z"/>
		<path d="M702.7,415.4c0,2.5,1.7,3.6,3.5,3.6c1.3,0,2.1-0.2,2.8-0.5l0.3,1.3c-0.7,0.3-1.8,0.6-3.4,0.6c-3.2,0-5-2.1-5-5.2
			c0-3.1,1.8-5.5,4.8-5.5c3.4,0,4.2,2.9,4.2,4.8c0,0.4,0,0.7-0.1,0.9H702.7z M708.2,414c0-1.2-0.5-3-2.6-3c-1.9,0-2.7,1.7-2.9,3
			H708.2z"/>
		<path d="M726.8,419.7c-0.7,0.3-2,0.7-3.8,0.7c-4,0-7.1-2.5-7.1-7.2c0-4.5,3-7.5,7.5-7.5c1.8,0,2.9,0.4,3.4,0.6l-0.4,1.5
			c-0.7-0.3-1.7-0.6-2.9-0.6c-3.4,0-5.6,2.1-5.6,5.9c0,3.5,2,5.7,5.5,5.7c1.1,0,2.3-0.2,3-0.6L726.8,419.7z"/>
		<path d="M734.6,420.2l-0.1-1.3h-0.1c-0.6,0.8-1.7,1.5-3.1,1.5c-2.1,0-3.1-1.5-3.1-2.9c0-2.5,2.2-3.8,6.2-3.8v-0.2
			c0-0.8-0.2-2.4-2.3-2.4c-1,0-2,0.3-2.7,0.8l-0.4-1.2c0.8-0.6,2.1-0.9,3.4-0.9c3.1,0,3.9,2.1,3.9,4.2v3.8c0,0.9,0,1.8,0.2,2.5
			H734.6z M734.3,414.9c-2,0-4.3,0.3-4.3,2.3c0,1.2,0.8,1.8,1.8,1.8c1.3,0,2.2-0.8,2.5-1.7c0.1-0.2,0.1-0.4,0.1-0.6V414.9z"/>
		<path d="M739.2,413.3c0-1.3,0-2.4-0.1-3.4h1.7l0.1,1.8h0c0.8-1.3,2-2,3.6-2c2.5,0,4.3,2.1,4.3,5.2c0,3.7-2.2,5.5-4.7,5.5
			c-1.4,0-2.5-0.6-3.2-1.6h0v5.6h-1.8V413.3z M741,416c0,0.3,0,0.5,0.1,0.8c0.3,1.3,1.5,2.2,2.8,2.2c2,0,3.1-1.6,3.1-4
			c0-2.1-1.1-3.8-3.1-3.8c-1.3,0-2.5,0.9-2.8,2.3c-0.1,0.2-0.1,0.5-0.1,0.8V416z"/>
		<path d="M756.9,420.2l-0.1-1.3h-0.1c-0.6,0.8-1.7,1.5-3.1,1.5c-2.1,0-3.1-1.5-3.1-2.9c0-2.5,2.2-3.8,6.2-3.8v-0.2
			c0-0.8-0.2-2.4-2.3-2.4c-1,0-2,0.3-2.7,0.8l-0.4-1.2c0.8-0.6,2.1-0.9,3.4-0.9c3.1,0,3.9,2.1,3.9,4.2v3.8c0,0.9,0,1.8,0.2,2.5
			H756.9z M756.6,414.9c-2,0-4.3,0.3-4.3,2.3c0,1.2,0.8,1.8,1.8,1.8c1.3,0,2.2-0.8,2.5-1.7c0.1-0.2,0.1-0.4,0.1-0.6V414.9z"/>
		<path d="M768.8,419.8c-0.5,0.3-1.6,0.6-2.9,0.6c-3.1,0-5.1-2.1-5.1-5.2c0-3.2,2.2-5.5,5.5-5.5c1.1,0,2.1,0.3,2.6,0.5l-0.4,1.4
			c-0.4-0.3-1.1-0.5-2.2-0.5c-2.4,0-3.6,1.7-3.6,3.9c0,2.4,1.5,3.8,3.6,3.8c1.1,0,1.8-0.3,2.3-0.5L768.8,419.8z"/>
		<path d="M773,407c0,0.6-0.4,1.1-1.2,1.1c-0.7,0-1.1-0.5-1.1-1.1c0-0.7,0.5-1.2,1.2-1.2C772.6,405.9,773,406.4,773,407z
			 M770.9,420.2v-10.3h1.9v10.3H770.9z"/>
		<path d="M778.2,407v2.9h2.7v1.4h-2.7v5.5c0,1.3,0.4,2,1.4,2c0.5,0,0.8-0.1,1.1-0.1l0.1,1.4c-0.4,0.1-0.9,0.3-1.7,0.3
			c-0.9,0-1.6-0.3-2-0.8c-0.5-0.6-0.7-1.5-0.7-2.7v-5.6h-1.6v-1.4h1.6v-2.5L778.2,407z"/>
		<path d="M783.8,409.9l2.2,6.1c0.2,0.7,0.5,1.5,0.7,2.1h0c0.2-0.6,0.4-1.4,0.7-2.1l2-6h2l-2.8,7.3c-1.3,3.5-2.2,5.3-3.5,6.4
			c-0.9,0.8-1.8,1.1-2.3,1.2l-0.5-1.6c0.5-0.1,1.1-0.4,1.6-0.9c0.5-0.4,1.1-1.1,1.6-2.1c0.1-0.2,0.1-0.3,0.1-0.4
			c0-0.1,0-0.3-0.1-0.5l-3.8-9.5H783.8z"/>
	</g>
	<g>
		<path d="M546.6,501.1H541v5.2h6.2v1.5h-8v-14.3h7.7v1.5H541v4.5h5.6V501.1z"/>
		<path d="M557.2,495.6h-5.3l-0.5,3.5c0.3,0,0.6-0.1,1.1-0.1c1.1,0,2.1,0.2,3,0.7c1.1,0.6,2,1.8,2,3.5c0,2.7-2.1,4.7-5.1,4.7
			c-1.5,0-2.8-0.4-3.4-0.8l0.5-1.4c0.6,0.3,1.7,0.8,2.9,0.8c1.8,0,3.3-1.1,3.3-3c0-1.8-1.2-3.1-4-3.1c-0.8,0-1.4,0.1-1.9,0.1
			l0.9-6.6h6.6V495.6z"/>
		<path d="M560.9,506.5c0.4,0,0.9,0,1.5-0.1c1.1-0.1,2.1-0.6,2.9-1.3c0.9-0.8,1.6-2,1.8-3.7H567c-0.8,0.9-1.9,1.5-3.2,1.5
			c-2.5,0-4.1-1.9-4.1-4.2c0-2.6,1.9-4.9,4.7-4.9c2.8,0,4.6,2.3,4.6,5.8c0,3-1,5.2-2.4,6.5c-1.1,1-2.5,1.7-4,1.8
			c-0.7,0.1-1.3,0.1-1.7,0.1V506.5z M561.6,498.6c0,1.7,1,2.9,2.7,2.9c1.3,0,2.2-0.6,2.7-1.4c0.1-0.2,0.2-0.4,0.2-0.7
			c0-2.4-0.9-4.2-2.8-4.2C562.7,495.2,561.6,496.6,561.6,498.6z"/>
		<path d="M578.6,495.4c-0.4,0-0.9,0-1.4,0.1c-2.9,0.5-4.5,2.6-4.8,4.9h0.1c0.7-0.9,1.8-1.6,3.3-1.6c2.4,0,4.2,1.8,4.2,4.5
			c0,2.5-1.7,4.9-4.6,4.9c-2.9,0-4.9-2.3-4.9-5.9c0-2.7,1-4.9,2.3-6.2c1.1-1.1,2.7-1.8,4.4-2c0.6-0.1,1-0.1,1.4-0.1V495.4z
			 M578,503.3c0-2-1.1-3.2-2.8-3.2c-1.1,0-2.2,0.7-2.7,1.7c-0.1,0.2-0.2,0.5-0.2,0.8c0,2.3,1.1,3.9,3,3.9
			C576.9,506.6,578,505.3,578,503.3z"/>
		<path d="M590.7,500.8c0,4.7-1.7,7.3-4.8,7.3c-2.7,0-4.5-2.5-4.6-7.1c0-4.6,2-7.2,4.8-7.2C589.1,493.8,590.7,496.4,590.7,500.8z
			 M583.2,501c0,3.6,1.1,5.6,2.8,5.6c1.9,0,2.8-2.2,2.8-5.8c0-3.4-0.9-5.6-2.8-5.6C584.4,495.2,583.2,497.2,583.2,501z"/>
		<path d="M601.4,494v1.2l-6,12.6h-1.9l6-12.2v0h-6.7V494H601.4z"/>
		<path d="M612.7,501.4v1.4h-5.2v-1.4H612.7z"/>
		<path d="M631.5,501.5c-0.1-2-0.2-4.4-0.2-6.2h-0.1c-0.5,1.7-1.1,3.5-1.8,5.4l-2.5,6.9h-1.4l-2.3-6.8c-0.7-2-1.3-3.9-1.7-5.6h0
			c0,1.8-0.1,4.2-0.3,6.3l-0.4,6.1h-1.8l1-14.3h2.4l2.4,6.9c0.6,1.8,1.1,3.3,1.4,4.8h0.1c0.4-1.4,0.9-3,1.5-4.8l2.5-6.9h2.4
			l0.9,14.3h-1.8L631.5,501.5z"/>
		<path d="M642.3,507.8l-0.1-1.3h-0.1c-0.6,0.8-1.7,1.5-3.1,1.5c-2.1,0-3.1-1.5-3.1-2.9c0-2.5,2.2-3.8,6.2-3.8v-0.2
			c0-0.8-0.2-2.4-2.3-2.4c-1,0-2,0.3-2.7,0.8l-0.4-1.2c0.8-0.6,2.1-0.9,3.4-0.9c3.1,0,3.9,2.1,3.9,4.2v3.8c0,0.9,0,1.8,0.2,2.5
			H642.3z M642,502.6c-2,0-4.3,0.3-4.3,2.3c0,1.2,0.8,1.8,1.8,1.8c1.3,0,2.2-0.8,2.5-1.7c0.1-0.2,0.1-0.4,0.1-0.6V502.6z"/>
		<path d="M646.6,505.9c0.6,0.4,1.5,0.7,2.5,0.7c1.4,0,2-0.7,2-1.5c0-0.9-0.5-1.4-1.9-1.9c-1.8-0.7-2.7-1.7-2.7-2.9
			c0-1.7,1.3-3,3.5-3c1,0,2,0.3,2.5,0.6l-0.5,1.4c-0.4-0.3-1.1-0.6-2.1-0.6c-1.1,0-1.7,0.6-1.7,1.4c0,0.8,0.6,1.2,2,1.7
			c1.8,0.7,2.7,1.6,2.7,3.1c0,1.8-1.4,3.1-3.8,3.1c-1.1,0-2.2-0.3-2.9-0.7L646.6,505.9z"/>
		<path d="M655,505.9c0.6,0.4,1.5,0.7,2.5,0.7c1.4,0,2-0.7,2-1.5c0-0.9-0.5-1.4-1.9-1.9c-1.8-0.7-2.7-1.7-2.7-2.9c0-1.7,1.3-3,3.5-3
			c1,0,2,0.3,2.5,0.6l-0.5,1.4c-0.4-0.3-1.1-0.6-2.1-0.6c-1.1,0-1.7,0.6-1.7,1.4c0,0.8,0.6,1.2,2,1.7c1.8,0.7,2.7,1.6,2.7,3.1
			c0,1.8-1.4,3.1-3.8,3.1c-1.1,0-2.2-0.3-2.9-0.7L655,505.9z"/>
		<path d="M665.7,494.7c0,0.6-0.4,1.1-1.2,1.1c-0.7,0-1.1-0.5-1.1-1.1c0-0.7,0.5-1.2,1.2-1.2C665.2,493.5,665.7,494,665.7,494.7z
			 M663.6,507.8v-10.3h1.9v10.3H663.6z"/>
		<path d="M669.3,497.6l2,5.8c0.3,0.9,0.6,1.8,0.8,2.6h0.1c0.2-0.8,0.5-1.7,0.9-2.6l2-5.8h2l-4,10.3h-1.8l-3.9-10.3H669.3z"/>
		<path d="M679.6,503c0,2.5,1.7,3.6,3.5,3.6c1.3,0,2.1-0.2,2.8-0.5l0.3,1.3c-0.7,0.3-1.8,0.6-3.4,0.6c-3.2,0-5-2.1-5-5.2
			s1.8-5.5,4.8-5.5c3.4,0,4.2,2.9,4.2,4.8c0,0.4,0,0.7-0.1,0.9H679.6z M685.1,501.7c0-1.2-0.5-3-2.6-3c-1.9,0-2.7,1.7-2.9,3H685.1z"
			/>
		<path d="M703.7,507.4c-0.7,0.3-2,0.7-3.8,0.7c-4,0-7.1-2.5-7.1-7.2c0-4.5,3-7.5,7.5-7.5c1.8,0,2.9,0.4,3.4,0.6l-0.4,1.5
			c-0.7-0.3-1.7-0.6-2.9-0.6c-3.4,0-5.6,2.1-5.6,5.9c0,3.5,2,5.7,5.5,5.7c1.1,0,2.3-0.2,3-0.6L703.7,507.4z"/>
		<path d="M711.5,507.8l-0.1-1.3h-0.1c-0.6,0.8-1.7,1.5-3.1,1.5c-2.1,0-3.1-1.5-3.1-2.9c0-2.5,2.2-3.8,6.2-3.8v-0.2
			c0-0.8-0.2-2.4-2.3-2.4c-1,0-2,0.3-2.7,0.8l-0.4-1.2c0.8-0.6,2.1-0.9,3.4-0.9c3.1,0,3.9,2.1,3.9,4.2v3.8c0,0.9,0,1.8,0.2,2.5
			H711.5z M711.2,502.6c-2,0-4.3,0.3-4.3,2.3c0,1.2,0.8,1.8,1.8,1.8c1.3,0,2.2-0.8,2.5-1.7c0.1-0.2,0.1-0.4,0.1-0.6V502.6z"/>
		<path d="M716.1,500.9c0-1.3,0-2.4-0.1-3.4h1.7l0.1,1.8h0c0.8-1.3,2-2,3.6-2c2.5,0,4.3,2.1,4.3,5.2c0,3.7-2.2,5.5-4.7,5.5
			c-1.4,0-2.5-0.6-3.2-1.6h0v5.6h-1.8V500.9z M717.9,503.6c0,0.3,0,0.5,0.1,0.8c0.3,1.3,1.5,2.2,2.8,2.2c2,0,3.1-1.6,3.1-4
			c0-2.1-1.1-3.8-3.1-3.8c-1.3,0-2.5,0.9-2.8,2.3c-0.1,0.2-0.1,0.5-0.1,0.8V503.6z"/>
		<path d="M733.8,507.8l-0.1-1.3h-0.1c-0.6,0.8-1.7,1.5-3.1,1.5c-2.1,0-3.1-1.5-3.1-2.9c0-2.5,2.2-3.8,6.2-3.8v-0.2
			c0-0.8-0.2-2.4-2.3-2.4c-1,0-2,0.3-2.7,0.8l-0.4-1.2c0.8-0.6,2.1-0.9,3.4-0.9c3.1,0,3.9,2.1,3.9,4.2v3.8c0,0.9,0,1.8,0.2,2.5
			H733.8z M733.5,502.6c-2,0-4.3,0.3-4.3,2.3c0,1.2,0.8,1.8,1.8,1.8c1.3,0,2.2-0.8,2.5-1.7c0.1-0.2,0.1-0.4,0.1-0.6V502.6z"/>
		<path d="M745.7,507.4c-0.5,0.3-1.6,0.6-2.9,0.6c-3.1,0-5.1-2.1-5.1-5.2c0-3.2,2.2-5.5,5.5-5.5c1.1,0,2.1,0.3,2.6,0.5l-0.4,1.4
			c-0.4-0.3-1.1-0.5-2.2-0.5c-2.4,0-3.6,1.7-3.6,3.9c0,2.4,1.5,3.8,3.6,3.8c1.1,0,1.8-0.3,2.3-0.5L745.7,507.4z"/>
		<path d="M749.9,494.7c0,0.6-0.4,1.1-1.2,1.1c-0.7,0-1.1-0.5-1.1-1.1c0-0.7,0.5-1.2,1.2-1.2C749.5,493.5,749.9,494,749.9,494.7z
			 M747.8,507.8v-10.3h1.9v10.3H747.8z"/>
		<path d="M755.1,494.6v2.9h2.7v1.4h-2.7v5.5c0,1.3,0.4,2,1.4,2c0.5,0,0.8-0.1,1.1-0.1l0.1,1.4c-0.4,0.1-0.9,0.3-1.7,0.3
			c-0.9,0-1.6-0.3-2-0.8c-0.5-0.6-0.7-1.5-0.7-2.7V499h-1.6v-1.4h1.6v-2.5L755.1,494.6z"/>
		<path d="M760.7,497.6l2.2,6.1c0.2,0.7,0.5,1.5,0.7,2.1h0c0.2-0.6,0.4-1.4,0.7-2.1l2-6h2l-2.8,7.3c-1.3,3.5-2.2,5.3-3.5,6.4
			c-0.9,0.8-1.8,1.1-2.3,1.2l-0.5-1.6c0.5-0.1,1.1-0.4,1.6-0.9c0.5-0.4,1.1-1.1,1.6-2.1c0.1-0.2,0.1-0.3,0.1-0.4s0-0.3-0.1-0.5
			l-3.8-9.5H760.7z"/>
	</g>
	<g>
		<path d="M547.7,591.9c0,4.7-1.7,7.3-4.8,7.3c-2.7,0-4.5-2.5-4.6-7.1c0-4.6,2-7.2,4.8-7.2C546,584.9,547.7,587.5,547.7,591.9z
			 M540.2,592.1c0,3.6,1.1,5.6,2.8,5.6c1.9,0,2.8-2.2,2.8-5.7c0-3.4-0.9-5.6-2.8-5.6C541.4,586.3,540.2,588.3,540.2,592.1z"/>
		<path d="M558.3,585.1v1.2l-6,12.6h-1.9l6-12.2v0h-6.7v-1.5H558.3z"/>
		<path d="M569.4,591.9c0,4.7-1.7,7.3-4.8,7.3c-2.7,0-4.5-2.5-4.6-7.1c0-4.6,2-7.2,4.8-7.2C567.8,584.9,569.4,587.5,569.4,591.9z
			 M561.9,592.1c0,3.6,1.1,5.6,2.8,5.6c1.9,0,2.8-2.2,2.8-5.7c0-3.4-0.9-5.6-2.8-5.6C563.1,586.3,561.9,588.3,561.9,592.1z"/>
		<path d="M579.2,592.2h-5.6v5.2h6.2v1.5h-8v-14.3h7.7v1.5h-5.9v4.5h5.6V592.2z"/>
		<path d="M585.6,586.9L585.6,586.9l-2.4,1.3l-0.4-1.4l3-1.6h1.6v13.8h-1.8V586.9z"/>
		<path d="M595.4,594.4l-1.5,4.5H592l4.9-14.3h2.2l4.9,14.3h-2l-1.5-4.5H595.4z M600.1,593l-1.4-4.1c-0.3-0.9-0.5-1.8-0.7-2.6h0
			c-0.2,0.8-0.4,1.7-0.7,2.6l-1.4,4.1H600.1z"/>
		<path d="M614.8,592.5v1.4h-5.2v-1.4H614.8z"/>
		<path d="M623.4,584.6v8.5c0,3.2,1.4,4.6,3.3,4.6c2.1,0,3.5-1.4,3.5-4.6v-8.5h1.9v8.3c0,4.4-2.3,6.2-5.4,6.2
			c-2.9,0-5.1-1.7-5.1-6.1v-8.4H623.4z"/>
		<path d="M635.2,583.8h1.9v15.1h-1.9V583.8z"/>
		<path d="M642.5,585.7v2.9h2.7v1.4h-2.7v5.5c0,1.3,0.4,2,1.4,2c0.5,0,0.8-0.1,1.1-0.1l0.1,1.4c-0.4,0.1-0.9,0.3-1.7,0.3
			c-0.9,0-1.6-0.3-2-0.8c-0.5-0.6-0.7-1.5-0.7-2.7v-5.6h-1.6v-1.4h1.6v-2.5L642.5,585.7z"/>
		<path d="M647.3,591.8c0-1.2,0-2.2-0.1-3.2h1.6l0.1,2h0.1c0.5-1.4,1.6-2.2,2.8-2.2c0.2,0,0.4,0,0.5,0.1v1.8c-0.2,0-0.4-0.1-0.6-0.1
			c-1.3,0-2.2,1-2.5,2.4c0,0.3-0.1,0.6-0.1,0.9v5.5h-1.8V591.8z"/>
		<path d="M659.8,598.9l-0.1-1.3h-0.1c-0.6,0.8-1.7,1.5-3.1,1.5c-2.1,0-3.1-1.5-3.1-2.9c0-2.5,2.2-3.8,6.2-3.8v-0.2
			c0-0.8-0.2-2.4-2.3-2.4c-1,0-2,0.3-2.7,0.8l-0.4-1.2c0.8-0.6,2.1-0.9,3.4-0.9c3.1,0,3.9,2.1,3.9,4.2v3.8c0,0.9,0,1.8,0.2,2.5
			H659.8z M659.5,593.7c-2,0-4.3,0.3-4.3,2.3c0,1.2,0.8,1.8,1.8,1.8c1.3,0,2.2-0.8,2.5-1.7c0.1-0.2,0.1-0.4,0.1-0.6V593.7z"/>
		<path d="M678.9,598.4c-0.7,0.3-2,0.7-3.8,0.7c-4,0-7.1-2.5-7.1-7.2c0-4.5,3-7.5,7.5-7.5c1.8,0,2.9,0.4,3.4,0.6l-0.4,1.5
			c-0.7-0.3-1.7-0.6-2.9-0.6c-3.4,0-5.6,2.1-5.6,5.9c0,3.5,2,5.7,5.5,5.7c1.1,0,2.3-0.2,3-0.6L678.9,598.4z"/>
		<path d="M686.6,598.9l-0.1-1.3h-0.1c-0.6,0.8-1.7,1.5-3.1,1.5c-2.1,0-3.1-1.5-3.1-2.9c0-2.5,2.2-3.8,6.2-3.8v-0.2
			c0-0.8-0.2-2.4-2.3-2.4c-1,0-2,0.3-2.7,0.8l-0.4-1.2c0.8-0.6,2.1-0.9,3.4-0.9c3.1,0,3.9,2.1,3.9,4.2v3.8c0,0.9,0,1.8,0.2,2.5
			H686.6z M686.4,593.7c-2,0-4.3,0.3-4.3,2.3c0,1.2,0.8,1.8,1.8,1.8c1.3,0,2.2-0.8,2.5-1.7c0.1-0.2,0.1-0.4,0.1-0.6V593.7z"/>
		<path d="M691.2,592c0-1.3,0-2.4-0.1-3.4h1.7l0.1,1.8h0c0.8-1.3,2-2,3.6-2c2.5,0,4.3,2.1,4.3,5.2c0,3.7-2.2,5.5-4.7,5.5
			c-1.4,0-2.5-0.6-3.2-1.6h0v5.6h-1.8V592z M693,594.7c0,0.3,0,0.5,0.1,0.8c0.3,1.3,1.5,2.2,2.8,2.2c2,0,3.1-1.6,3.1-4
			c0-2.1-1.1-3.8-3.1-3.8c-1.3,0-2.5,0.9-2.8,2.3c-0.1,0.2-0.1,0.5-0.1,0.8V594.7z"/>
		<path d="M708.9,598.9l-0.1-1.3h-0.1c-0.6,0.8-1.7,1.5-3.1,1.5c-2.1,0-3.1-1.5-3.1-2.9c0-2.5,2.2-3.8,6.2-3.8v-0.2
			c0-0.8-0.2-2.4-2.3-2.4c-1,0-2,0.3-2.7,0.8l-0.4-1.2c0.8-0.6,2.1-0.9,3.4-0.9c3.1,0,3.9,2.1,3.9,4.2v3.8c0,0.9,0,1.8,0.2,2.5
			H708.9z M708.7,593.7c-2,0-4.3,0.3-4.3,2.3c0,1.2,0.8,1.8,1.8,1.8c1.3,0,2.2-0.8,2.5-1.7c0.1-0.2,0.1-0.4,0.1-0.6V593.7z"/>
		<path d="M720.8,598.5c-0.5,0.3-1.6,0.6-2.9,0.6c-3.1,0-5.1-2.1-5.1-5.2c0-3.2,2.2-5.5,5.5-5.5c1.1,0,2.1,0.3,2.6,0.5l-0.4,1.4
			c-0.4-0.3-1.1-0.5-2.2-0.5c-2.4,0-3.6,1.7-3.6,3.9c0,2.4,1.5,3.8,3.6,3.8c1.1,0,1.8-0.3,2.3-0.5L720.8,598.5z"/>
		<path d="M725.1,585.8c0,0.6-0.4,1.1-1.2,1.1c-0.7,0-1.1-0.5-1.1-1.1c0-0.7,0.5-1.2,1.2-1.2C724.6,584.6,725.1,585.1,725.1,585.8z
			 M723,598.9v-10.3h1.9v10.3H723z"/>
		<path d="M730.2,585.7v2.9h2.7v1.4h-2.7v5.5c0,1.3,0.4,2,1.4,2c0.5,0,0.8-0.1,1.1-0.1l0.1,1.4c-0.4,0.1-0.9,0.3-1.7,0.3
			c-0.9,0-1.6-0.3-2-0.8c-0.5-0.6-0.7-1.5-0.7-2.7v-5.6h-1.6v-1.4h1.6v-2.5L730.2,585.7z"/>
		<path d="M735.8,588.6l2.2,6.1c0.2,0.7,0.5,1.5,0.7,2.1h0c0.2-0.6,0.4-1.4,0.7-2.1l2-6h2l-2.8,7.3c-1.3,3.5-2.2,5.3-3.5,6.4
			c-0.9,0.8-1.8,1.1-2.3,1.2l-0.5-1.6c0.5-0.1,1.1-0.4,1.6-0.9c0.5-0.4,1.1-1.1,1.6-2.1c0.1-0.2,0.1-0.3,0.1-0.4s0-0.3-0.1-0.5
			l-3.8-9.5H735.8z"/>
	</g>
	<g>
		<path d="M541.5,683.5L540,688h-1.9l4.9-14.3h2.2L550,688h-2l-1.5-4.5H541.5z M546.2,682.1l-1.4-4.1c-0.3-0.9-0.5-1.8-0.7-2.6h0
			c-0.2,0.8-0.4,1.7-0.7,2.6l-1.4,4.1H546.2z"/>
		<path d="M560.4,674.3v1.2l-6,12.6h-1.9l6-12.2v0h-6.7v-1.5H560.4z"/>
		<path d="M571.5,681c0,4.7-1.7,7.3-4.8,7.3c-2.7,0-4.5-2.5-4.6-7.1c0-4.6,2-7.2,4.8-7.2C569.9,674,571.5,676.6,571.5,681z
			 M564,681.2c0,3.6,1.1,5.6,2.8,5.6c1.9,0,2.8-2.2,2.8-5.7c0-3.4-0.9-5.6-2.8-5.6C565.2,675.5,564,677.5,564,681.2z"/>
		<path d="M573.7,685.9c0.5,0.3,1.8,0.9,3.1,0.9c2.4,0,3.1-1.5,3.1-2.7c0-1.9-1.8-2.8-3.6-2.8h-1v-1.4h1c1.4,0,3.1-0.7,3.1-2.3
			c0-1.1-0.7-2.1-2.4-2.1c-1.1,0-2.2,0.5-2.8,0.9l-0.5-1.4c0.7-0.5,2.1-1.1,3.6-1.1c2.7,0,3.9,1.6,3.9,3.3c0,1.4-0.8,2.6-2.5,3.2v0
			c1.7,0.3,3.1,1.6,3.1,3.5c0,2.2-1.7,4.1-5,4.1c-1.5,0-2.9-0.5-3.6-0.9L573.7,685.9z"/>
		<path d="M593.3,681c0,4.7-1.7,7.3-4.8,7.3c-2.7,0-4.5-2.5-4.6-7.1c0-4.6,2-7.2,4.8-7.2C591.6,674,593.3,676.6,593.3,681z
			 M585.8,681.2c0,3.6,1.1,5.6,2.8,5.6c1.9,0,2.8-2.2,2.8-5.7c0-3.4-0.9-5.6-2.8-5.6C587,675.5,585.8,677.5,585.8,681.2z"/>
		<path d="M594.8,684.5c0-1.7,1-3,2.7-3.7l0-0.1c-1.5-0.7-2.2-1.9-2.2-3.1c0-2.2,1.8-3.7,4.3-3.7c2.7,0,4,1.7,4,3.4
			c0,1.2-0.6,2.4-2.3,3.2v0.1c1.7,0.7,2.8,1.9,2.8,3.6c0,2.4-2.1,4-4.7,4C596.6,688.3,594.8,686.6,594.8,684.5z M602.2,684.5
			c0-1.7-1.2-2.5-3-3c-1.6,0.5-2.5,1.5-2.5,2.8c-0.1,1.4,1,2.6,2.8,2.6C601.2,686.9,602.2,685.9,602.2,684.5z M597.1,677.6
			c0,1.4,1,2.1,2.6,2.5c1.2-0.4,2.1-1.3,2.1-2.5c0-1.1-0.7-2.2-2.3-2.2C598,675.4,597.1,676.4,597.1,677.6z"/>
		<path d="M615.3,681.6v1.4H610v-1.4H615.3z"/>
		<path d="M634.1,681.8c-0.1-2-0.2-4.4-0.2-6.2h-0.1c-0.5,1.7-1.1,3.5-1.8,5.4l-2.5,6.9h-1.4l-2.3-6.8c-0.7-2-1.3-3.9-1.7-5.6h0
			c0,1.8-0.1,4.2-0.3,6.3l-0.4,6.1h-1.8l1-14.3h2.4l2.4,6.9c0.6,1.8,1.1,3.3,1.4,4.8h0.1c0.4-1.4,0.9-3,1.5-4.8l2.5-6.9h2.4
			l0.9,14.3h-1.8L634.1,681.8z"/>
		<path d="M640.2,683.2c0,2.5,1.7,3.6,3.5,3.6c1.3,0,2.1-0.2,2.8-0.5l0.3,1.3c-0.7,0.3-1.8,0.6-3.4,0.6c-3.2,0-5-2.1-5-5.2
			c0-3.1,1.8-5.5,4.8-5.5c3.4,0,4.2,2.9,4.2,4.8c0,0.4,0,0.7-0.1,0.9H640.2z M645.7,681.9c0-1.2-0.5-3-2.6-3c-1.9,0-2.7,1.7-2.9,3
			H645.7z"/>
		<path d="M658.6,677.8c0,0.7-0.1,1.6-0.1,2.8v6c0,2.4-0.5,3.8-1.5,4.7c-1,0.9-2.4,1.2-3.7,1.2c-1.2,0-2.6-0.3-3.4-0.8l0.5-1.4
			c0.7,0.4,1.7,0.8,3,0.8c1.9,0,3.3-1,3.3-3.6v-1.1h0c-0.6,1-1.7,1.7-3.3,1.7c-2.5,0-4.4-2.2-4.4-5c0-3.5,2.3-5.5,4.6-5.5
			c1.8,0,2.8,0.9,3.2,1.8h0l0.1-1.5H658.6z M656.7,681.8c0-0.3,0-0.6-0.1-0.8c-0.3-1.1-1.3-2-2.6-2c-1.8,0-3.1,1.5-3.1,3.9
			c0,2,1,3.7,3,3.7c1.1,0,2.2-0.7,2.6-1.9c0.1-0.3,0.1-0.7,0.1-1V681.8z"/>
		<path d="M667.3,688l-0.1-1.3h-0.1c-0.6,0.8-1.7,1.5-3.1,1.5c-2.1,0-3.1-1.5-3.1-2.9c0-2.5,2.2-3.8,6.2-3.8v-0.2
			c0-0.8-0.2-2.4-2.3-2.4c-1,0-2,0.3-2.7,0.8l-0.4-1.2c0.8-0.6,2.1-0.9,3.4-0.9c3.1,0,3.9,2.1,3.9,4.2v3.8c0,0.9,0,1.8,0.2,2.5
			H667.3z M667,682.8c-2,0-4.3,0.3-4.3,2.3c0,1.2,0.8,1.8,1.8,1.8c1.3,0,2.2-0.8,2.5-1.7c0.1-0.2,0.1-0.4,0.1-0.6V682.8z"/>
		<path d="M686.4,687.6c-0.7,0.3-2,0.7-3.8,0.7c-4,0-7.1-2.5-7.1-7.2c0-4.5,3-7.5,7.5-7.5c1.8,0,2.9,0.4,3.4,0.6l-0.4,1.5
			c-0.7-0.3-1.7-0.6-2.9-0.6c-3.4,0-5.6,2.1-5.6,5.9c0,3.5,2,5.8,5.5,5.8c1.1,0,2.3-0.2,3-0.6L686.4,687.6z"/>
		<path d="M694.2,688l-0.1-1.3H694c-0.6,0.8-1.7,1.5-3.1,1.5c-2.1,0-3.1-1.5-3.1-2.9c0-2.5,2.2-3.8,6.2-3.8v-0.2
			c0-0.8-0.2-2.4-2.3-2.4c-1,0-2,0.3-2.7,0.8l-0.4-1.2c0.8-0.6,2.1-0.9,3.4-0.9c3.1,0,3.9,2.1,3.9,4.2v3.8c0,0.9,0,1.8,0.2,2.5
			H694.2z M693.9,682.8c-2,0-4.3,0.3-4.3,2.3c0,1.2,0.8,1.8,1.8,1.8c1.3,0,2.2-0.8,2.5-1.7c0.1-0.2,0.1-0.4,0.1-0.6V682.8z"/>
		<path d="M698.7,681.1c0-1.3,0-2.4-0.1-3.4h1.7l0.1,1.8h0c0.8-1.3,2-2,3.6-2c2.5,0,4.3,2.1,4.3,5.2c0,3.7-2.2,5.5-4.7,5.5
			c-1.4,0-2.5-0.6-3.2-1.6h0v5.6h-1.8V681.1z M700.6,683.9c0,0.3,0,0.5,0.1,0.8c0.3,1.3,1.5,2.2,2.8,2.2c2,0,3.1-1.6,3.1-4
			c0-2.1-1.1-3.8-3.1-3.8c-1.3,0-2.5,0.9-2.8,2.3c-0.1,0.2-0.1,0.5-0.1,0.8V683.9z"/>
		<path d="M716.5,688l-0.1-1.3h-0.1c-0.6,0.8-1.7,1.5-3.1,1.5c-2.1,0-3.1-1.5-3.1-2.9c0-2.5,2.2-3.8,6.2-3.8v-0.2
			c0-0.8-0.2-2.4-2.3-2.4c-1,0-2,0.3-2.7,0.8l-0.4-1.2c0.8-0.6,2.1-0.9,3.4-0.9c3.1,0,3.9,2.1,3.9,4.2v3.8c0,0.9,0,1.8,0.2,2.5
			H716.5z M716.2,682.8c-2,0-4.3,0.3-4.3,2.3c0,1.2,0.8,1.8,1.8,1.8c1.3,0,2.2-0.8,2.5-1.7c0.1-0.2,0.1-0.4,0.1-0.6V682.8z"/>
		<path d="M728.3,687.7c-0.5,0.3-1.6,0.6-2.9,0.6c-3.1,0-5.1-2.1-5.1-5.2c0-3.2,2.2-5.5,5.5-5.5c1.1,0,2.1,0.3,2.6,0.5l-0.4,1.4
			c-0.4-0.3-1.1-0.5-2.2-0.5c-2.4,0-3.6,1.7-3.6,3.9c0,2.4,1.5,3.8,3.6,3.8c1.1,0,1.8-0.3,2.3-0.5L728.3,687.7z"/>
		<path d="M732.6,674.9c0,0.6-0.4,1.1-1.2,1.1c-0.7,0-1.1-0.5-1.1-1.1c0-0.7,0.5-1.2,1.2-1.2C732.1,673.7,732.6,674.2,732.6,674.9z
			 M730.5,688v-10.3h1.9V688H730.5z"/>
		<path d="M737.7,674.8v2.9h2.7v1.4h-2.7v5.5c0,1.3,0.4,2,1.4,2c0.5,0,0.8-0.1,1.1-0.1l0.1,1.4c-0.4,0.1-0.9,0.3-1.7,0.3
			c-0.9,0-1.6-0.3-2-0.8c-0.5-0.6-0.7-1.5-0.7-2.7v-5.6h-1.6v-1.4h1.6v-2.5L737.7,674.8z"/>
		<path d="M743.4,677.8l2.2,6.1c0.2,0.7,0.5,1.5,0.7,2.1h0c0.2-0.6,0.4-1.4,0.7-2.1l2-6h2l-2.8,7.3c-1.3,3.5-2.2,5.3-3.5,6.4
			c-0.9,0.8-1.8,1.1-2.3,1.2l-0.5-1.6c0.5-0.1,1.1-0.4,1.6-0.9c0.5-0.4,1.1-1.1,1.6-2.1c0.1-0.2,0.1-0.3,0.1-0.4s0-0.3-0.1-0.5
			l-3.8-9.5H743.4z"/>
	</g>
</g>
</svg>
