<?xml version="1.0" encoding="utf-8"?>
<!-- Generator: Adobe Illustrator 28.4.1, SVG Export Plug-In . SVG Version: 6.00 Build 0)  -->
<svg version="1.1" id="Layer_1" xmlns="http://www.w3.org/2000/svg" xmlns:xlink="http://www.w3.org/1999/xlink" x="0px" y="0px"
	 viewBox="0 0 1280 720" style="enable-background:new 0 0 1280 720;" xml:space="preserve">
<style type="text/css">
	.st0{fill:#FDEBCE;enable-background:new    ;}
	.st1{fill:#D25904;enable-background:new    ;}
	.st2{fill:#726043;enable-background:new    ;}
	.st3{fill:#FEC26C;enable-background:new    ;}
	.st4{fill:#F0F0F0;enable-background:new    ;}
</style>
<g>
	<circle class="st0" cx="414.7" cy="227.1" r="31.5"/>
	<circle class="st1" cx="414.7" cy="507.7" r="31.5"/>
	<circle class="st2" cx="414.7" cy="638.8" r="31.5"/>
	<circle class="st3" cx="414.7" cy="373" r="31.5"/>
	<circle class="st4" cx="414.7" cy="81.2" r="31.5"/>
	<g>
		<path d="M459.8,70.6h11.7v2.3h-8.9v7.2h8.2v2.3h-8.2v9.8h-2.8V70.6z"/>
		<path d="M488.3,81.6c0,7.1-2.6,11-7.3,11c-4.1,0-6.8-3.8-6.9-10.7c0-7,3-10.9,7.3-10.9C485.8,71,488.3,74.9,488.3,81.6z M477,81.9
			c0,5.4,1.7,8.5,4.2,8.5c2.9,0,4.3-3.4,4.3-8.7c0-5.1-1.3-8.5-4.2-8.5C478.8,73.2,477,76.2,477,81.9z"/>
		<path d="M491.9,70.6h11.7v2.3h-8.9v7.2h8.2v2.3h-8.2v9.8h-2.8V70.6z"/>
		<path d="M520.5,81.6c0,7.1-2.6,11-7.3,11c-4.1,0-6.8-3.8-6.9-10.7c0-7,3-10.9,7.3-10.9C517.9,71,520.5,74.9,520.5,81.6z
			 M509.1,81.9c0,5.4,1.7,8.5,4.2,8.5c2.9,0,4.3-3.4,4.3-8.7c0-5.1-1.3-8.5-4.2-8.5C510.9,73.2,509.1,76.2,509.1,81.9z"/>
		<path d="M524,70.6h11.7v2.3h-8.9v7.2h8.2v2.3h-8.2v9.8H524V70.6z"/>
		<path d="M552.6,81.6c0,7.1-2.6,11-7.3,11c-4.1,0-6.8-3.8-6.9-10.7c0-7,3-10.9,7.3-10.9C550.1,71,552.6,74.9,552.6,81.6z
			 M541.2,81.9c0,5.4,1.7,8.5,4.2,8.5c2.9,0,4.3-3.4,4.3-8.7c0-5.1-1.3-8.5-4.2-8.5C543,73.2,541.2,76.2,541.2,81.9z"/>
		<path d="M569.4,82.5v2.1h-7.9v-2.1H569.4z"/>
		<path d="M583.2,92.2l-7.1-21.7h3l3.4,10.7c0.9,2.9,1.7,5.6,2.3,8.1h0.1c0.6-2.5,1.5-5.2,2.5-8.1l3.7-10.7h3l-7.7,21.7H583.2z"/>
		<path d="M596.8,85c0.1,3.8,2.5,5.4,5.3,5.4c2,0,3.2-0.4,4.3-0.8l0.5,2c-1,0.4-2.7,1-5.2,1c-4.8,0-7.6-3.1-7.6-7.8
			c0-4.7,2.8-8.4,7.3-8.4c5.1,0,6.4,4.5,6.4,7.3c0,0.6-0.1,1-0.1,1.3H596.8z M605.1,83c0-1.8-0.7-4.6-3.9-4.6
			c-2.9,0-4.1,2.6-4.3,4.6H605.1z"/>
		<path d="M611.3,81.5c0-1.8,0-3.4-0.1-4.9h2.5l0.1,3.1h0.1c0.7-2.1,2.4-3.4,4.3-3.4c0.3,0,0.5,0,0.8,0.1v2.7
			c-0.3-0.1-0.6-0.1-1-0.1c-2,0-3.4,1.5-3.8,3.6c-0.1,0.4-0.1,0.8-0.1,1.3v8.3h-2.8V81.5z"/>
		<path d="M623.7,76.7l3.4,9.2c0.4,1,0.7,2.2,1,3.2h0.1c0.3-0.9,0.6-2.1,1-3.2l3.1-9.1h3L631,87.8c-2,5.3-3.4,8.1-5.3,9.7
			c-1.4,1.2-2.8,1.7-3.5,1.8l-0.7-2.4c0.7-0.2,1.6-0.7,2.5-1.4c0.8-0.6,1.7-1.7,2.4-3.1c0.1-0.3,0.2-0.5,0.2-0.7
			c0-0.2-0.1-0.4-0.2-0.7l-5.8-14.3H623.7z"/>
		<path d="M662.9,82.7c-0.2-3-0.4-6.6-0.3-9.3h-0.1c-0.7,2.5-1.6,5.2-2.7,8.2L656,92.1h-2.1l-3.5-10.3c-1-3.1-1.9-5.8-2.5-8.4h-0.1
			c-0.1,2.7-0.2,6.3-0.4,9.6l-0.6,9.3h-2.7l1.5-21.7h3.6l3.7,10.5c0.9,2.7,1.6,5,2.2,7.3h0.1c0.5-2.2,1.3-4.6,2.3-7.3l3.9-10.5h3.6
			l1.3,21.7h-2.7L662.9,82.7z"/>
		<path d="M673.9,72.3c0,1-0.7,1.7-1.8,1.7c-1,0-1.7-0.8-1.7-1.7c0-1,0.7-1.8,1.8-1.8C673.3,70.6,673.9,71.3,673.9,72.3z
			 M670.8,92.2V76.7h2.8v15.5H670.8z"/>
		<path d="M678.3,69.4h2.8v22.8h-2.8V69.4z"/>
		<path d="M699.3,69.4v18.8c0,1.4,0,3,0.1,4h-2.5l-0.1-2.7h-0.1c-0.9,1.7-2.8,3.1-5.3,3.1c-3.8,0-6.7-3.2-6.7-7.9
			c0-5.2,3.2-8.4,7-8.4c2.4,0,4,1.1,4.7,2.4h0.1v-9.3H699.3z M696.5,83c0-0.4,0-0.8-0.1-1.2c-0.4-1.8-2-3.3-4.1-3.3
			c-2.9,0-4.7,2.6-4.7,6c0,3.1,1.5,5.8,4.6,5.8c1.9,0,3.6-1.3,4.1-3.4c0.1-0.4,0.1-0.8,0.1-1.2V83z"/>
		<path d="M710.9,70.9c1.7-0.3,3.7-0.5,5.9-0.5c4,0,6.9,0.9,8.8,2.7c1.9,1.8,3.1,4.3,3.1,7.8c0,3.5-1.1,6.4-3.1,8.4
			c-2,2-5.4,3.1-9.6,3.1c-2,0-3.7-0.1-5.1-0.3V70.9z M713.7,90c0.7,0.1,1.7,0.2,2.8,0.2c6,0,9.2-3.3,9.2-9.2c0-5.1-2.9-8.4-8.8-8.4
			c-1.4,0-2.5,0.1-3.3,0.3V90z"/>
		<path d="M732.2,81.5c0-1.8,0-3.4-0.1-4.9h2.5l0.1,3.1h0.1c0.7-2.1,2.4-3.4,4.3-3.4c0.3,0,0.5,0,0.8,0.1v2.7
			c-0.3-0.1-0.6-0.1-1-0.1c-2,0-3.4,1.5-3.8,3.6c-0.1,0.4-0.1,0.8-0.1,1.3v8.3h-2.8V81.5z"/>
		<path d="M756.5,84.3c0,5.8-4,8.3-7.7,8.3c-4.2,0-7.5-3.1-7.5-8c0-5.2,3.4-8.3,7.7-8.3C753.4,76.3,756.5,79.6,756.5,84.3z
			 M744.1,84.5c0,3.4,2,6,4.7,6c2.7,0,4.7-2.5,4.7-6c0-2.6-1.3-6-4.7-6C745.6,78.5,744.1,81.5,744.1,84.5z"/>
		<path d="M773,88c0,1.6,0,3,0.1,4.2h-2.5l-0.2-2.5h-0.1c-0.7,1.3-2.4,2.9-5.1,2.9c-2.4,0-5.4-1.3-5.4-6.8v-9.1h2.8v8.6
			c0,3,0.9,4.9,3.5,4.9c1.9,0,3.2-1.3,3.7-2.6c0.2-0.4,0.3-0.9,0.3-1.4v-9.5h2.8V88z"/>
		<path d="M791.1,76.7c-0.1,1.1-0.1,2.4-0.1,4.3v9c0,3.6-0.7,5.8-2.2,7.1c-1.5,1.4-3.7,1.9-5.7,1.9c-1.9,0-3.9-0.4-5.2-1.3l0.7-2.2
			c1,0.6,2.6,1.2,4.6,1.2c2.9,0,5-1.5,5-5.4v-1.7h-0.1c-0.9,1.4-2.5,2.6-4.9,2.6c-3.9,0-6.6-3.3-6.6-7.6c0-5.3,3.4-8.3,7-8.3
			c2.7,0,4.2,1.4,4.9,2.7h0.1l0.1-2.3H791.1z M788.2,82.8c0-0.5,0-0.9-0.2-1.3c-0.5-1.6-1.9-3-4-3c-2.7,0-4.6,2.3-4.6,5.9
			c0,3.1,1.5,5.6,4.6,5.6c1.7,0,3.3-1.1,3.9-2.9c0.2-0.5,0.2-1,0.2-1.5V82.8z"/>
		<path d="M795.7,69.4h2.8v9.7h0.1c0.5-0.8,1.2-1.5,2-2c0.8-0.5,1.8-0.8,2.9-0.8c2.1,0,5.4,1.3,5.4,6.7v9.3h-2.8v-8.9
			c0-2.5-0.9-4.6-3.6-4.6c-1.8,0-3.3,1.3-3.8,2.8c-0.2,0.4-0.2,0.8-0.2,1.3v9.4h-2.8V69.4z"/>
		<path d="M816.8,72.2v4.5h4v2.2h-4v8.4c0,1.9,0.5,3,2.1,3c0.7,0,1.3-0.1,1.6-0.2l0.1,2.1c-0.5,0.2-1.4,0.4-2.5,0.4
			c-1.3,0-2.4-0.4-3.1-1.2c-0.8-0.8-1.1-2.2-1.1-4v-8.5h-2.4v-2.2h2.4V73L816.8,72.2z"/>
	</g>
	<g>
		<path d="M459.8,215.2h11.7v2.3h-8.9v7.2h8.2v2.3h-8.2v9.8h-2.8V215.2z"/>
		<path d="M475.5,215.5c1.7-0.3,3.7-0.5,5.9-0.5c4,0,6.9,0.9,8.8,2.7c1.9,1.8,3.1,4.3,3.1,7.8c0,3.5-1.1,6.4-3.1,8.4
			c-2,2-5.4,3.1-9.6,3.1c-2,0-3.7-0.1-5.1-0.3V215.5z M478.2,234.7c0.7,0.1,1.7,0.2,2.8,0.2c6,0,9.2-3.3,9.2-9.2
			c0-5.1-2.9-8.4-8.8-8.4c-1.4,0-2.5,0.1-3.3,0.3V234.7z"/>
		<path d="M508.1,226.7h-8.4v7.8h9.4v2.3h-12.2v-21.7h11.7v2.3h-8.9v6.8h8.4V226.7z"/>
		<path d="M512.6,215.5c1.2-0.3,3.1-0.5,5.1-0.5c2.8,0,4.6,0.5,5.9,1.6c1.1,0.8,1.8,2.1,1.8,3.8c0,2.1-1.4,3.9-3.7,4.8v0.1
			c2.1,0.5,4.5,2.2,4.5,5.4c0,1.9-0.7,3.3-1.8,4.3c-1.5,1.4-4,2-7.5,2c-1.9,0-3.4-0.1-4.3-0.3V215.5z M515.4,224.4h2.5
			c3,0,4.7-1.5,4.7-3.6c0-2.5-1.9-3.5-4.8-3.5c-1.3,0-2,0.1-2.5,0.2V224.4z M515.4,234.8c0.5,0.1,1.3,0.1,2.3,0.1
			c2.9,0,5.6-1.1,5.6-4.2c0-3-2.5-4.2-5.6-4.2h-2.3V234.8z"/>
		<path d="M545.2,236.2c-1,0.5-3.1,1-5.7,1c-6.1,0-10.7-3.9-10.7-11c0-6.8,4.6-11.4,11.3-11.4c2.7,0,4.4,0.6,5.1,1l-0.7,2.3
			c-1.1-0.5-2.6-0.9-4.4-0.9c-5.1,0-8.4,3.2-8.4,8.9c0,5.3,3.1,8.7,8.3,8.7c1.7,0,3.4-0.4,4.6-0.9L545.2,236.2z"/>
		<path d="M559.9,226.7h-8.4v7.8h9.4v2.3h-12.2v-21.7h11.7v2.3h-8.9v6.8h8.4V226.7z"/>
		<path d="M577.7,227.1v2.1h-7.9v-2.1H577.7z"/>
		<path d="M606.2,227.4c-0.2-3-0.4-6.6-0.3-9.3h-0.1c-0.7,2.5-1.6,5.2-2.7,8.2l-3.8,10.5h-2.1l-3.5-10.3c-1-3.1-1.9-5.8-2.5-8.4H591
			c-0.1,2.7-0.2,6.3-0.4,9.6l-0.6,9.3h-2.7l1.5-21.7h3.6l3.7,10.5c0.9,2.7,1.6,5,2.2,7.3h0.1c0.5-2.2,1.3-4.6,2.3-7.3l3.9-10.5h3.6
			l1.3,21.7h-2.7L606.2,227.4z"/>
		<path d="M617.2,217c0,1-0.7,1.7-1.8,1.7c-1,0-1.7-0.8-1.7-1.7c0-1,0.7-1.8,1.8-1.8C616.5,215.2,617.2,216,617.2,217z M614.1,236.9
			v-15.5h2.8v15.5H614.1z"/>
		<path d="M621.6,214.1h2.8v22.8h-2.8V214.1z"/>
		<path d="M642.6,214.1v18.8c0,1.4,0,3,0.1,4h-2.5l-0.1-2.7H640c-0.9,1.7-2.8,3.1-5.3,3.1c-3.8,0-6.7-3.2-6.7-7.9
			c0-5.2,3.2-8.4,7-8.4c2.4,0,4,1.1,4.7,2.4h0.1v-9.3H642.6z M639.8,227.7c0-0.4,0-0.8-0.1-1.2c-0.4-1.8-2-3.3-4.1-3.3
			c-2.9,0-4.7,2.6-4.7,6c0,3.1,1.5,5.8,4.6,5.8c1.9,0,3.6-1.3,4.1-3.4c0.1-0.4,0.1-0.8,0.1-1.2V227.7z"/>
		<path d="M654.2,215.5c1.7-0.3,3.7-0.5,5.9-0.5c4,0,6.9,0.9,8.8,2.7c1.9,1.8,3.1,4.3,3.1,7.8c0,3.5-1.1,6.4-3.1,8.4
			c-2,2-5.4,3.1-9.6,3.1c-2,0-3.7-0.1-5.1-0.3V215.5z M657,234.7c0.7,0.1,1.7,0.2,2.8,0.2c6,0,9.2-3.3,9.2-9.2
			c0-5.1-2.9-8.4-8.8-8.4c-1.4,0-2.5,0.1-3.3,0.3V234.7z"/>
		<path d="M675.5,226.2c0-1.8,0-3.4-0.1-4.9h2.5l0.1,3.1h0.1c0.7-2.1,2.4-3.4,4.3-3.4c0.3,0,0.5,0,0.8,0.1v2.7
			c-0.3-0.1-0.6-0.1-1-0.1c-2,0-3.4,1.5-3.8,3.6c-0.1,0.4-0.1,0.8-0.1,1.3v8.3h-2.8V226.2z"/>
		<path d="M699.7,229c0,5.8-4,8.3-7.7,8.3c-4.2,0-7.5-3.1-7.5-8c0-5.2,3.4-8.3,7.7-8.3C696.7,221,699.7,224.2,699.7,229z
			 M687.4,229.1c0,3.4,2,6,4.7,6c2.7,0,4.7-2.5,4.7-6c0-2.6-1.3-6-4.7-6C688.8,223.1,687.4,226.2,687.4,229.1z"/>
		<path d="M716.3,232.6c0,1.6,0,3,0.1,4.2h-2.5l-0.2-2.5h-0.1c-0.7,1.3-2.4,2.9-5.1,2.9c-2.4,0-5.4-1.3-5.4-6.8v-9.1h2.8v8.6
			c0,3,0.9,4.9,3.5,4.9c1.9,0,3.2-1.3,3.7-2.6c0.2-0.4,0.3-0.9,0.3-1.4v-9.5h2.8V232.6z"/>
		<path d="M734.4,221.3c-0.1,1.1-0.1,2.4-0.1,4.3v9c0,3.6-0.7,5.8-2.2,7.1c-1.5,1.4-3.7,1.9-5.7,1.9c-1.9,0-3.9-0.4-5.2-1.3l0.7-2.2
			c1,0.6,2.6,1.2,4.6,1.2c2.9,0,5-1.5,5-5.4v-1.7h-0.1c-0.9,1.4-2.5,2.6-4.9,2.6c-3.9,0-6.6-3.3-6.6-7.6c0-5.3,3.4-8.3,7-8.3
			c2.7,0,4.2,1.4,4.9,2.7h0.1l0.1-2.3H734.4z M731.5,227.5c0-0.5,0-0.9-0.2-1.3c-0.5-1.6-1.9-3-4-3c-2.7,0-4.6,2.3-4.6,5.9
			c0,3.1,1.5,5.6,4.6,5.6c1.7,0,3.3-1.1,3.9-2.9c0.2-0.5,0.2-1,0.2-1.5V227.5z"/>
		<path d="M738.9,214.1h2.8v9.7h0.1c0.5-0.8,1.2-1.5,2-2c0.8-0.5,1.8-0.8,2.9-0.8c2.1,0,5.4,1.3,5.4,6.7v9.3h-2.8v-8.9
			c0-2.5-0.9-4.6-3.6-4.6c-1.8,0-3.3,1.3-3.8,2.8c-0.2,0.4-0.2,0.8-0.2,1.3v9.4h-2.8V214.1z"/>
		<path d="M760,216.9v4.5h4v2.2h-4v8.4c0,1.9,0.5,3,2.1,3c0.7,0,1.3-0.1,1.6-0.2l0.1,2.1c-0.5,0.2-1.4,0.4-2.5,0.4
			c-1.3,0-2.4-0.4-3.1-1.2c-0.8-0.8-1.1-2.2-1.1-4v-8.5h-2.4v-2.2h2.4v-3.7L760,216.9z"/>
	</g>
	<g>
		<path d="M459.8,363.1h11.7v2.3h-8.9v7.2h8.2v2.3h-8.2v9.8h-2.8V363.1z"/>
		<path d="M486.7,374.6h-8.4v7.8h9.4v2.3h-12.2v-21.7h11.7v2.3h-8.9v6.8h8.4V374.6z"/>
		<path d="M506.4,384c-1,0.5-3.1,1-5.7,1c-6.1,0-10.7-3.9-10.7-11c0-6.8,4.6-11.4,11.3-11.4c2.7,0,4.4,0.6,5.1,1l-0.7,2.3
			c-1.1-0.5-2.6-0.9-4.4-0.9c-5.1,0-8.4,3.2-8.4,8.9c0,5.3,3.1,8.7,8.3,8.7c1.7,0,3.4-0.4,4.6-0.9L506.4,384z"/>
		<path d="M508.9,384.7V383l2.2-2.2c5.3-5.1,7.7-7.8,7.8-10.9c0-2.1-1-4.1-4.1-4.1c-1.9,0-3.5,1-4.4,1.8l-0.9-2
			c1.4-1.2,3.5-2.1,5.9-2.1c4.5,0,6.4,3.1,6.4,6.1c0,3.9-2.8,7-7.2,11.2l-1.7,1.5v0.1h9.4v2.3H508.9z"/>
		<path d="M537.3,365.8c-0.6,0-1.3,0-2.1,0.1c-4.4,0.7-6.8,4-7.3,7.4h0.1c1-1.3,2.7-2.4,5-2.4c3.7,0,6.3,2.7,6.3,6.7
			c0,3.8-2.6,7.4-6.9,7.4c-4.5,0-7.4-3.5-7.4-8.9c0-4.1,1.5-7.4,3.5-9.4c1.7-1.7,4-2.8,6.7-3.1c0.8-0.1,1.5-0.2,2.1-0.2V365.8z
			 M536.5,377.9c0-3-1.7-4.8-4.3-4.8c-1.7,0-3.3,1.1-4,2.6c-0.2,0.3-0.3,0.7-0.3,1.3c0.1,3.4,1.6,6,4.6,6
			C534.8,382.9,536.5,380.9,536.5,377.9z"/>
		<path d="M558,384c-1,0.5-3.1,1-5.7,1c-6.1,0-10.7-3.9-10.7-11c0-6.8,4.6-11.4,11.3-11.4c2.7,0,4.4,0.6,5.1,1l-0.7,2.3
			c-1.1-0.5-2.6-0.9-4.4-0.9c-5.1,0-8.4,3.2-8.4,8.9c0,5.3,3.1,8.7,8.3,8.7c1.7,0,3.4-0.4,4.6-0.9L558,384z"/>
		<path d="M574.7,375v2.1h-7.9V375H574.7z"/>
		<path d="M588.5,384.7l-7.1-21.7h3l3.4,10.7c0.9,2.9,1.7,5.6,2.3,8.1h0.1c0.6-2.5,1.5-5.2,2.5-8.1l3.7-10.7h3l-7.7,21.7H588.5z"/>
		<path d="M602.1,377.5c0.1,3.8,2.5,5.4,5.3,5.4c2,0,3.2-0.4,4.3-0.8l0.5,2c-1,0.5-2.7,1-5.2,1c-4.8,0-7.6-3.1-7.6-7.8
			c0-4.7,2.8-8.4,7.3-8.4c5.1,0,6.4,4.5,6.4,7.3c0,0.6-0.1,1-0.1,1.3H602.1z M610.4,375.4c0-1.8-0.7-4.6-3.9-4.6
			c-2.9,0-4.1,2.6-4.3,4.6H610.4z"/>
		<path d="M616.6,374c0-1.8,0-3.4-0.1-4.9h2.5l0.1,3.1h0.1c0.7-2.1,2.4-3.4,4.3-3.4c0.3,0,0.5,0,0.8,0.1v2.7c-0.3-0.1-0.6-0.1-1-0.1
			c-2,0-3.4,1.5-3.8,3.6c-0.1,0.4-0.1,0.8-0.1,1.3v8.3h-2.8V374z"/>
		<path d="M629,369.2l3.4,9.2c0.4,1,0.7,2.2,1,3.2h0.1c0.3-0.9,0.6-2.1,1-3.2l3.1-9.1h3l-4.2,11.1c-2,5.3-3.4,8.1-5.3,9.7
			c-1.4,1.2-2.8,1.7-3.5,1.8l-0.7-2.4c0.7-0.2,1.6-0.7,2.5-1.4c0.8-0.6,1.7-1.7,2.4-3.1c0.1-0.3,0.2-0.5,0.2-0.7
			c0-0.2-0.1-0.4-0.2-0.7l-5.8-14.3H629z"/>
		<path d="M668.2,375.2c-0.2-3-0.4-6.6-0.3-9.3h-0.1c-0.7,2.5-1.6,5.2-2.7,8.2l-3.8,10.5h-2.1l-3.5-10.3c-1-3.1-1.9-5.8-2.5-8.4
			h-0.1c-0.1,2.7-0.2,6.3-0.4,9.6l-0.6,9.3h-2.7l1.5-21.7h3.6l3.7,10.5c0.9,2.7,1.6,5,2.2,7.3h0.1c0.5-2.2,1.3-4.6,2.3-7.3l3.9-10.5
			h3.6l1.3,21.7h-2.7L668.2,375.2z"/>
		<path d="M690,376.8c0,5.7-4,8.3-7.7,8.3c-4.2,0-7.5-3.1-7.5-8c0-5.2,3.4-8.3,7.7-8.3C686.9,368.8,690,372.1,690,376.8z M677.6,377
			c0,3.4,2,6,4.7,6c2.7,0,4.7-2.5,4.7-6c0-2.6-1.3-6-4.7-6C679.1,370.9,677.6,374,677.6,377z"/>
		<path d="M707,361.9v18.8c0,1.4,0,3,0.1,4h-2.5l-0.1-2.7h-0.1c-0.9,1.7-2.8,3.1-5.3,3.1c-3.8,0-6.7-3.2-6.7-7.9
			c0-5.2,3.2-8.4,7-8.4c2.4,0,4,1.1,4.7,2.4h0.1v-9.3H707z M704.1,375.5c0-0.4,0-0.8-0.1-1.2c-0.4-1.8-2-3.3-4.1-3.3
			c-2.9,0-4.7,2.6-4.7,6c0,3.1,1.5,5.8,4.6,5.8c1.9,0,3.6-1.3,4.1-3.4c0.1-0.4,0.1-0.8,0.1-1.2V375.5z"/>
		<path d="M713.2,377.5c0.1,3.8,2.5,5.4,5.3,5.4c2,0,3.2-0.4,4.3-0.8l0.5,2c-1,0.5-2.7,1-5.2,1c-4.8,0-7.6-3.1-7.6-7.8
			c0-4.7,2.8-8.4,7.3-8.4c5.1,0,6.4,4.5,6.4,7.3c0,0.6-0.1,1-0.1,1.3H713.2z M721.5,375.4c0-1.8-0.7-4.6-3.9-4.6
			c-2.9,0-4.1,2.6-4.3,4.6H721.5z"/>
		<path d="M727.7,374c0-1.8,0-3.4-0.1-4.9h2.5l0.1,3.1h0.1c0.7-2.1,2.4-3.4,4.3-3.4c0.3,0,0.5,0,0.8,0.1v2.7c-0.3-0.1-0.6-0.1-1-0.1
			c-2,0-3.4,1.5-3.8,3.6c-0.1,0.4-0.1,0.8-0.1,1.3v8.3h-2.8V374z"/>
		<path d="M746.7,384.7l-0.2-2h-0.1c-0.9,1.2-2.5,2.3-4.8,2.3c-3.1,0-4.8-2.2-4.8-4.5c0-3.8,3.3-5.8,9.3-5.8v-0.3
			c0-1.3-0.4-3.6-3.5-3.6c-1.4,0-3,0.5-4,1.2l-0.6-1.9c1.3-0.8,3.1-1.4,5.1-1.4c4.8,0,5.9,3.2,5.9,6.4v5.8c0,1.3,0.1,2.7,0.3,3.7
			H746.7z M746.3,376.8c-3.1-0.1-6.6,0.5-6.6,3.5c0,1.8,1.2,2.7,2.7,2.7c2,0,3.3-1.3,3.8-2.6c0.1-0.3,0.2-0.6,0.2-0.9V376.8z"/>
		<path d="M756.8,364.7v4.5h4v2.2h-4v8.4c0,1.9,0.5,3,2.1,3c0.7,0,1.3-0.1,1.6-0.2l0.1,2.1c-0.5,0.2-1.4,0.4-2.5,0.4
			c-1.3,0-2.4-0.4-3.1-1.2c-0.8-0.8-1.1-2.2-1.1-4v-8.5h-2.4v-2.2h2.4v-3.7L756.8,364.7z"/>
		<path d="M765.4,377.5c0.1,3.8,2.5,5.4,5.3,5.4c2,0,3.2-0.4,4.3-0.8l0.5,2c-1,0.5-2.7,1-5.2,1c-4.8,0-7.6-3.1-7.6-7.8
			c0-4.7,2.8-8.4,7.3-8.4c5.1,0,6.4,4.5,6.4,7.3c0,0.6-0.1,1-0.1,1.3H765.4z M773.7,375.4c0-1.8-0.7-4.6-3.9-4.6
			c-2.9,0-4.1,2.6-4.3,4.6H773.7z"/>
		<path d="M786.9,363.4c1.7-0.3,3.7-0.5,5.9-0.5c4,0,6.9,0.9,8.8,2.7c1.9,1.8,3.1,4.3,3.1,7.8c0,3.5-1.1,6.4-3.1,8.4
			c-2,2-5.4,3.1-9.6,3.1c-2,0-3.7-0.1-5.1-0.3V363.4z M789.7,382.5c0.7,0.1,1.7,0.2,2.8,0.2c6,0,9.2-3.3,9.2-9.2
			c0-5.1-2.9-8.4-8.8-8.4c-1.4,0-2.5,0.1-3.3,0.3V382.5z"/>
		<path d="M808.2,374c0-1.8,0-3.4-0.1-4.9h2.5l0.1,3.1h0.1c0.7-2.1,2.4-3.4,4.3-3.4c0.3,0,0.5,0,0.8,0.1v2.7c-0.3-0.1-0.6-0.1-1-0.1
			c-2,0-3.4,1.5-3.8,3.6c-0.1,0.4-0.1,0.8-0.1,1.3v8.3h-2.8V374z"/>
		<path d="M832.4,376.8c0,5.7-4,8.3-7.7,8.3c-4.2,0-7.5-3.1-7.5-8c0-5.2,3.4-8.3,7.7-8.3C829.4,368.8,832.4,372.1,832.4,376.8z
			 M820.1,377c0,3.4,2,6,4.7,6c2.7,0,4.7-2.5,4.7-6c0-2.6-1.3-6-4.7-6C821.5,370.9,820.1,374,820.1,377z"/>
		<path d="M849,380.5c0,1.6,0,3,0.1,4.2h-2.5l-0.2-2.5h-0.1c-0.7,1.3-2.4,2.9-5.1,2.9c-2.4,0-5.4-1.3-5.4-6.8v-9.1h2.8v8.6
			c0,3,0.9,4.9,3.5,4.9c1.9,0,3.2-1.3,3.7-2.6c0.2-0.4,0.3-0.9,0.3-1.4v-9.5h2.8V380.5z"/>
		<path d="M867.1,369.2c-0.1,1.1-0.1,2.4-0.1,4.3v9c0,3.6-0.7,5.8-2.2,7.1c-1.5,1.4-3.7,1.9-5.7,1.9c-1.9,0-3.9-0.5-5.2-1.3l0.7-2.2
			c1,0.6,2.6,1.2,4.6,1.2c2.9,0,5-1.5,5-5.4V382h-0.1c-0.9,1.4-2.5,2.6-4.9,2.6c-3.9,0-6.6-3.3-6.6-7.6c0-5.3,3.4-8.3,7-8.3
			c2.7,0,4.2,1.4,4.9,2.7h0.1l0.1-2.3H867.1z M864.1,375.3c0-0.5,0-0.9-0.2-1.3c-0.5-1.6-1.9-3-4-3c-2.7,0-4.6,2.3-4.6,5.9
			c0,3.1,1.5,5.6,4.6,5.6c1.7,0,3.3-1.1,3.9-2.9c0.2-0.5,0.2-1,0.2-1.5V375.3z"/>
		<path d="M871.6,361.9h2.8v9.7h0.1c0.5-0.8,1.2-1.5,2-2c0.8-0.5,1.8-0.8,2.9-0.8c2.1,0,5.4,1.3,5.4,6.6v9.3H882v-8.9
			c0-2.5-0.9-4.6-3.6-4.6c-1.8,0-3.3,1.3-3.8,2.8c-0.2,0.4-0.2,0.8-0.2,1.3v9.4h-2.8V361.9z"/>
		<path d="M892.7,364.7v4.5h4v2.2h-4v8.4c0,1.9,0.5,3,2.1,3c0.7,0,1.3-0.1,1.6-0.2l0.1,2.1c-0.5,0.2-1.4,0.4-2.5,0.4
			c-1.3,0-2.4-0.4-3.1-1.2c-0.8-0.8-1.1-2.2-1.1-4v-8.5h-2.4v-2.2h2.4v-3.7L892.7,364.7z"/>
	</g>
	<g>
		<path d="M459.8,498.3c1.7-0.3,3.7-0.5,5.9-0.5c4,0,6.9,0.9,8.8,2.7c1.9,1.8,3.1,4.3,3.1,7.8c0,3.5-1.1,6.4-3.1,8.4
			c-2,2-5.4,3.1-9.6,3.1c-2,0-3.7-0.1-5.1-0.3V498.3z M462.6,517.5c0.7,0.1,1.7,0.2,2.8,0.2c6,0,9.2-3.3,9.2-9.2
			c0-5.1-2.9-8.4-8.8-8.4c-1.4,0-2.5,0.1-3.3,0.3V517.5z"/>
		<path d="M480.2,519.7V518l2.2-2.2c5.3-5.1,7.7-7.8,7.8-10.9c0-2.1-1-4.1-4.1-4.1c-1.9,0-3.5,1-4.4,1.8l-0.9-2
			c1.4-1.2,3.5-2.1,5.9-2.1c4.5,0,6.4,3.1,6.4,6.1c0,3.9-2.8,7-7.2,11.2l-1.7,1.5v0.1h9.4v2.3H480.2z"/>
		<path d="M509.1,501.2h-8l-0.8,5.4c0.5-0.1,0.9-0.1,1.7-0.1c1.6,0,3.2,0.4,4.5,1.1c1.6,0.9,3,2.7,3,5.4c0,4.1-3.2,7.1-7.8,7.1
			c-2.3,0-4.2-0.6-5.2-1.3l0.7-2.2c0.9,0.5,2.6,1.2,4.5,1.2c2.7,0,4.9-1.7,4.9-4.5c0-2.7-1.8-4.6-6-4.6c-1.2,0-2.1,0.1-2.9,0.2
			l1.3-10h10V501.2z"/>
		<path d="M514.8,517.7c0.6,0.1,1.3,0,2.3-0.1c1.6-0.2,3.2-0.9,4.4-2c1.4-1.3,2.4-3.1,2.8-5.6h-0.1c-1.2,1.4-2.8,2.2-4.9,2.2
			c-3.8,0-6.2-2.8-6.2-6.4c0-4,2.9-7.4,7.1-7.4c4.3,0,6.9,3.5,6.9,8.8c0,4.6-1.5,7.8-3.6,9.8c-1.6,1.6-3.8,2.5-6.1,2.8
			c-1,0.2-1.9,0.2-2.6,0.2V517.7z M515.8,505.7c0,2.6,1.6,4.4,4,4.4c1.9,0,3.4-0.9,4.1-2.2c0.2-0.3,0.3-0.6,0.3-1
			c0-3.6-1.3-6.3-4.3-6.3C517.5,500.6,515.8,502.7,515.8,505.7z"/>
		<path d="M543.5,509c0,7.1-2.6,11-7.3,11c-4.1,0-6.8-3.8-6.9-10.7c0-7,3-10.9,7.3-10.9C541,498.5,543.5,502.4,543.5,509z
			 M532.2,509.4c0,5.4,1.7,8.5,4.2,8.5c2.9,0,4.3-3.4,4.3-8.7c0-5.1-1.3-8.5-4.2-8.5C534,500.7,532.2,503.7,532.2,509.4z"/>
		<path d="M554.8,519.7V514h-9.7v-1.9l9.3-13.3h3.1v13h2.9v2.2h-2.9v5.7H554.8z M554.8,511.8v-7c0-1.1,0-2.2,0.1-3.3h-0.1
			c-0.6,1.2-1.2,2.1-1.7,3.1l-5.1,7.1v0.1H554.8z"/>
		<path d="M576.8,510v2.1h-7.9V510H576.8z"/>
		<path d="M605.3,510.2c-0.2-3-0.4-6.6-0.3-9.3h-0.1c-0.7,2.5-1.6,5.2-2.7,8.2l-3.8,10.5h-2.1l-3.5-10.3c-1-3.1-1.9-5.8-2.5-8.4
			h-0.1c-0.1,2.7-0.2,6.3-0.4,9.6l-0.6,9.3h-2.7l1.5-21.7h3.6l3.7,10.5c0.9,2.7,1.6,5,2.2,7.3h0.1c0.5-2.2,1.3-4.6,2.3-7.3l3.9-10.5
			h3.6l1.3,21.7h-2.7L605.3,510.2z"/>
		<path d="M627,511.8c0,5.8-4,8.3-7.7,8.3c-4.2,0-7.5-3.1-7.5-8c0-5.2,3.4-8.3,7.7-8.3C624,503.8,627,507.1,627,511.8z M614.7,512
			c0,3.4,2,6,4.7,6c2.7,0,4.7-2.5,4.7-6c0-2.6-1.3-6-4.7-6C616.2,505.9,614.7,509,614.7,512z"/>
		<path d="M644,496.9v18.8c0,1.4,0,3,0.1,4h-2.5l-0.1-2.7h-0.1c-0.9,1.7-2.8,3.1-5.3,3.1c-3.8,0-6.7-3.2-6.7-7.9
			c0-5.2,3.2-8.4,7-8.4c2.4,0,4,1.1,4.7,2.4h0.1v-9.3H644z M641.2,510.5c0-0.4,0-0.8-0.1-1.2c-0.4-1.8-2-3.3-4.1-3.3
			c-2.9,0-4.7,2.6-4.7,6c0,3.1,1.5,5.8,4.6,5.8c1.9,0,3.6-1.3,4.1-3.4c0.1-0.4,0.1-0.8,0.1-1.2V510.5z"/>
		<path d="M650.3,512.4c0.1,3.8,2.5,5.4,5.3,5.4c2,0,3.2-0.4,4.3-0.8l0.5,2c-1,0.4-2.7,1-5.2,1c-4.8,0-7.6-3.1-7.6-7.8
			c0-4.7,2.8-8.4,7.3-8.4c5.1,0,6.4,4.5,6.4,7.3c0,0.6-0.1,1-0.1,1.3H650.3z M658.6,510.4c0-1.8-0.7-4.6-3.9-4.6
			c-2.9,0-4.1,2.6-4.3,4.6H658.6z"/>
		<path d="M664.8,509c0-1.8,0-3.4-0.1-4.9h2.5l0.1,3.1h0.1c0.7-2.1,2.4-3.4,4.3-3.4c0.3,0,0.5,0,0.8,0.1v2.7c-0.3-0.1-0.6-0.1-1-0.1
			c-2,0-3.4,1.5-3.8,3.6c-0.1,0.4-0.1,0.8-0.1,1.3v8.3h-2.8V509z"/>
		<path d="M683.8,519.7l-0.2-2h-0.1c-0.9,1.2-2.5,2.3-4.8,2.3c-3.1,0-4.8-2.2-4.8-4.5c0-3.8,3.3-5.8,9.3-5.8v-0.3
			c0-1.3-0.4-3.6-3.5-3.6c-1.4,0-3,0.5-4,1.2l-0.6-1.9c1.3-0.8,3.1-1.4,5.1-1.4c4.8,0,5.9,3.2,5.9,6.4v5.8c0,1.3,0.1,2.7,0.3,3.7
			H683.8z M683.3,511.8c-3.1-0.1-6.6,0.5-6.6,3.5c0,1.8,1.2,2.7,2.7,2.7c2,0,3.3-1.3,3.8-2.6c0.1-0.3,0.2-0.6,0.2-0.9V511.8z"/>
		<path d="M693.9,499.7v4.5h4v2.2h-4v8.4c0,1.9,0.5,3,2.1,3c0.7,0,1.3-0.1,1.6-0.2l0.1,2.1c-0.5,0.2-1.4,0.4-2.5,0.4
			c-1.3,0-2.4-0.4-3.1-1.2c-0.8-0.8-1.1-2.2-1.1-4v-8.5h-2.4v-2.2h2.4v-3.7L693.9,499.7z"/>
		<path d="M702.5,512.4c0.1,3.8,2.5,5.4,5.3,5.4c2,0,3.2-0.4,4.3-0.8l0.5,2c-1,0.4-2.7,1-5.2,1c-4.8,0-7.6-3.1-7.6-7.8
			c0-4.7,2.8-8.4,7.3-8.4c5.1,0,6.4,4.5,6.4,7.3c0,0.6-0.1,1-0.1,1.3H702.5z M710.8,510.4c0-1.8-0.7-4.6-3.9-4.6
			c-2.9,0-4.1,2.6-4.3,4.6H710.8z"/>
		<path d="M723.9,498.3c1.7-0.3,3.7-0.5,5.9-0.5c4,0,6.9,0.9,8.8,2.7c1.9,1.8,3.1,4.3,3.1,7.8c0,3.5-1.1,6.4-3.1,8.4
			c-2,2-5.4,3.1-9.6,3.1c-2,0-3.7-0.1-5.1-0.3V498.3z M726.7,517.5c0.7,0.1,1.7,0.2,2.8,0.2c6,0,9.2-3.3,9.2-9.2
			c0-5.1-2.9-8.4-8.8-8.4c-1.4,0-2.5,0.1-3.3,0.3V517.5z"/>
		<path d="M745.2,509c0-1.8,0-3.4-0.1-4.9h2.5l0.1,3.1h0.1c0.7-2.1,2.4-3.4,4.3-3.4c0.3,0,0.5,0,0.8,0.1v2.7c-0.3-0.1-0.6-0.1-1-0.1
			c-2,0-3.4,1.5-3.8,3.6c-0.1,0.4-0.1,0.8-0.1,1.3v8.3h-2.8V509z"/>
		<path d="M769.5,511.8c0,5.8-4,8.3-7.7,8.3c-4.2,0-7.5-3.1-7.5-8c0-5.2,3.4-8.3,7.7-8.3C766.5,503.8,769.5,507.1,769.5,511.8z
			 M757.2,512c0,3.4,2,6,4.7,6c2.7,0,4.7-2.5,4.7-6c0-2.6-1.3-6-4.7-6C758.6,505.9,757.2,509,757.2,512z"/>
		<path d="M786.1,515.5c0,1.6,0,3,0.1,4.2h-2.5l-0.2-2.5h-0.1c-0.7,1.3-2.4,2.9-5.1,2.9c-2.4,0-5.4-1.4-5.4-6.8v-9.1h2.8v8.6
			c0,3,0.9,4.9,3.5,4.9c1.9,0,3.2-1.3,3.7-2.6c0.2-0.4,0.3-0.9,0.3-1.4v-9.5h2.8V515.5z"/>
		<path d="M804.1,504.2c-0.1,1.1-0.1,2.4-0.1,4.3v9c0,3.6-0.7,5.8-2.2,7.1c-1.5,1.4-3.7,1.9-5.7,1.9c-1.9,0-3.9-0.4-5.2-1.3l0.7-2.2
			c1,0.6,2.6,1.2,4.6,1.2c2.9,0,5-1.5,5-5.4V517h-0.1c-0.9,1.4-2.5,2.6-4.9,2.6c-3.9,0-6.6-3.3-6.6-7.6c0-5.3,3.4-8.3,7-8.3
			c2.7,0,4.2,1.4,4.9,2.7h0.1l0.1-2.3H804.1z M801.2,510.3c0-0.5,0-0.9-0.2-1.3c-0.5-1.6-1.9-3-4-3c-2.7,0-4.6,2.3-4.6,5.9
			c0,3.1,1.5,5.6,4.6,5.6c1.7,0,3.3-1.1,3.9-2.9c0.2-0.5,0.2-1,0.2-1.5V510.3z"/>
		<path d="M808.7,496.9h2.8v9.7h0.1c0.5-0.8,1.2-1.5,2-2c0.8-0.5,1.8-0.8,2.9-0.8c2.1,0,5.4,1.3,5.4,6.7v9.3h-2.8v-8.9
			c0-2.5-0.9-4.6-3.6-4.6c-1.8,0-3.3,1.3-3.8,2.8c-0.2,0.4-0.2,0.8-0.2,1.4v9.4h-2.8V496.9z"/>
		<path d="M829.8,499.7v4.5h4v2.2h-4v8.4c0,1.9,0.5,3,2.1,3c0.7,0,1.3-0.1,1.6-0.2l0.1,2.1c-0.5,0.2-1.4,0.4-2.5,0.4
			c-1.3,0-2.4-0.4-3.1-1.2c-0.8-0.8-1.1-2.2-1.1-4v-8.5h-2.4v-2.2h2.4v-3.7L829.8,499.7z"/>
	</g>
	<g>
		<path d="M472.4,630.6v1.9l-9.1,19h-2.9l9.1-18.5V633h-10.2v-2.3H472.4z"/>
		<path d="M475.3,651.5v-1.7l2.2-2.2c5.3-5.1,7.7-7.8,7.8-10.9c0-2.1-1-4.1-4.1-4.1c-1.9,0-3.5,1-4.4,1.8l-0.9-2
			c1.4-1.2,3.5-2.1,5.9-2.1c4.5,0,6.4,3.1,6.4,6.1c0,3.9-2.8,7-7.2,11.2l-1.7,1.5v0.1h9.4v2.3H475.3z"/>
		<path d="M503.7,632.6c-0.6,0-1.3,0-2.1,0.1c-4.4,0.7-6.8,4-7.3,7.4h0.1c1-1.3,2.7-2.4,5-2.4c3.7,0,6.3,2.7,6.3,6.7
			c0,3.8-2.6,7.4-6.9,7.4c-4.5,0-7.4-3.5-7.4-8.9c0-4.1,1.5-7.4,3.5-9.4c1.7-1.7,4-2.8,6.7-3.1c0.8-0.1,1.5-0.2,2.1-0.2V632.6z
			 M502.9,644.7c0-3-1.7-4.8-4.3-4.8c-1.7,0-3.3,1.1-4,2.6c-0.2,0.3-0.3,0.7-0.3,1.3c0.1,3.4,1.6,6,4.6,6
			C501.2,649.7,502.9,647.6,502.9,644.7z"/>
		<path d="M522.1,640.8c0,7.1-2.6,11-7.3,11c-4.1,0-6.8-3.8-6.9-10.7c0-7,3-10.9,7.3-10.9C519.6,630.3,522.1,634.2,522.1,640.8z
			 M510.8,641.1c0,5.4,1.7,8.5,4.2,8.5c2.9,0,4.3-3.4,4.3-8.7c0-5.1-1.3-8.5-4.2-8.5C512.6,632.4,510.8,635.5,510.8,641.1z"/>
		<path d="M533.5,651.5v-5.7h-9.7v-1.9l9.3-13.3h3.1v13h2.9v2.2h-2.9v5.7H533.5z M533.5,643.6v-7c0-1.1,0-2.2,0.1-3.3h-0.1
			c-0.6,1.2-1.2,2.1-1.7,3.1l-5.1,7.1v0.1H533.5z"/>
		<path d="M541.9,648.2c0.8,0.5,2.7,1.3,4.6,1.3c3.6,0,4.8-2.3,4.7-4c0-2.9-2.7-4.2-5.4-4.2h-1.6v-2.1h1.6c2.1,0,4.7-1.1,4.7-3.5
			c0-1.7-1.1-3.1-3.7-3.1c-1.7,0-3.3,0.7-4.2,1.4l-0.7-2.1c1.1-0.8,3.2-1.6,5.5-1.6c4.1,0,6,2.4,6,5c0,2.2-1.3,4-3.9,4.9v0.1
			c2.6,0.5,4.7,2.4,4.7,5.4c0,3.3-2.6,6.3-7.6,6.3c-2.3,0-4.4-0.7-5.4-1.4L541.9,648.2z"/>
		<path d="M571.9,641.8v2.1H564v-2.1H571.9z"/>
		<path d="M581.8,648.1c1.3,0.8,3.1,1.4,5,1.4c2.9,0,4.5-1.5,4.5-3.7c0-2-1.2-3.2-4.1-4.3c-3.5-1.3-5.7-3.1-5.7-6.1
			c0-3.4,2.8-5.9,7-5.9c2.2,0,3.8,0.5,4.8,1.1l-0.8,2.3c-0.7-0.4-2.2-1-4.1-1c-3,0-4.1,1.8-4.1,3.2c0,2,1.3,3,4.3,4.2
			c3.7,1.4,5.5,3.2,5.5,6.4c0,3.3-2.5,6.2-7.6,6.2c-2.1,0-4.4-0.6-5.5-1.4L581.8,648.1z"/>
		<path d="M599.6,644.2c0.1,3.8,2.5,5.4,5.3,5.4c2,0,3.2-0.4,4.3-0.8l0.5,2c-1,0.4-2.7,1-5.2,1c-4.8,0-7.6-3.1-7.6-7.8
			c0-4.7,2.8-8.4,7.3-8.4c5.1,0,6.4,4.5,6.4,7.3c0,0.6-0.1,1-0.1,1.3H599.6z M607.9,642.2c0-1.8-0.7-4.6-3.9-4.6
			c-2.9,0-4.1,2.6-4.3,4.6H607.9z"/>
		<path d="M615.3,635.9l3.1,8.7c0.5,1.4,0.9,2.7,1.3,4h0.1c0.4-1.3,0.8-2.6,1.3-4l3-8.7h3l-6.1,15.5h-2.7l-5.9-15.5H615.3z"/>
		<path d="M630.9,644.2c0.1,3.8,2.5,5.4,5.3,5.4c2,0,3.2-0.4,4.3-0.8l0.5,2c-1,0.4-2.7,1-5.2,1c-4.8,0-7.6-3.1-7.6-7.8
			c0-4.7,2.8-8.4,7.3-8.4c5.1,0,6.4,4.5,6.4,7.3c0,0.6-0.1,1-0.1,1.3H630.9z M639.2,642.2c0-1.8-0.7-4.6-3.9-4.6
			c-2.9,0-4.1,2.6-4.3,4.6H639.2z"/>
		<path d="M645.4,640.8c0-1.8,0-3.4-0.1-4.9h2.5l0.1,3.1h0.1c0.7-2.1,2.4-3.4,4.3-3.4c0.3,0,0.5,0,0.8,0.1v2.7
			c-0.3-0.1-0.6-0.1-1-0.1c-2,0-3.4,1.5-3.8,3.6c-0.1,0.4-0.1,0.8-0.1,1.3v8.3h-2.8V640.8z"/>
		<path d="M657.1,644.2c0.1,3.8,2.5,5.4,5.3,5.4c2,0,3.2-0.4,4.3-0.8l0.5,2c-1,0.4-2.7,1-5.2,1c-4.8,0-7.6-3.1-7.6-7.8
			c0-4.7,2.8-8.4,7.3-8.4c5.1,0,6.4,4.5,6.4,7.3c0,0.6-0.1,1-0.1,1.3H657.1z M665.4,642.2c0-1.8-0.7-4.6-3.9-4.6
			c-2.9,0-4.1,2.6-4.3,4.6H665.4z"/>
		<path d="M678.6,630.1c1.7-0.3,3.7-0.5,5.9-0.5c4,0,6.9,0.9,8.8,2.7c1.9,1.8,3.1,4.3,3.1,7.8c0,3.5-1.1,6.4-3.1,8.4
			c-2,2-5.4,3.1-9.6,3.1c-2,0-3.7-0.1-5.1-0.3V630.1z M681.4,649.3c0.7,0.1,1.7,0.2,2.8,0.2c6,0,9.2-3.3,9.2-9.2
			c0-5.1-2.9-8.4-8.8-8.4c-1.4,0-2.5,0.1-3.3,0.3V649.3z"/>
		<path d="M699.9,640.8c0-1.8,0-3.4-0.1-4.9h2.5l0.1,3.1h0.1c0.7-2.1,2.4-3.4,4.3-3.4c0.3,0,0.5,0,0.8,0.1v2.7
			c-0.3-0.1-0.6-0.1-1-0.1c-2,0-3.4,1.5-3.8,3.6c-0.1,0.4-0.1,0.8-0.1,1.3v8.3h-2.8V640.8z"/>
		<path d="M724.1,643.6c0,5.7-4,8.3-7.7,8.3c-4.2,0-7.5-3.1-7.5-8c0-5.2,3.4-8.3,7.7-8.3C721.1,635.6,724.1,638.8,724.1,643.6z
			 M711.8,643.8c0,3.4,2,6,4.7,6c2.7,0,4.7-2.5,4.7-6c0-2.6-1.3-6-4.7-6C713.2,637.7,711.8,640.8,711.8,643.8z"/>
		<path d="M740.7,647.3c0,1.6,0,3,0.1,4.2h-2.5l-0.2-2.5h-0.1c-0.7,1.3-2.4,2.9-5.1,2.9c-2.4,0-5.4-1.3-5.4-6.8v-9.1h2.8v8.6
			c0,3,0.9,4.9,3.5,4.9c1.9,0,3.2-1.3,3.7-2.6c0.2-0.4,0.3-0.9,0.3-1.4v-9.5h2.8V647.3z"/>
		<path d="M758.8,635.9c-0.1,1.1-0.1,2.4-0.1,4.3v9c0,3.6-0.7,5.8-2.2,7.1c-1.5,1.4-3.7,1.9-5.7,1.9c-1.9,0-3.9-0.4-5.2-1.3l0.7-2.2
			c1,0.6,2.6,1.2,4.6,1.2c2.9,0,5-1.5,5-5.4v-1.7h-0.1c-0.9,1.4-2.5,2.6-4.9,2.6c-3.9,0-6.6-3.3-6.6-7.6c0-5.3,3.4-8.3,7-8.3
			c2.7,0,4.2,1.4,4.9,2.7h0.1l0.1-2.3H758.8z M755.8,642.1c0-0.5,0-0.9-0.2-1.3c-0.5-1.6-1.9-3-4-3c-2.7,0-4.6,2.3-4.6,5.9
			c0,3.1,1.5,5.6,4.6,5.6c1.7,0,3.3-1.1,3.9-2.9c0.2-0.5,0.2-1,0.2-1.5V642.1z"/>
		<path d="M763.3,628.7h2.8v9.7h0.1c0.5-0.8,1.2-1.5,2-2c0.8-0.5,1.8-0.8,2.9-0.8c2.1,0,5.4,1.3,5.4,6.7v9.3h-2.8v-8.9
			c0-2.5-0.9-4.6-3.6-4.6c-1.8,0-3.3,1.3-3.8,2.8c-0.2,0.4-0.2,0.8-0.2,1.4v9.4h-2.8V628.7z"/>
		<path d="M784.4,631.5v4.5h4v2.2h-4v8.4c0,1.9,0.5,3,2.1,3c0.7,0,1.3-0.1,1.6-0.2l0.1,2.1c-0.5,0.2-1.4,0.4-2.5,0.4
			c-1.3,0-2.4-0.4-3.1-1.2c-0.8-0.8-1.1-2.2-1.1-4v-8.5h-2.4v-2.2h2.4v-3.7L784.4,631.5z"/>
	</g>
</g>
</svg>
