<?xml version="1.0" encoding="utf-8"?>
<!-- Generator: Adobe Illustrator 28.4.1, SVG Export Plug-In . SVG Version: 6.00 Build 0)  -->
<svg version="1.1" id="Layer_1" xmlns="http://www.w3.org/2000/svg" xmlns:xlink="http://www.w3.org/1999/xlink" x="0px" y="0px"
	 viewBox="0 0 1280 720" style="enable-background:new 0 0 1280 720;" xml:space="preserve">
<style type="text/css">
	.st0{fill:#FFEFCB;enable-background:new    ;}
	.st1{fill:#0C1A2D;enable-background:new    ;}
	.st2{fill:#CD411D;enable-background:new    ;}
	.st3{fill:#F2F0EB;enable-background:new    ;}
</style>
<g>
	<circle class="st0" cx="399.5" cy="273.5" r="37.3"/>
	<circle class="st1" cx="399.5" cy="619.5" r="37.3"/>
	<circle class="st2" cx="399.5" cy="446.5" r="37.3"/>
	<circle class="st3" cx="399.5" cy="100.5" r="37.3"/>
	<g>
		<path d="M471.2,269.2h12.9v2.6h-9.8v8h9.1v2.6h-9.1v10.8h-3.1V269.2z"/>
		<path d="M488.5,269.2h12.9v2.6h-9.8v8h9.1v2.6h-9.1v10.8h-3.1V269.2z"/>
		<path d="M518.2,281.9h-9.3v8.6h10.4v2.6h-13.5v-23.9h12.9v2.6h-9.8v7.6h9.3V281.9z"/>
		<path d="M523.3,269.2h12.9v2.6h-9.8v8h9.1v2.6h-9.1v10.8h-3.1V269.2z"/>
		<path d="M557.3,292.4c-1.1,0.6-3.4,1.1-6.3,1.1c-6.7,0-11.8-4.3-11.8-12.1c0-7.5,5.1-12.6,12.5-12.6c3,0,4.9,0.6,5.7,1.1l-0.7,2.5
			c-1.2-0.6-2.8-1-4.8-1c-5.6,0-9.3,3.6-9.3,9.9c0,5.9,3.4,9.6,9.2,9.6c1.9,0,3.8-0.4,5-1L557.3,292.4z"/>
		<path d="M561.2,269.5c1.3-0.3,3.5-0.5,5.6-0.5c3.1,0,5.1,0.5,6.6,1.7c1.2,0.9,2,2.3,2,4.2c0,2.3-1.5,4.3-4,5.3v0.1
			c2.3,0.6,4.9,2.5,4.9,6c0,2.1-0.8,3.6-2,4.8c-1.7,1.5-4.4,2.2-8.3,2.2c-2.1,0-3.8-0.1-4.8-0.3V269.5z M564.3,279.3h2.8
			c3.3,0,5.2-1.7,5.2-4c0-2.8-2.1-3.9-5.3-3.9c-1.4,0-2.2,0.1-2.7,0.2V279.3z M564.3,290.8c0.6,0.1,1.5,0.1,2.6,0.1
			c3.2,0,6.1-1.2,6.1-4.7c0-3.3-2.8-4.6-6.2-4.6h-2.6V290.8z"/>
		<path d="M595.1,282.4v2.3h-8.8v-2.3H595.1z"/>
		<path d="M606.5,269.2h3.1v21.3h10.2v2.6h-13.3V269.2z"/>
		<path d="M638.2,284.4c0,6.4-4.4,9.1-8.6,9.1c-4.7,0-8.2-3.4-8.2-8.8c0-5.8,3.8-9.1,8.5-9.1C634.8,275.6,638.2,279.2,638.2,284.4z
			 M624.5,284.6c0,3.8,2.2,6.6,5.2,6.6c3,0,5.2-2.8,5.2-6.7c0-2.9-1.5-6.6-5.2-6.6C626.1,277.9,624.5,281.3,624.5,284.6z"/>
		<path d="M643.1,276l2.3,8.7c0.5,1.9,1,3.7,1.3,5.5h0.1c0.4-1.7,1-3.6,1.5-5.4l2.8-8.8h2.6l2.7,8.6c0.6,2.1,1.1,3.9,1.5,5.6h0.1
			c0.3-1.7,0.7-3.6,1.3-5.6l2.5-8.6h3.1l-5.5,17.2h-2.8l-2.6-8.2c-0.6-1.9-1.1-3.6-1.5-5.6h-0.1c-0.4,2.1-1,3.8-1.6,5.7l-2.8,8.2
			h-2.8l-5.2-17.2H643.1z"/>
		<path d="M675.7,269.5c1.6-0.3,3.8-0.5,5.9-0.5c3.3,0,5.4,0.6,6.9,2c1.2,1.1,1.9,2.7,1.9,4.5c0,3.2-2,5.3-4.5,6.1v0.1
			c1.8,0.6,2.9,2.3,3.5,4.8c0.8,3.3,1.4,5.6,1.8,6.6h-3.2c-0.4-0.7-0.9-2.7-1.6-5.7c-0.7-3.3-2-4.5-4.8-4.7h-2.9v10.4h-3.1V269.5z
			 M678.8,280.4h3.2c3.3,0,5.4-1.8,5.4-4.5c0-3.1-2.2-4.4-5.5-4.5c-1.5,0-2.6,0.1-3.1,0.3V280.4z"/>
		<path d="M698.5,271.1c0,1.1-0.7,1.9-2,1.9c-1.1,0-1.9-0.9-1.9-1.9c0-1.1,0.8-2,2-2C697.8,269.2,698.5,270,698.5,271.1z
			 M695.1,293.1V276h3.1v17.2H695.1z"/>
		<path d="M702.9,289.9c0.9,0.6,2.6,1.2,4.1,1.2c2.3,0,3.3-1.1,3.3-2.6c0-1.5-0.9-2.3-3.2-3.2c-3.1-1.1-4.5-2.8-4.5-4.9
			c0-2.8,2.2-5,5.9-5c1.7,0,3.3,0.5,4.2,1.1l-0.8,2.3c-0.7-0.4-1.9-1-3.5-1c-1.8,0-2.9,1.1-2.9,2.3c0,1.4,1,2.1,3.3,2.9
			c3,1.1,4.5,2.6,4.5,5.2c0,3-2.3,5.2-6.4,5.2c-1.9,0-3.6-0.5-4.8-1.2L702.9,289.9z"/>
		<path d="M720.5,283.8L720.5,283.8c0.5-0.6,1.1-1.4,1.6-2l5-5.9h3.8l-6.6,7.1l7.6,10.1h-3.8l-5.9-8.2l-1.6,1.8v6.5h-3.1v-25.2h3.1
			V283.8z"/>
		<path d="M741.8,269.2h12.9v2.6h-9.8v8h9.1v2.6h-9.1v10.8h-3.1V269.2z"/>
		<path d="M758.3,267.9h3.1v25.2h-3.1V267.9z"/>
		<path d="M782.3,284.4c0,6.4-4.4,9.1-8.6,9.1c-4.7,0-8.2-3.4-8.2-8.8c0-5.8,3.8-9.1,8.5-9.1C779,275.6,782.3,279.2,782.3,284.4z
			 M768.7,284.6c0,3.8,2.2,6.6,5.2,6.6c3,0,5.2-2.8,5.2-6.7c0-2.9-1.5-6.6-5.2-6.6C770.3,277.9,768.7,281.3,768.7,284.6z"/>
		<path d="M801.8,284.4c0,6.4-4.4,9.1-8.6,9.1c-4.7,0-8.2-3.4-8.2-8.8c0-5.8,3.8-9.1,8.5-9.1C798.5,275.6,801.8,279.2,801.8,284.4z
			 M788.2,284.6c0,3.8,2.2,6.6,5.2,6.6c3,0,5.2-2.8,5.2-6.7c0-2.9-1.5-6.6-5.2-6.6C789.8,277.9,788.2,281.3,788.2,284.6z"/>
		<path d="M820.6,267.9v20.8c0,1.5,0,3.3,0.1,4.4h-2.8l-0.1-3h-0.1c-1,1.9-3.1,3.4-5.9,3.4c-4.2,0-7.4-3.5-7.4-8.7
			c0-5.7,3.5-9.2,7.7-9.2c2.6,0,4.4,1.2,5.2,2.6h0.1v-10.3H820.6z M817.5,283c0-0.4,0-0.9-0.1-1.3c-0.5-2-2.2-3.6-4.5-3.6
			c-3.2,0-5.2,2.8-5.2,6.6c0,3.5,1.7,6.4,5.1,6.4c2.1,0,4-1.4,4.6-3.7c0.1-0.4,0.1-0.9,0.1-1.3V283z"/>
	</g>
	<g>
		<path d="M486.9,627.1c0,7.9-2.9,12.2-8,12.2c-4.5,0-7.6-4.2-7.6-11.9c0-7.7,3.3-12,8-12C484.1,615.4,486.9,619.8,486.9,627.1z
			 M474.3,627.5c0,6,1.8,9.4,4.7,9.4c3.2,0,4.7-3.7,4.7-9.6c0-5.7-1.5-9.4-4.7-9.4C476.3,617.8,474.3,621.2,474.3,627.5z"/>
		<path d="M507.6,638.1c-1.1,0.6-3.4,1.1-6.3,1.1c-6.7,0-11.8-4.3-11.8-12.1c0-7.5,5.1-12.6,12.5-12.6c3,0,4.9,0.6,5.7,1.1l-0.7,2.5
			c-1.2-0.6-2.8-1-4.8-1c-5.6,0-9.3,3.6-9.3,9.9c0,5.9,3.4,9.6,9.2,9.6c1.9,0,3.8-0.4,5-1L507.6,638.1z"/>
		<path d="M517.1,618.7L517.1,618.7l-4.1,2.2l-0.6-2.4l5-2.7h2.7v23.1h-3V618.7z"/>
		<path d="M533.6,631.4l-2.5,7.5h-3.2L536,615h3.7l8.2,23.9h-3.3l-2.6-7.5H533.6z M541.4,629l-2.3-6.9c-0.5-1.6-0.9-3-1.2-4.4h-0.1
			c-0.4,1.4-0.7,2.9-1.2,4.3l-2.3,6.9H541.4z"/>
		<path d="M550.3,638.9V637l2.5-2.4c5.9-5.6,8.6-8.6,8.6-12.1c0-2.3-1.1-4.5-4.6-4.5c-2.1,0-3.8,1.1-4.9,2l-1-2.2
			c1.6-1.3,3.9-2.3,6.5-2.3c5,0,7.1,3.4,7.1,6.7c0,4.3-3.1,7.7-8,12.4l-1.8,1.7v0.1h10.4v2.6H550.3z"/>
		<path d="M569.7,615.3c1.9-0.3,4.1-0.5,6.6-0.5c4.4,0,7.6,1,9.7,3c2.1,2,3.4,4.7,3.4,8.6c0,3.9-1.2,7.1-3.4,9.3
			c-2.2,2.2-5.9,3.4-10.6,3.4c-2.2,0-4.1-0.1-5.6-0.3V615.3z M572.8,636.5c0.8,0.1,1.9,0.2,3.1,0.2c6.6,0,10.2-3.7,10.2-10.2
			c0-5.6-3.2-9.2-9.7-9.2c-1.6,0-2.8,0.1-3.6,0.3V636.5z"/>
		<path d="M601,628.1v2.3h-8.8v-2.3H601z"/>
		<path d="M611.9,635.1c1.4,0.9,3.4,1.6,5.5,1.6c3.2,0,5-1.7,5-4.1c0-2.2-1.3-3.5-4.5-4.8c-3.9-1.4-6.3-3.4-6.3-6.8
			c0-3.7,3.1-6.5,7.7-6.5c2.5,0,4.2,0.6,5.3,1.2l-0.9,2.5c-0.8-0.4-2.4-1.1-4.5-1.1c-3.3,0-4.5,2-4.5,3.6c0,2.2,1.5,3.3,4.8,4.6
			c4,1.6,6.1,3.5,6.1,7c0,3.7-2.7,6.9-8.4,6.9c-2.3,0-4.8-0.7-6.1-1.5L611.9,635.1z"/>
		<path d="M631.7,630.9c0.1,4.2,2.8,6,5.9,6c2.2,0,3.6-0.4,4.8-0.9l0.5,2.2c-1.1,0.5-3,1.1-5.7,1.1c-5.3,0-8.5-3.5-8.5-8.7
			c0-5.2,3.1-9.3,8.1-9.3c5.6,0,7.1,4.9,7.1,8.1c0,0.6-0.1,1.1-0.1,1.5H631.7z M640.8,628.6c0-2-0.8-5.1-4.3-5.1
			c-3.2,0-4.5,2.9-4.8,5.1H640.8z"/>
		<path d="M648.9,621.7l3.4,9.7c0.6,1.6,1,3,1.4,4.4h0.1c0.4-1.4,0.9-2.8,1.5-4.4l3.3-9.7h3.3l-6.7,17.2h-3l-6.5-17.2H648.9z"/>
		<path d="M666.2,630.9c0.1,4.2,2.8,6,5.9,6c2.2,0,3.6-0.4,4.8-0.9l0.5,2.2c-1.1,0.5-3,1.1-5.7,1.1c-5.3,0-8.5-3.5-8.5-8.7
			c0-5.2,3.1-9.3,8.1-9.3c5.6,0,7.1,4.9,7.1,8.1c0,0.6-0.1,1.1-0.1,1.5H666.2z M675.4,628.6c0-2-0.8-5.1-4.3-5.1
			c-3.2,0-4.5,2.9-4.8,5.1H675.4z"/>
		<path d="M682.3,627.1c0-2,0-3.8-0.1-5.4h2.7l0.1,3.4h0.1c0.8-2.3,2.7-3.8,4.8-3.8c0.4,0,0.6,0,0.9,0.1v2.9
			c-0.3-0.1-0.6-0.1-1.1-0.1c-2.2,0-3.8,1.7-4.2,4c-0.1,0.4-0.1,0.9-0.1,1.5v9.2h-3.1V627.1z"/>
		<path d="M695.3,630.9c0.1,4.2,2.8,6,5.9,6c2.2,0,3.6-0.4,4.8-0.9l0.5,2.2c-1.1,0.5-3,1.1-5.7,1.1c-5.3,0-8.5-3.5-8.5-8.7
			c0-5.2,3.1-9.3,8.1-9.3c5.6,0,7.1,4.9,7.1,8.1c0,0.6-0.1,1.1-0.1,1.5H695.3z M704.4,628.6c0-2-0.8-5.1-4.3-5.1
			c-3.2,0-4.5,2.9-4.8,5.1H704.4z"/>
		<path d="M719,615.3c1.6-0.3,3.8-0.5,5.9-0.5c3.3,0,5.4,0.6,6.9,2c1.2,1.1,1.9,2.7,1.9,4.5c0,3.2-2,5.3-4.5,6.1v0.1
			c1.8,0.6,2.9,2.3,3.5,4.8c0.8,3.3,1.4,5.6,1.8,6.6h-3.2c-0.4-0.7-0.9-2.7-1.6-5.7c-0.7-3.3-2-4.5-4.8-4.7h-2.9v10.4H719V615.3z
			 M722.1,626.2h3.2c3.3,0,5.4-1.8,5.4-4.5c0-3.1-2.2-4.4-5.5-4.5c-1.5,0-2.6,0.1-3.1,0.3V626.2z"/>
		<path d="M741.8,616.9c0,1.1-0.7,1.9-2,1.9c-1.1,0-1.9-0.9-1.9-1.9c0-1.1,0.8-2,2-2C741.1,614.9,741.8,615.8,741.8,616.9z
			 M738.3,638.9v-17.2h3.1v17.2H738.3z"/>
		<path d="M746.2,635.7c0.9,0.6,2.6,1.2,4.1,1.2c2.3,0,3.3-1.1,3.3-2.6c0-1.5-0.9-2.3-3.2-3.2c-3.1-1.1-4.5-2.8-4.5-4.9
			c0-2.8,2.2-5,5.9-5c1.7,0,3.3,0.5,4.2,1.1l-0.8,2.3c-0.7-0.4-1.9-1-3.5-1c-1.8,0-2.9,1.1-2.9,2.3c0,1.4,1,2.1,3.3,2.9
			c3,1.1,4.5,2.6,4.5,5.2c0,3-2.3,5.2-6.4,5.2c-1.9,0-3.6-0.5-4.8-1.2L746.2,635.7z"/>
		<path d="M763.8,629.6L763.8,629.6c0.5-0.6,1.1-1.4,1.6-2l5-5.9h3.8l-6.6,7.1l7.6,10.1h-3.8l-5.9-8.2l-1.6,1.8v6.5h-3.1v-25.2h3.1
			V629.6z"/>
		<path d="M785,615h12.9v2.6h-9.8v8h9.1v2.6h-9.1v10.8H785V615z"/>
		<path d="M801.6,613.7h3.1v25.2h-3.1V613.7z"/>
		<path d="M825.6,630.2c0,6.4-4.4,9.1-8.6,9.1c-4.7,0-8.2-3.4-8.2-8.8c0-5.8,3.8-9.1,8.5-9.1C822.2,621.3,825.6,624.9,825.6,630.2z
			 M811.9,630.3c0,3.8,2.2,6.6,5.2,6.6c3,0,5.2-2.8,5.2-6.7c0-2.9-1.5-6.6-5.2-6.6C813.5,623.7,811.9,627.1,811.9,630.3z"/>
		<path d="M845.1,630.2c0,6.4-4.4,9.1-8.6,9.1c-4.7,0-8.2-3.4-8.2-8.8c0-5.8,3.8-9.1,8.5-9.1C841.8,621.3,845.1,624.9,845.1,630.2z
			 M831.4,630.3c0,3.8,2.2,6.6,5.2,6.6c3,0,5.2-2.8,5.2-6.7c0-2.9-1.5-6.6-5.2-6.6C833,623.7,831.4,627.1,831.4,630.3z"/>
		<path d="M863.9,613.7v20.8c0,1.5,0,3.3,0.1,4.4h-2.8l-0.1-3H861c-1,1.9-3.1,3.4-5.9,3.4c-4.2,0-7.4-3.5-7.4-8.7
			c0-5.7,3.5-9.2,7.7-9.2c2.6,0,4.4,1.2,5.2,2.6h0.1v-10.3H863.9z M860.8,628.7c0-0.4,0-0.9-0.1-1.3c-0.5-2-2.2-3.6-4.5-3.6
			c-3.2,0-5.2,2.8-5.2,6.6c0,3.5,1.7,6.4,5.1,6.4c2.1,0,4-1.4,4.6-3.7c0.1-0.4,0.1-0.9,0.1-1.3V628.7z"/>
	</g>
	<g>
		<path d="M489.3,462.9c-1.1,0.6-3.4,1.1-6.3,1.1c-6.7,0-11.8-4.3-11.8-12.1c0-7.5,5.1-12.6,12.5-12.6c3,0,4.9,0.6,5.7,1.1l-0.7,2.5
			c-1.2-0.6-2.8-1-4.8-1c-5.6,0-9.3,3.6-9.3,9.9c0,5.9,3.4,9.6,9.2,9.6c1.9,0,3.8-0.4,5-1L489.3,462.9z"/>
		<path d="M493.2,440.1c1.9-0.3,4.1-0.5,6.6-0.5c4.4,0,7.6,1,9.7,3c2.1,2,3.4,4.7,3.4,8.6c0,3.9-1.2,7.1-3.4,9.3
			c-2.2,2.2-5.9,3.4-10.6,3.4c-2.2,0-4.1-0.1-5.6-0.3V440.1z M496.3,461.2c0.8,0.1,1.9,0.2,3.1,0.2c6.6,0,10.2-3.7,10.2-10.2
			c0-5.6-3.2-9.2-9.7-9.2c-1.6,0-2.8,0.1-3.6,0.3V461.2z"/>
		<path d="M525.5,463.7v-6.3h-10.7v-2.1l10.3-14.7h3.4V455h3.2v2.4h-3.2v6.3H525.5z M525.5,455v-7.7c0-1.2,0-2.4,0.1-3.6h-0.1
			c-0.7,1.4-1.3,2.3-1.9,3.4l-5.6,7.9v0.1H525.5z"/>
		<path d="M540.8,443.5L540.8,443.5l-4.1,2.2l-0.6-2.4l5-2.7h2.7v23.1h-3V443.5z"/>
		<path d="M559,443.5L559,443.5l-4.1,2.2l-0.6-2.4l5-2.7h2.7v23.1h-3V443.5z"/>
		<path d="M571.6,440.1c1.9-0.3,4.1-0.5,6.6-0.5c4.4,0,7.6,1,9.7,3c2.1,2,3.4,4.7,3.4,8.6c0,3.9-1.2,7.1-3.4,9.3
			c-2.2,2.2-5.9,3.4-10.6,3.4c-2.2,0-4.1-0.1-5.6-0.3V440.1z M574.7,461.2c0.8,0.1,1.9,0.2,3.1,0.2c6.6,0,10.2-3.7,10.2-10.2
			c0-5.6-3.2-9.2-9.7-9.2c-1.6,0-2.8,0.1-3.6,0.3V461.2z"/>
		<path d="M609.9,452.9v2.3h-8.8v-2.3H609.9z"/>
		<path d="M641.4,453.2c-0.2-3.3-0.4-7.4-0.4-10.3H641c-0.8,2.8-1.8,5.8-3,9.1l-4.2,11.6h-2.3l-3.9-11.4c-1.1-3.4-2.1-6.5-2.8-9.3
			h-0.1c-0.1,3-0.2,7-0.5,10.6l-0.6,10.3h-2.9l1.7-23.9h3.9l4.1,11.6c1,2.9,1.8,5.6,2.4,8.1h0.1c0.6-2.4,1.5-5,2.5-8.1l4.3-11.6h3.9
			l1.5,23.9h-3L641.4,453.2z"/>
		<path d="M665.5,455c0,6.4-4.4,9.1-8.6,9.1c-4.7,0-8.2-3.4-8.2-8.8c0-5.8,3.8-9.1,8.5-9.1C662.1,446.1,665.5,449.7,665.5,455z
			 M651.8,455.1c0,3.8,2.2,6.6,5.2,6.6c3,0,5.2-2.8,5.2-6.7c0-2.9-1.5-6.6-5.2-6.6C653.4,448.5,651.8,451.9,651.8,455.1z"/>
		<path d="M684.3,438.5v20.8c0,1.5,0,3.3,0.1,4.4h-2.8l-0.1-3h-0.1c-1,1.9-3.1,3.4-5.9,3.4c-4.2,0-7.4-3.5-7.4-8.7
			c0-5.7,3.5-9.2,7.7-9.2c2.6,0,4.4,1.2,5.2,2.6h0.1v-10.3H684.3z M681.1,453.5c0-0.4,0-0.9-0.1-1.3c-0.5-2-2.2-3.6-4.5-3.6
			c-3.2,0-5.2,2.8-5.2,6.6c0,3.5,1.7,6.4,5.1,6.4c2.1,0,4-1.4,4.6-3.7c0.1-0.4,0.1-0.9,0.1-1.3V453.5z"/>
		<path d="M691.2,455.7c0.1,4.2,2.8,6,5.9,6c2.2,0,3.6-0.4,4.8-0.9l0.5,2.2c-1.1,0.5-3,1.1-5.7,1.1c-5.3,0-8.5-3.5-8.5-8.7
			c0-5.2,3.1-9.3,8.1-9.3c5.6,0,7.1,4.9,7.1,8.1c0,0.6-0.1,1.1-0.1,1.5H691.2z M700.4,453.4c0-2-0.8-5.1-4.3-5.1
			c-3.2,0-4.5,2.9-4.8,5.1H700.4z"/>
		<path d="M707.3,451.9c0-2,0-3.8-0.1-5.4h2.7l0.1,3.4h0.1c0.8-2.3,2.7-3.8,4.8-3.8c0.4,0,0.6,0,0.9,0.1v2.9
			c-0.3-0.1-0.6-0.1-1.1-0.1c-2.2,0-3.8,1.7-4.2,4c-0.1,0.4-0.1,0.9-0.1,1.5v9.2h-3.1V451.9z"/>
		<path d="M728.2,463.7l-0.2-2.2h-0.1c-1,1.3-2.8,2.6-5.3,2.6c-3.5,0-5.3-2.5-5.3-4.9c0-4.2,3.7-6.4,10.3-6.4v-0.4
			c0-1.4-0.4-4-3.9-4c-1.6,0-3.3,0.5-4.5,1.3l-0.7-2.1c1.4-0.9,3.5-1.5,5.6-1.5c5.3,0,6.5,3.6,6.5,7v6.4c0,1.5,0.1,2.9,0.3,4.1
			H728.2z M727.8,454.9c-3.4-0.1-7.3,0.5-7.3,3.9c0,2,1.4,3,2.9,3c2.2,0,3.7-1.4,4.2-2.9c0.1-0.3,0.2-0.7,0.2-1V454.9z"/>
		<path d="M739.5,441.6v4.9h4.5v2.4h-4.5v9.3c0,2.1,0.6,3.3,2.3,3.3c0.8,0,1.4-0.1,1.8-0.2l0.1,2.3c-0.6,0.2-1.6,0.4-2.8,0.4
			c-1.5,0-2.6-0.5-3.4-1.3c-0.9-0.9-1.2-2.5-1.2-4.5v-9.4h-2.7v-2.4h2.7v-4.1L739.5,441.6z"/>
		<path d="M749,455.7c0.1,4.2,2.8,6,5.9,6c2.2,0,3.6-0.4,4.8-0.9l0.5,2.2c-1.1,0.5-3,1.1-5.7,1.1c-5.3,0-8.5-3.5-8.5-8.7
			c0-5.2,3.1-9.3,8.1-9.3c5.6,0,7.1,4.9,7.1,8.1c0,0.6-0.1,1.1-0.1,1.5H749z M758.2,453.4c0-2-0.8-5.1-4.3-5.1
			c-3.2,0-4.5,2.9-4.8,5.1H758.2z"/>
		<path d="M772.7,440.1c1.6-0.3,3.8-0.5,5.9-0.5c3.3,0,5.4,0.6,6.9,2c1.2,1.1,1.9,2.7,1.9,4.5c0,3.2-2,5.3-4.5,6.1v0.1
			c1.8,0.6,2.9,2.3,3.5,4.8c0.8,3.3,1.4,5.6,1.8,6.6h-3.2c-0.4-0.7-0.9-2.7-1.6-5.7c-0.7-3.3-2-4.5-4.8-4.7h-2.9v10.4h-3.1V440.1z
			 M775.8,451h3.2c3.3,0,5.4-1.8,5.4-4.5c0-3.1-2.2-4.4-5.5-4.5c-1.5,0-2.6,0.1-3.1,0.3V451z"/>
		<path d="M795.6,441.7c0,1.1-0.7,1.9-2,1.9c-1.1,0-1.9-0.9-1.9-1.9c0-1.1,0.8-2,2-2C794.8,439.7,795.6,440.6,795.6,441.7z
			 M792.1,463.7v-17.2h3.1v17.2H792.1z"/>
		<path d="M800,460.5c0.9,0.6,2.6,1.2,4.1,1.2c2.3,0,3.3-1.1,3.3-2.6c0-1.5-0.9-2.3-3.2-3.2c-3.1-1.1-4.5-2.8-4.5-4.9
			c0-2.8,2.2-5,5.9-5c1.7,0,3.3,0.5,4.2,1.1l-0.8,2.3c-0.7-0.4-1.9-1-3.5-1c-1.8,0-2.9,1.1-2.9,2.3c0,1.4,1,2.1,3.3,2.9
			c3,1.1,4.5,2.6,4.5,5.2c0,3-2.3,5.2-6.4,5.2c-1.9,0-3.6-0.5-4.8-1.2L800,460.5z"/>
		<path d="M817.6,454.4L817.6,454.4c0.5-0.6,1.1-1.4,1.6-2l5-5.9h3.8l-6.6,7.1l7.6,10.1h-3.8l-5.9-8.2l-1.6,1.8v6.5h-3.1v-25.2h3.1
			V454.4z"/>
		<path d="M838.8,439.8h12.9v2.6h-9.8v8h9.1v2.6h-9.1v10.8h-3.1V439.8z"/>
		<path d="M855.4,438.5h3.1v25.2h-3.1V438.5z"/>
		<path d="M879.3,455c0,6.4-4.4,9.1-8.6,9.1c-4.7,0-8.2-3.4-8.2-8.8c0-5.8,3.8-9.1,8.5-9.1C876,446.1,879.3,449.7,879.3,455z
			 M865.7,455.1c0,3.8,2.2,6.6,5.2,6.6c3,0,5.2-2.8,5.2-6.7c0-2.9-1.5-6.6-5.2-6.6C867.3,448.5,865.7,451.9,865.7,455.1z"/>
		<path d="M898.8,455c0,6.4-4.4,9.1-8.6,9.1c-4.7,0-8.2-3.4-8.2-8.8c0-5.8,3.8-9.1,8.5-9.1C895.5,446.1,898.8,449.7,898.8,455z
			 M885.2,455.1c0,3.8,2.2,6.6,5.2,6.6c3,0,5.2-2.8,5.2-6.7c0-2.9-1.5-6.6-5.2-6.6C886.8,448.5,885.2,451.9,885.2,455.1z"/>
		<path d="M917.6,438.5v20.8c0,1.5,0,3.3,0.1,4.4H915l-0.1-3h-0.1c-1,1.9-3.1,3.4-5.9,3.4c-4.2,0-7.4-3.5-7.4-8.7
			c0-5.7,3.5-9.2,7.7-9.2c2.6,0,4.4,1.2,5.2,2.6h0.1v-10.3H917.6z M914.5,453.5c0-0.4,0-0.9-0.1-1.3c-0.5-2-2.2-3.6-4.5-3.6
			c-3.2,0-5.2,2.8-5.2,6.6c0,3.5,1.7,6.4,5.1,6.4c2.1,0,4-1.4,4.6-3.7c0.1-0.4,0.1-0.9,0.1-1.3V453.5z"/>
	</g>
	<g>
		<path d="M471.2,92.6h12.9v2.6h-9.8v8h9.1v2.6h-9.1v10.8h-3.1V92.6z"/>
		<path d="M487.4,116.5v-1.9l2.5-2.4c5.9-5.6,8.6-8.6,8.6-12.1c0-2.3-1.1-4.5-4.6-4.5c-2.1,0-3.8,1.1-4.9,2l-1-2.2
			c1.6-1.3,3.9-2.3,6.5-2.3c5,0,7.1,3.4,7.1,6.7c0,4.3-3.1,7.7-8,12.4l-1.8,1.7v0.1h10.4v2.6H487.4z"/>
		<path d="M506.7,92.6h12.9v2.6h-9.8v8h9.1v2.6h-9.1v10.8h-3.1V92.6z"/>
		<path d="M538.3,104.7c0,7.9-2.9,12.2-8,12.2c-4.5,0-7.6-4.2-7.6-11.9c0-7.7,3.3-12,8-12C535.5,93.1,538.3,97.4,538.3,104.7z
			 M525.7,105.1c0,6,1.8,9.4,4.7,9.4c3.2,0,4.7-3.7,4.7-9.6c0-5.7-1.5-9.4-4.7-9.4C527.7,95.5,525.7,98.8,525.7,105.1z"/>
		<path d="M554.7,105.3h-9.3v8.6h10.4v2.6h-13.5V92.6h12.9v2.6h-9.8v7.6h9.3V105.3z"/>
		<path d="M559.8,92.9c1.3-0.3,3.5-0.5,5.6-0.5c3.1,0,5.1,0.5,6.6,1.7c1.2,0.9,2,2.3,2,4.2c0,2.3-1.5,4.3-4,5.3v0.1
			c2.3,0.6,4.9,2.5,4.9,6c0,2.1-0.8,3.6-2,4.8c-1.7,1.5-4.4,2.2-8.3,2.2c-2.1,0-3.8-0.1-4.8-0.3V92.9z M562.8,102.7h2.8
			c3.3,0,5.2-1.7,5.2-4c0-2.8-2.1-3.9-5.3-3.9c-1.4,0-2.2,0.1-2.7,0.2V102.7z M562.8,114.2c0.6,0.1,1.5,0.1,2.6,0.1
			c3.2,0,6.1-1.2,6.1-4.7c0-3.3-2.8-4.6-6.2-4.6h-2.6V114.2z"/>
		<path d="M593.7,105.8v2.3h-8.8v-2.3H593.7z"/>
		<path d="M609,116.5l-7.8-23.9h3.3l3.7,11.8c1,3.2,1.9,6.1,2.6,8.9h0.1c0.7-2.8,1.7-5.8,2.7-8.9l4-11.8h3.3l-8.6,23.9H609z"/>
		<path d="M624,108.5c0.1,4.2,2.8,6,5.9,6c2.2,0,3.6-0.4,4.8-0.9l0.5,2.2c-1.1,0.5-3,1.1-5.7,1.1c-5.3,0-8.5-3.5-8.5-8.7
			c0-5.2,3.1-9.3,8.1-9.3c5.6,0,7.1,4.9,7.1,8.1c0,0.6-0.1,1.1-0.1,1.5H624z M633.2,106.3c0-2-0.8-5.1-4.3-5.1
			c-3.2,0-4.5,2.9-4.8,5.1H633.2z"/>
		<path d="M640.1,104.7c0-2,0-3.8-0.1-5.4h2.7l0.1,3.4h0.1c0.8-2.3,2.7-3.8,4.8-3.8c0.4,0,0.6,0,0.9,0.1v2.9
			c-0.3-0.1-0.6-0.1-1.1-0.1c-2.2,0-3.8,1.7-4.2,4c-0.1,0.4-0.1,0.9-0.1,1.5v9.2h-3.1V104.7z"/>
		<path d="M653.7,99.3l3.8,10.2c0.4,1.1,0.8,2.5,1.1,3.5h0.1c0.3-1,0.7-2.3,1.1-3.6l3.4-10.1h3.3l-4.7,12.3
			c-2.2,5.9-3.8,8.9-5.9,10.8c-1.5,1.4-3.1,1.9-3.8,2l-0.8-2.6c0.8-0.2,1.8-0.7,2.7-1.5c0.9-0.7,1.9-1.9,2.6-3.5
			c0.1-0.3,0.2-0.6,0.2-0.7c0-0.2-0.1-0.4-0.2-0.8l-6.4-15.8H653.7z"/>
		<path d="M677,92.6h3.1v21.3h10.2v2.6H677V92.6z"/>
		<path d="M708.7,107.8c0,6.4-4.4,9.1-8.6,9.1c-4.7,0-8.2-3.4-8.2-8.8c0-5.8,3.8-9.1,8.5-9.1C705.4,99,708.7,102.5,708.7,107.8z
			 M695.1,108c0,3.8,2.2,6.6,5.2,6.6c3,0,5.2-2.8,5.2-6.7c0-2.9-1.5-6.6-5.2-6.6S695.1,104.7,695.1,108z"/>
		<path d="M713.6,99.3l2.3,8.7c0.5,1.9,1,3.7,1.3,5.5h0.1c0.4-1.7,1-3.6,1.5-5.4l2.8-8.8h2.6l2.7,8.6c0.6,2.1,1.1,3.9,1.5,5.6h0.1
			c0.3-1.7,0.7-3.6,1.3-5.6l2.4-8.6h3.1l-5.5,17.2H727l-2.6-8.2c-0.6-1.9-1.1-3.6-1.5-5.6h-0.1c-0.4,2.1-1,3.8-1.6,5.7l-2.8,8.2
			h-2.8l-5.2-17.2H713.6z"/>
		<path d="M746.2,92.9c1.6-0.3,3.8-0.5,5.9-0.5c3.3,0,5.4,0.6,6.9,2c1.2,1.1,1.9,2.7,1.9,4.5c0,3.2-2,5.3-4.5,6.1v0.1
			c1.8,0.6,2.9,2.3,3.5,4.8c0.8,3.3,1.4,5.6,1.8,6.6h-3.2c-0.4-0.7-0.9-2.7-1.6-5.7c-0.7-3.3-2-4.5-4.8-4.7h-2.9v10.4h-3.1V92.9z
			 M749.3,103.8h3.2c3.3,0,5.4-1.8,5.4-4.5c0-3.1-2.2-4.4-5.5-4.5c-1.5,0-2.6,0.1-3.1,0.3V103.8z"/>
		<path d="M769,94.5c0,1.1-0.7,1.9-2,1.9c-1.1,0-1.9-0.9-1.9-1.9c0-1.1,0.8-2,2-2C768.3,92.6,769,93.4,769,94.5z M765.6,116.5V99.3
			h3.1v17.2H765.6z"/>
		<path d="M773.5,113.3c0.9,0.6,2.6,1.2,4.1,1.2c2.3,0,3.3-1.1,3.3-2.6c0-1.5-0.9-2.3-3.2-3.2c-3.1-1.1-4.5-2.8-4.5-4.9
			c0-2.8,2.2-5,5.9-5c1.7,0,3.3,0.5,4.2,1.1l-0.8,2.3c-0.7-0.4-1.9-1-3.5-1c-1.8,0-2.9,1.1-2.9,2.3c0,1.4,1,2.1,3.3,2.9
			c3,1.1,4.5,2.6,4.5,5.2c0,3-2.3,5.2-6.4,5.2c-1.9,0-3.6-0.5-4.8-1.2L773.5,113.3z"/>
		<path d="M791,107.2L791,107.2c0.5-0.6,1.1-1.4,1.6-2l5-5.9h3.8l-6.6,7.1l7.6,10.1h-3.8l-5.9-8.2l-1.6,1.8v6.5H788V91.3h3.1V107.2z
			"/>
		<path d="M812.3,92.6h12.9v2.6h-9.8v8h9.1v2.6h-9.1v10.8h-3.1V92.6z"/>
		<path d="M828.9,91.3h3.1v25.2h-3.1V91.3z"/>
		<path d="M852.8,107.8c0,6.4-4.4,9.1-8.6,9.1c-4.7,0-8.2-3.4-8.2-8.8c0-5.8,3.8-9.1,8.5-9.1C849.5,99,852.8,102.5,852.8,107.8z
			 M839.2,108c0,3.8,2.2,6.6,5.2,6.6c3,0,5.2-2.8,5.2-6.7c0-2.9-1.5-6.6-5.2-6.6C840.8,101.3,839.2,104.7,839.2,108z"/>
		<path d="M872.3,107.8c0,6.4-4.4,9.1-8.6,9.1c-4.7,0-8.2-3.4-8.2-8.8c0-5.8,3.8-9.1,8.5-9.1C869,99,872.3,102.5,872.3,107.8z
			 M858.7,108c0,3.8,2.2,6.6,5.2,6.6c3,0,5.2-2.8,5.2-6.7c0-2.9-1.5-6.6-5.2-6.6C860.3,101.3,858.7,104.7,858.7,108z"/>
		<path d="M891.1,91.3v20.8c0,1.5,0,3.3,0.1,4.4h-2.8l-0.1-3h-0.1c-1,1.9-3.1,3.4-5.9,3.4c-4.2,0-7.4-3.5-7.4-8.7
			c0-5.7,3.5-9.2,7.7-9.2c2.6,0,4.4,1.2,5.2,2.6h0.1V91.3H891.1z M888,106.3c0-0.4,0-0.9-0.1-1.3c-0.5-2-2.2-3.6-4.5-3.6
			c-3.2,0-5.2,2.8-5.2,6.6c0,3.5,1.7,6.4,5.1,6.4c2.1,0,4-1.4,4.6-3.7c0.1-0.4,0.1-0.9,0.1-1.3V106.3z"/>
	</g>
</g>
</svg>
