<?xml version="1.0" encoding="utf-8"?>
<!-- Generator: Adobe Illustrator 28.4.1, SVG Export Plug-In . SVG Version: 6.00 Build 0)  -->
<svg version="1.1" id="Layer_1" xmlns="http://www.w3.org/2000/svg" xmlns:xlink="http://www.w3.org/1999/xlink" x="0px" y="0px"
	 viewBox="0 0 1280 720" style="enable-background:new 0 0 1280 720;" xml:space="preserve">
<style type="text/css">
	.st0{fill:#DCE3F6;enable-background:new    ;}
	.st1{fill:#58E124;enable-background:new    ;}
	.st2{fill:#A99479;enable-background:new    ;}
	.st3{fill:#FD2A5A;enable-background:new    ;}
	.st4{fill:#FFF666;enable-background:new    ;}
	.st5{fill:#3252F7;enable-background:new    ;}
</style>
<g>
	<circle class="st0" cx="412" cy="57.7" r="28.5"/>
	<circle class="st1" cx="412" cy="312.2" r="28.5"/>
	<circle class="st2" cx="412" cy="431.1" r="28.5"/>
	<circle class="st3" cx="412" cy="662.3" r="28.5"/>
	<circle class="st4" cx="412" cy="190" r="28.5"/>
	<circle class="st5" cx="412" cy="548.5" r="28.5"/>
	<g>
		<path d="M452.7,555.5c0.7,0.5,2.4,1.2,4.2,1.2c3.3,0,4.3-2.1,4.3-3.7c0-2.7-2.4-3.8-4.9-3.8h-1.4v-1.9h1.4c1.9,0,4.2-1,4.2-3.2
			c0-1.5-1-2.9-3.3-2.9c-1.5,0-3,0.7-3.8,1.3l-0.7-1.9c1-0.7,2.9-1.5,5-1.5c3.7,0,5.4,2.2,5.4,4.5c0,2-1.2,3.6-3.5,4.5v0.1
			c2.3,0.5,4.2,2.2,4.2,4.9c0,3-2.4,5.7-6.9,5.7c-2.1,0-4-0.7-4.9-1.3L452.7,555.5z"/>
		<path d="M467,558.5v-1.6l2-2c4.8-4.6,7-7.1,7.1-9.9c0-1.9-0.9-3.7-3.8-3.7c-1.7,0-3.1,0.9-4,1.6l-0.8-1.8c1.3-1.1,3.2-1.9,5.4-1.9
			c4.1,0,5.8,2.8,5.8,5.5c0,3.5-2.5,6.3-6.5,10.2l-1.5,1.4v0.1h8.5v2.1H467z"/>
		<path d="M493.2,541.7H486l-0.7,4.9c0.4-0.1,0.8-0.1,1.5-0.1c1.5,0,2.9,0.3,4.1,1c1.5,0.8,2.7,2.5,2.7,4.9c0,3.7-2.9,6.5-7.1,6.5
			c-2.1,0-3.8-0.6-4.7-1.2l0.6-2c0.8,0.5,2.3,1,4,1c2.4,0,4.5-1.6,4.5-4.1c0-2.4-1.7-4.2-5.4-4.2c-1.1,0-1.9,0.1-2.6,0.2l1.2-9.1
			h9.1V541.7z"/>
		<path d="M496.9,558.5v-1.6l2-2c4.8-4.6,7-7.1,7.1-9.9c0-1.9-0.9-3.7-3.8-3.7c-1.7,0-3.1,0.9-4,1.6l-0.8-1.8
			c1.3-1.1,3.2-1.9,5.4-1.9c4.1,0,5.8,2.8,5.8,5.5c0,3.5-2.5,6.3-6.5,10.2l-1.5,1.4v0.1h8.5v2.1H496.9z"/>
		<path d="M512.7,538.8h10.6v2.1h-8v6.5h7.4v2.1h-7.4v8.9h-2.5V538.8z"/>
		<path d="M538.3,539.5v1.7l-8.2,17.2h-2.7l8.2-16.8v-0.1h-9.3v-2.1H538.3z"/>
		<path d="M553.9,549.7v1.9h-7.2v-1.9H553.9z"/>
		<path d="M566.4,558.5l-6.4-19.6h2.7l3.1,9.7c0.8,2.7,1.6,5,2.1,7.3h0.1c0.6-2.3,1.4-4.7,2.2-7.3l3.3-9.7h2.7l-7,19.6H566.4z"/>
		<path d="M578.7,551.9c0.1,3.5,2.3,4.9,4.8,4.9c1.8,0,2.9-0.3,3.9-0.7l0.4,1.8c-0.9,0.4-2.4,0.9-4.7,0.9c-4.3,0-6.9-2.9-6.9-7.1
			c0-4.3,2.5-7.6,6.6-7.6c4.6,0,5.8,4.1,5.8,6.6c0,0.5-0.1,0.9-0.1,1.2H578.7z M586.3,550.1c0-1.6-0.7-4.2-3.6-4.2
			c-2.6,0-3.7,2.4-3.9,4.2H586.3z"/>
		<path d="M591.9,548.8c0-1.7,0-3.1-0.1-4.4h2.2l0.1,2.8h0.1c0.6-1.9,2.2-3.1,3.9-3.1c0.3,0,0.5,0,0.7,0.1v2.4
			c-0.3-0.1-0.5-0.1-0.9-0.1c-1.8,0-3.1,1.4-3.4,3.3c-0.1,0.3-0.1,0.8-0.1,1.2v7.5h-2.5V548.8z"/>
		<path d="M603.1,544.4l3.1,8.3c0.3,0.9,0.7,2,0.9,2.9h0.1c0.3-0.8,0.6-1.9,0.9-2.9l2.8-8.3h2.7l-3.8,10.1c-1.8,4.8-3.1,7.3-4.8,8.8
			c-1.3,1.1-2.5,1.5-3.1,1.7l-0.6-2.2c0.6-0.2,1.5-0.6,2.2-1.3c0.7-0.6,1.6-1.5,2.2-2.9c0.1-0.3,0.2-0.5,0.2-0.6s-0.1-0.3-0.2-0.7
			l-5.2-13H603.1z"/>
		<path d="M624.7,538.8v8.2h9.5v-8.2h2.6v19.6h-2.6v-9.2h-9.5v9.2h-2.5v-19.6H624.7z"/>
		<path d="M642.5,551.9c0.1,3.5,2.3,4.9,4.8,4.9c1.8,0,2.9-0.3,3.9-0.7l0.4,1.8c-0.9,0.4-2.4,0.9-4.7,0.9c-4.3,0-6.9-2.9-6.9-7.1
			c0-4.3,2.5-7.6,6.6-7.6c4.6,0,5.8,4.1,5.8,6.6c0,0.5-0.1,0.9-0.1,1.2H642.5z M650,550.1c0-1.6-0.7-4.2-3.6-4.2
			c-2.6,0-3.7,2.4-3.9,4.2H650z"/>
		<path d="M663.5,558.5l-0.2-1.8h-0.1c-0.8,1.1-2.3,2.1-4.3,2.1c-2.9,0-4.3-2-4.3-4.1c0-3.4,3-5.3,8.5-5.2v-0.3
			c0-1.2-0.3-3.3-3.2-3.3c-1.3,0-2.7,0.4-3.7,1l-0.6-1.7c1.2-0.8,2.9-1.3,4.6-1.3c4.3,0,5.4,2.9,5.4,5.8v5.3c0,1.2,0.1,2.4,0.2,3.4
			H663.5z M663.1,551.3c-2.8-0.1-6,0.4-6,3.2c0,1.7,1.1,2.4,2.4,2.4c1.8,0,3-1.2,3.4-2.4c0.1-0.3,0.1-0.6,0.1-0.8V551.3z"/>
		<path d="M670.4,544.4l2.8,7.9c0.5,1.3,0.8,2.4,1.1,3.6h0.1c0.3-1.2,0.7-2.3,1.2-3.6l2.7-7.9h2.7l-5.5,14.1h-2.4l-5.4-14.1H670.4z"
			/>
		<path d="M684.8,544.4l3.1,8.3c0.3,0.9,0.7,2,0.9,2.9h0.1c0.3-0.8,0.6-1.9,0.9-2.9l2.8-8.3h2.7l-3.8,10.1c-1.8,4.8-3.1,7.3-4.8,8.8
			c-1.3,1.1-2.5,1.5-3.1,1.7l-0.6-2.2c0.6-0.2,1.5-0.6,2.2-1.3c0.7-0.6,1.6-1.5,2.2-2.9c0.1-0.3,0.2-0.5,0.2-0.6s-0.1-0.3-0.2-0.7
			l-5.2-13H684.8z"/>
		<path d="M703.8,539.1c1.2-0.2,2.8-0.4,4.9-0.4c2.5,0,4.3,0.6,5.5,1.6c1.1,0.9,1.7,2.4,1.7,4.1c0,1.8-0.5,3.2-1.5,4.2
			c-1.3,1.4-3.5,2.2-6,2.2c-0.8,0-1.5,0-2-0.2v7.9h-2.5V539.1z M706.3,548.5c0.6,0.1,1.3,0.2,2.1,0.2c3.1,0,4.9-1.5,4.9-4.2
			c0-2.6-1.8-3.8-4.6-3.8c-1.1,0-2,0.1-2.4,0.2V548.5z"/>
		<path d="M718.8,548.8c0-1.7,0-3.1-0.1-4.4h2.2l0.1,2.8h0.1c0.6-1.9,2.2-3.1,3.9-3.1c0.3,0,0.5,0,0.7,0.1v2.4
			c-0.3-0.1-0.5-0.1-0.9-0.1c-1.8,0-3.1,1.4-3.4,3.3c-0.1,0.3-0.1,0.8-0.1,1.2v7.5h-2.5V548.8z"/>
		<path d="M729.4,551.9c0.1,3.5,2.3,4.9,4.8,4.9c1.8,0,2.9-0.3,3.9-0.7l0.4,1.8c-0.9,0.4-2.4,0.9-4.7,0.9c-4.3,0-6.9-2.9-6.9-7.1
			c0-4.3,2.5-7.6,6.6-7.6c4.6,0,5.8,4.1,5.8,6.6c0,0.5-0.1,0.9-0.1,1.2H729.4z M736.9,550.1c0-1.6-0.7-4.2-3.6-4.2
			c-2.6,0-3.7,2.4-3.9,4.2H736.9z"/>
		<path d="M752.6,558c-0.7,0.3-2.2,0.8-4,0.8c-4.3,0-7-2.9-7-7.2c0-4.3,3-7.5,7.6-7.5c1.5,0,2.9,0.4,3.6,0.7l-0.6,2
			c-0.6-0.3-1.6-0.7-3-0.7c-3.2,0-5,2.4-5,5.3c0,3.3,2.1,5.3,4.9,5.3c1.5,0,2.4-0.4,3.1-0.7L752.6,558z"/>
		<path d="M758.5,540.4c0,0.9-0.6,1.6-1.6,1.6c-0.9,0-1.5-0.7-1.5-1.6c0-0.9,0.7-1.6,1.6-1.6C757.9,538.8,758.5,539.5,758.5,540.4z
			 M755.6,558.5v-14.1h2.6v14.1H755.6z"/>
		<path d="M762.4,549c0-1.8-0.1-3.3-0.1-4.6h2.3l0.1,2.4h0.1c1-1.7,2.7-2.7,5-2.7c3.4,0,6,2.9,6,7.2c0,5.1-3.1,7.6-6.4,7.6
			c-1.9,0-3.5-0.8-4.3-2.2H765v7.7h-2.5V549z M765,552.7c0,0.4,0.1,0.7,0.1,1c0.5,1.8,2,3,3.8,3c2.7,0,4.3-2.2,4.3-5.4
			c0-2.8-1.5-5.2-4.2-5.2c-1.7,0-3.4,1.3-3.9,3.2c-0.1,0.3-0.2,0.7-0.2,1V552.7z"/>
		<path d="M781.9,540.4c0,0.9-0.6,1.6-1.6,1.6c-0.9,0-1.5-0.7-1.5-1.6c0-0.9,0.7-1.6,1.6-1.6C781.3,538.8,781.9,539.5,781.9,540.4z
			 M779,558.5v-14.1h2.6v14.1H779z"/>
		<path d="M788.9,540.3v4.1h3.7v2h-3.7v7.6c0,1.7,0.5,2.7,1.9,2.7c0.7,0,1.2-0.1,1.5-0.2l0.1,1.9c-0.5,0.2-1.3,0.3-2.3,0.3
			c-1.2,0-2.2-0.4-2.8-1.1c-0.7-0.8-1-2-1-3.7v-7.7h-2.2v-2h2.2V541L788.9,540.3z"/>
		<path d="M803.3,558.5l-0.2-1.8H803c-0.8,1.1-2.3,2.1-4.3,2.1c-2.9,0-4.3-2-4.3-4.1c0-3.4,3-5.3,8.5-5.2v-0.3
			c0-1.2-0.3-3.3-3.2-3.3c-1.3,0-2.7,0.4-3.7,1l-0.6-1.7c1.2-0.8,2.9-1.3,4.6-1.3c4.3,0,5.4,2.9,5.4,5.8v5.3c0,1.2,0.1,2.4,0.2,3.4
			H803.3z M802.9,551.3c-2.8-0.1-6,0.4-6,3.2c0,1.7,1.1,2.4,2.4,2.4c1.8,0,3-1.2,3.4-2.4c0.1-0.3,0.1-0.6,0.1-0.8V551.3z"/>
		<path d="M812.5,540.3v4.1h3.7v2h-3.7v7.6c0,1.7,0.5,2.7,1.9,2.7c0.7,0,1.2-0.1,1.5-0.2l0.1,1.9c-0.5,0.2-1.3,0.3-2.3,0.3
			c-1.2,0-2.2-0.4-2.8-1.1c-0.7-0.8-1-2-1-3.7v-7.7h-2.2v-2h2.2V541L812.5,540.3z"/>
		<path d="M821.9,540.4c0,0.9-0.6,1.6-1.6,1.6c-0.9,0-1.5-0.7-1.5-1.6c0-0.9,0.7-1.6,1.6-1.6C821.3,538.8,821.9,539.5,821.9,540.4z
			 M819.1,558.5v-14.1h2.6v14.1H819.1z"/>
		<path d="M838.6,551.3c0,5.2-3.6,7.5-7,7.5c-3.8,0-6.8-2.8-6.8-7.3c0-4.7,3.1-7.5,7-7.5C835.9,544.1,838.6,547,838.6,551.3z
			 M827.4,551.5c0,3.1,1.8,5.4,4.3,5.4c2.4,0,4.3-2.3,4.3-5.5c0-2.4-1.2-5.4-4.2-5.4C828.8,546,827.4,548.8,827.4,551.5z"/>
		<path d="M841.9,548.2c0-1.5,0-2.7-0.1-3.8h2.3l0.1,2.3h0.1c0.7-1.3,2.3-2.7,4.7-2.7c2,0,5,1.2,5,6v8.4h-2.6v-8.1
			c0-2.3-0.8-4.2-3.3-4.2c-1.7,0-3,1.2-3.4,2.6c-0.1,0.3-0.2,0.8-0.2,1.2v8.5h-2.6V548.2z"/>
	</g>
	<g>
		<path d="M452.9,652.9h10.6v2.1h-8v6.5h7.4v2.1h-7.4v8.9h-2.5V652.9z"/>
		<path d="M467.1,653.2c1.5-0.2,3.4-0.4,5.4-0.4c3.6,0,6.2,0.8,8,2.4c1.7,1.6,2.8,3.9,2.8,7.1c0,3.2-1,5.8-2.8,7.6
			c-1.8,1.8-4.9,2.8-8.7,2.8c-1.8,0-3.3-0.1-4.6-0.2V653.2z M469.7,670.5c0.6,0.1,1.6,0.1,2.6,0.1c5.4,0,8.4-3,8.4-8.3
			c0-4.6-2.6-7.6-8-7.6c-1.3,0-2.3,0.1-3,0.3V670.5z"/>
		<path d="M485.6,672.5V671l2-2c4.8-4.6,7-7.1,7.1-9.9c0-1.9-0.9-3.7-3.8-3.7c-1.7,0-3.1,0.9-4,1.6l-0.8-1.8
			c1.3-1.1,3.2-1.9,5.4-1.9c4.1,0,5.8,2.8,5.8,5.5c0,3.5-2.5,6.3-6.5,10.2l-1.5,1.4v0.1h8.5v2.1H485.6z"/>
		<path d="M504.7,666.4l-2,6.2H500l6.7-19.6h3.1l6.7,19.6h-2.7l-2.1-6.2H504.7z M511.1,664.4l-1.9-5.7c-0.4-1.3-0.7-2.4-1-3.6h-0.1
			c-0.3,1.2-0.6,2.4-1,3.6l-1.9,5.7H511.1z"/>
		<path d="M529.7,655.7h-7.2l-0.7,4.9c0.4-0.1,0.8-0.1,1.5-0.1c1.5,0,2.9,0.3,4.1,1c1.5,0.8,2.7,2.5,2.7,4.9c0,3.7-2.9,6.5-7.1,6.5
			c-2.1,0-3.8-0.6-4.7-1.2l0.6-2c0.8,0.5,2.3,1,4,1c2.4,0,4.5-1.6,4.5-4.1c0-2.4-1.7-4.2-5.4-4.2c-1.1,0-1.9,0.1-2.6,0.2l1.2-9.1
			h9.1V655.7z"/>
		<path d="M537.4,666.4l-2,6.2h-2.6l6.7-19.6h3.1l6.7,19.6h-2.7l-2.1-6.2H537.4z M543.9,664.4l-1.9-5.7c-0.4-1.3-0.7-2.4-1-3.6h-0.1
			c-0.3,1.2-0.6,2.4-1,3.6l-1.9,5.7H543.9z"/>
		<path d="M564.1,663.7v1.9h-7.2v-1.9H564.1z"/>
		<path d="M575.9,652.9v8.2h9.5v-8.2h2.6v19.6h-2.6v-9.2h-9.5v9.2h-2.5v-19.6H575.9z"/>
		<path d="M593.7,665.9c0.1,3.5,2.3,4.9,4.8,4.9c1.8,0,2.9-0.3,3.9-0.7l0.4,1.8c-0.9,0.4-2.4,0.9-4.7,0.9c-4.3,0-6.9-2.9-6.9-7.1
			c0-4.3,2.5-7.6,6.6-7.6c4.6,0,5.8,4.1,5.8,6.6c0,0.5-0.1,0.9-0.1,1.2H593.7z M601.2,664.1c0-1.6-0.7-4.2-3.6-4.2
			c-2.6,0-3.7,2.4-3.9,4.2H601.2z"/>
		<path d="M614.7,672.5l-0.2-1.8h-0.1c-0.8,1.1-2.3,2.1-4.3,2.1c-2.9,0-4.3-2-4.3-4.1c0-3.4,3-5.3,8.5-5.2v-0.3
			c0-1.2-0.3-3.3-3.2-3.3c-1.3,0-2.7,0.4-3.7,1l-0.6-1.7c1.2-0.8,2.9-1.3,4.6-1.3c4.3,0,5.4,2.9,5.4,5.8v5.3c0,1.2,0.1,2.4,0.2,3.4
			H614.7z M614.3,665.3c-2.8-0.1-6,0.4-6,3.2c0,1.7,1.1,2.4,2.4,2.4c1.8,0,3-1.2,3.4-2.4c0.1-0.3,0.1-0.6,0.1-0.8V665.3z"/>
		<path d="M621.7,658.4l2.8,7.9c0.5,1.3,0.8,2.4,1.1,3.6h0.1c0.3-1.2,0.7-2.3,1.2-3.6l2.7-7.9h2.7l-5.5,14.1h-2.4l-5.4-14.1H621.7z"
			/>
		<path d="M636,658.4l3.1,8.3c0.3,0.9,0.7,2,0.9,2.9h0.1c0.3-0.8,0.6-1.9,0.9-2.9l2.8-8.3h2.7l-3.8,10.1c-1.8,4.8-3.1,7.3-4.8,8.8
			c-1.3,1.1-2.5,1.5-3.1,1.7l-0.6-2.2c0.6-0.2,1.5-0.6,2.2-1.3c0.7-0.6,1.6-1.5,2.2-2.9c0.1-0.3,0.2-0.5,0.2-0.6s-0.1-0.3-0.2-0.7
			l-5.2-13H636z"/>
		<path d="M655,653.1c1.2-0.2,2.8-0.4,4.9-0.4c2.5,0,4.3,0.6,5.5,1.6c1.1,0.9,1.7,2.4,1.7,4.1c0,1.8-0.5,3.2-1.5,4.2
			c-1.3,1.4-3.5,2.2-6,2.2c-0.8,0-1.5,0-2-0.2v7.9H655V653.1z M657.6,662.6c0.6,0.1,1.3,0.2,2.1,0.2c3.1,0,4.9-1.5,4.9-4.2
			c0-2.6-1.8-3.8-4.6-3.8c-1.1,0-2,0.1-2.4,0.2V662.6z"/>
		<path d="M670,662.8c0-1.7,0-3.1-0.1-4.4h2.2l0.1,2.8h0.1c0.6-1.9,2.2-3.1,3.9-3.1c0.3,0,0.5,0,0.7,0.1v2.4
			c-0.3-0.1-0.5-0.1-0.9-0.1c-1.8,0-3.1,1.4-3.4,3.3c-0.1,0.3-0.1,0.8-0.1,1.2v7.5H670V662.8z"/>
		<path d="M680.6,665.9c0.1,3.5,2.3,4.9,4.8,4.9c1.8,0,2.9-0.3,3.9-0.7l0.4,1.8c-0.9,0.4-2.4,0.9-4.7,0.9c-4.3,0-6.9-2.9-6.9-7.1
			c0-4.3,2.5-7.6,6.6-7.6c4.6,0,5.8,4.1,5.8,6.6c0,0.5-0.1,0.9-0.1,1.2H680.6z M688.2,664.1c0-1.6-0.7-4.2-3.6-4.2
			c-2.6,0-3.7,2.4-3.9,4.2H688.2z"/>
		<path d="M703.9,672c-0.7,0.3-2.2,0.8-4,0.8c-4.3,0-7-2.9-7-7.2c0-4.3,3-7.5,7.6-7.5c1.5,0,2.9,0.4,3.6,0.7l-0.6,2
			c-0.6-0.3-1.6-0.7-3-0.7c-3.2,0-5,2.4-5,5.3c0,3.3,2.1,5.3,4.9,5.3c1.5,0,2.4-0.4,3.1-0.7L703.9,672z"/>
		<path d="M709.7,654.5c0,0.9-0.6,1.6-1.6,1.6c-0.9,0-1.5-0.7-1.5-1.6c0-0.9,0.7-1.6,1.6-1.6C709.1,652.9,709.7,653.6,709.7,654.5z
			 M706.9,672.5v-14.1h2.6v14.1H706.9z"/>
		<path d="M713.7,663c0-1.8-0.1-3.3-0.1-4.6h2.3l0.1,2.4h0.1c1-1.7,2.7-2.7,5-2.7c3.4,0,6,2.9,6,7.2c0,5.1-3.1,7.6-6.4,7.6
			c-1.9,0-3.5-0.8-4.3-2.2h-0.1v7.7h-2.5V663z M716.2,666.8c0,0.4,0.1,0.7,0.1,1c0.5,1.8,2,3,3.8,3c2.7,0,4.3-2.2,4.3-5.4
			c0-2.8-1.5-5.2-4.2-5.2c-1.7,0-3.4,1.3-3.9,3.2c-0.1,0.3-0.2,0.7-0.2,1V666.8z"/>
		<path d="M733.1,654.5c0,0.9-0.6,1.6-1.6,1.6c-0.9,0-1.5-0.7-1.5-1.6c0-0.9,0.7-1.6,1.6-1.6C732.5,652.9,733.1,653.6,733.1,654.5z
			 M730.3,672.5v-14.1h2.6v14.1H730.3z"/>
		<path d="M740.2,654.4v4.1h3.7v2h-3.7v7.6c0,1.7,0.5,2.7,1.9,2.7c0.7,0,1.2-0.1,1.5-0.2l0.1,1.9c-0.5,0.2-1.3,0.3-2.3,0.3
			c-1.2,0-2.2-0.4-2.8-1.1c-0.7-0.8-1-2-1-3.7v-7.7h-2.2v-2h2.2V655L740.2,654.4z"/>
		<path d="M754.5,672.5l-0.2-1.8h-0.1c-0.8,1.1-2.3,2.1-4.3,2.1c-2.9,0-4.3-2-4.3-4.1c0-3.4,3-5.3,8.5-5.2v-0.3
			c0-1.2-0.3-3.3-3.2-3.3c-1.3,0-2.7,0.4-3.7,1l-0.6-1.7c1.2-0.8,2.9-1.3,4.6-1.3c4.3,0,5.4,2.9,5.4,5.8v5.3c0,1.2,0.1,2.4,0.2,3.4
			H754.5z M754.1,665.3c-2.8-0.1-6,0.4-6,3.2c0,1.7,1.1,2.4,2.4,2.4c1.8,0,3-1.2,3.4-2.4c0.1-0.3,0.1-0.6,0.1-0.8V665.3z"/>
		<path d="M763.7,654.4v4.1h3.7v2h-3.7v7.6c0,1.7,0.5,2.7,1.9,2.7c0.7,0,1.2-0.1,1.5-0.2l0.1,1.9c-0.5,0.2-1.3,0.3-2.3,0.3
			c-1.2,0-2.2-0.4-2.8-1.1c-0.7-0.8-1-2-1-3.7v-7.7H759v-2h2.2V655L763.7,654.4z"/>
		<path d="M773.1,654.5c0,0.9-0.6,1.6-1.6,1.6c-0.9,0-1.5-0.7-1.5-1.6c0-0.9,0.7-1.6,1.6-1.6C772.5,652.9,773.1,653.6,773.1,654.5z
			 M770.3,672.5v-14.1h2.6v14.1H770.3z"/>
		<path d="M789.9,665.4c0,5.2-3.6,7.5-7,7.5c-3.8,0-6.8-2.8-6.8-7.3c0-4.7,3.1-7.5,7-7.5C787.1,658.1,789.9,661,789.9,665.4z
			 M778.7,665.5c0,3.1,1.8,5.4,4.3,5.4c2.4,0,4.3-2.3,4.3-5.5c0-2.4-1.2-5.4-4.2-5.4C780,660,778.7,662.8,778.7,665.5z"/>
		<path d="M793.1,662.2c0-1.5,0-2.7-0.1-3.8h2.3l0.1,2.3h0.1c0.7-1.3,2.3-2.7,4.7-2.7c2,0,5,1.2,5,6v8.4h-2.6v-8.1
			c0-2.3-0.8-4.2-3.3-4.2c-1.7,0-3,1.2-3.4,2.6c-0.1,0.3-0.2,0.8-0.2,1.2v8.5h-2.6V662.2z"/>
	</g>
	<g>
		<path d="M452.9,47.1c1.5-0.2,3.4-0.4,5.4-0.4c3.6,0,6.2,0.8,8,2.4c1.7,1.6,2.8,3.9,2.8,7.1c0,3.2-1,5.8-2.8,7.6
			c-1.8,1.8-4.9,2.8-8.7,2.8c-1.8,0-3.3-0.1-4.6-0.2V47.1z M455.5,64.5c0.6,0.1,1.6,0.1,2.6,0.1c5.4,0,8.4-3,8.4-8.3
			c0-4.6-2.6-7.6-8-7.6c-1.3,0-2.3,0.1-3,0.3V64.5z"/>
		<path d="M486.1,65.9c-0.9,0.5-2.8,0.9-5.2,0.9c-5.5,0-9.7-3.5-9.7-9.9c0-6.1,4.2-10.3,10.3-10.3c2.4,0,4,0.5,4.7,0.9l-0.6,2.1
			c-1-0.5-2.3-0.8-4-0.8c-4.6,0-7.7,2.9-7.7,8.1c0,4.8,2.8,7.9,7.5,7.9c1.5,0,3.1-0.3,4.1-0.8L486.1,65.9z"/>
		<path d="M499.4,57.3h-7.6v7.1h8.5v2.1h-11V46.9h10.6V49h-8.1v6.2h7.6V57.3z"/>
		<path d="M503.3,63.6c0.7,0.5,2.4,1.2,4.2,1.2c3.3,0,4.3-2.1,4.3-3.7c0-2.7-2.4-3.8-4.9-3.8h-1.4v-1.9h1.4c1.9,0,4.2-1,4.2-3.2
			c0-1.5-1-2.9-3.3-2.9c-1.5,0-3,0.7-3.8,1.3l-0.7-1.9c1-0.7,2.9-1.5,5-1.5c3.7,0,5.4,2.2,5.4,4.5c0,2-1.2,3.6-3.5,4.5v0.1
			c2.3,0.5,4.2,2.2,4.2,4.9c0,3-2.4,5.7-6.9,5.7c-2.1,0-4-0.7-4.9-1.3L503.3,63.6z"/>
		<path d="M518.5,46.9h10.6V49h-8v6.5h7.4v2.1h-7.4v8.9h-2.5V46.9z"/>
		<path d="M542.6,49.4c-0.5,0-1.2,0-1.9,0.1c-4,0.7-6.1,3.6-6.6,6.7h0.1c0.9-1.2,2.5-2.2,4.6-2.2c3.4,0,5.7,2.4,5.7,6.1
			c0,3.5-2.4,6.7-6.3,6.7c-4,0-6.7-3.1-6.7-8.1c0-3.7,1.3-6.7,3.2-8.5c1.6-1.5,3.7-2.5,6.1-2.8c0.8-0.1,1.4-0.1,1.9-0.1V49.4z
			 M541.9,60.3c0-2.7-1.5-4.3-3.9-4.3c-1.5,0-3,1-3.7,2.3c-0.2,0.3-0.3,0.7-0.3,1.1c0.1,3.1,1.5,5.4,4.2,5.4
			C540.4,64.8,541.9,63,541.9,60.3z"/>
		<path d="M559.7,57.7v1.9h-7.2v-1.9H559.7z"/>
		<path d="M572.2,66.5l-6.4-19.6h2.7l3.1,9.7c0.8,2.7,1.6,5,2.1,7.3h0.1c0.6-2.3,1.4-4.7,2.2-7.3l3.3-9.7h2.7l-7,19.6H572.2z"/>
		<path d="M584.5,59.9c0.1,3.5,2.3,4.9,4.8,4.9c1.8,0,2.9-0.3,3.9-0.7l0.4,1.8c-0.9,0.4-2.4,0.9-4.7,0.9c-4.3,0-6.9-2.9-6.9-7.1
			c0-4.3,2.5-7.6,6.6-7.6c4.6,0,5.8,4.1,5.8,6.6c0,0.5-0.1,0.9-0.1,1.2H584.5z M592.1,58.1c0-1.6-0.7-4.2-3.6-4.2
			c-2.6,0-3.7,2.4-3.9,4.2H592.1z"/>
		<path d="M597.7,56.8c0-1.7,0-3.1-0.1-4.4h2.2l0.1,2.8h0.1c0.6-1.9,2.2-3.1,3.9-3.1c0.3,0,0.5,0,0.7,0.1v2.4
			c-0.3-0.1-0.5-0.1-0.9-0.1c-1.8,0-3.1,1.4-3.4,3.3c-0.1,0.3-0.1,0.8-0.1,1.2v7.5h-2.5V56.8z"/>
		<path d="M608.9,52.4l3.1,8.3c0.3,0.9,0.7,2,0.9,2.9h0.1c0.3-0.8,0.6-1.9,0.9-2.9l2.8-8.3h2.7l-3.8,10.1c-1.8,4.8-3.1,7.3-4.8,8.8
			c-1.3,1.1-2.5,1.5-3.1,1.7l-0.6-2.2c0.6-0.2,1.5-0.6,2.2-1.3c0.7-0.6,1.6-1.5,2.2-2.9c0.1-0.3,0.2-0.5,0.2-0.6
			c0-0.1-0.1-0.3-0.2-0.7l-5.2-13H608.9z"/>
		<path d="M627.9,46.9h2.5v17.5h8.4v2.1h-10.9V46.9z"/>
		<path d="M654,59.3c0,5.2-3.6,7.5-7,7.5c-3.8,0-6.8-2.8-6.8-7.3c0-4.7,3.1-7.5,7-7.5C651.2,52.1,654,55,654,59.3z M642.8,59.5
			c0,3.1,1.8,5.4,4.3,5.4c2.4,0,4.3-2.3,4.3-5.5c0-2.4-1.2-5.4-4.2-5.4C644.1,54,642.8,56.8,642.8,59.5z"/>
		<path d="M658,52.4l1.9,7.2c0.4,1.6,0.8,3,1,4.5h0.1c0.3-1.4,0.8-2.9,1.3-4.5l2.3-7.2h2.2l2.2,7.1c0.5,1.7,0.9,3.2,1.3,4.6h0.1
			c0.2-1.4,0.6-2.9,1.1-4.6l2-7.1h2.5l-4.5,14.1H669l-2.2-6.7c-0.5-1.6-0.9-3-1.3-4.6h-0.1c-0.3,1.7-0.8,3.1-1.3,4.7l-2.3,6.7h-2.3
			l-4.3-14.1H658z"/>
		<path d="M684.7,47.1c1.2-0.2,2.8-0.4,4.9-0.4c2.5,0,4.3,0.6,5.5,1.6c1.1,0.9,1.7,2.4,1.7,4.1c0,1.8-0.5,3.2-1.5,4.2
			c-1.3,1.4-3.5,2.2-6,2.2c-0.8,0-1.5,0-2-0.2v7.9h-2.5V47.1z M687.2,56.6c0.6,0.1,1.3,0.2,2.1,0.2c3.1,0,4.9-1.5,4.9-4.2
			c0-2.6-1.8-3.8-4.6-3.8c-1.1,0-2,0.1-2.4,0.2V56.6z"/>
		<path d="M699.6,56.8c0-1.7,0-3.1-0.1-4.4h2.2l0.1,2.8h0.1c0.6-1.9,2.2-3.1,3.9-3.1c0.3,0,0.5,0,0.7,0.1v2.4
			c-0.3-0.1-0.5-0.1-0.9-0.1c-1.8,0-3.1,1.4-3.4,3.3c-0.1,0.3-0.1,0.8-0.1,1.2v7.5h-2.5V56.8z"/>
		<path d="M710.3,59.9c0.1,3.5,2.3,4.9,4.8,4.9c1.8,0,2.9-0.3,3.9-0.7l0.4,1.8c-0.9,0.4-2.4,0.9-4.7,0.9c-4.3,0-6.9-2.9-6.9-7.1
			c0-4.3,2.5-7.6,6.6-7.6c4.6,0,5.8,4.1,5.8,6.6c0,0.5-0.1,0.9-0.1,1.2H710.3z M717.8,58.1c0-1.6-0.7-4.2-3.6-4.2
			c-2.6,0-3.7,2.4-3.9,4.2H717.8z"/>
		<path d="M733.5,66c-0.7,0.3-2.2,0.8-4,0.8c-4.3,0-7-2.9-7-7.2c0-4.3,3-7.5,7.6-7.5c1.5,0,2.9,0.4,3.6,0.7l-0.6,2
			c-0.6-0.3-1.6-0.7-3-0.7c-3.2,0-5,2.4-5,5.3c0,3.3,2.1,5.3,4.9,5.3c1.5,0,2.4-0.4,3.1-0.7L733.5,66z"/>
		<path d="M739.4,48.4c0,0.9-0.6,1.6-1.6,1.6c-0.9,0-1.5-0.7-1.5-1.6c0-0.9,0.7-1.6,1.6-1.6C738.8,46.8,739.4,47.5,739.4,48.4z
			 M736.5,66.5V52.4h2.6v14.1H736.5z"/>
		<path d="M743.3,57c0-1.8-0.1-3.3-0.1-4.6h2.3l0.1,2.4h0.1c1-1.7,2.7-2.7,5-2.7c3.4,0,6,2.9,6,7.2c0,5.1-3.1,7.6-6.4,7.6
			c-1.9,0-3.5-0.8-4.3-2.2h-0.1v7.7h-2.5V57z M745.9,60.8c0,0.4,0.1,0.7,0.1,1c0.5,1.8,2,3,3.8,3c2.7,0,4.3-2.2,4.3-5.4
			c0-2.8-1.5-5.2-4.2-5.2c-1.7,0-3.4,1.3-3.9,3.2c-0.1,0.3-0.2,0.7-0.2,1V60.8z"/>
		<path d="M762.8,48.4c0,0.9-0.6,1.6-1.6,1.6c-0.9,0-1.5-0.7-1.5-1.6c0-0.9,0.7-1.6,1.6-1.6C762.2,46.8,762.8,47.5,762.8,48.4z
			 M759.9,66.5V52.4h2.6v14.1H759.9z"/>
		<path d="M769.8,48.4v4.1h3.7v2h-3.7V62c0,1.7,0.5,2.7,1.9,2.7c0.7,0,1.2-0.1,1.5-0.2l0.1,1.9c-0.5,0.2-1.3,0.3-2.3,0.3
			c-1.2,0-2.2-0.4-2.8-1.1c-0.7-0.8-1-2-1-3.7v-7.7h-2.2v-2h2.2V49L769.8,48.4z"/>
		<path d="M784.2,66.5l-0.2-1.8h-0.1c-0.8,1.1-2.3,2.1-4.3,2.1c-2.9,0-4.3-2-4.3-4.1c0-3.4,3-5.3,8.5-5.2v-0.3
			c0-1.2-0.3-3.3-3.2-3.3c-1.3,0-2.7,0.4-3.7,1l-0.6-1.7c1.2-0.8,2.9-1.3,4.6-1.3c4.3,0,5.4,2.9,5.4,5.8v5.3c0,1.2,0.1,2.4,0.2,3.4
			H784.2z M783.8,59.3c-2.8-0.1-6,0.4-6,3.2c0,1.7,1.1,2.4,2.4,2.4c1.8,0,3-1.2,3.4-2.4c0.1-0.3,0.1-0.6,0.1-0.8V59.3z"/>
		<path d="M793.4,48.4v4.1h3.7v2h-3.7V62c0,1.7,0.5,2.7,1.9,2.7c0.7,0,1.2-0.1,1.5-0.2l0.1,1.9c-0.5,0.2-1.3,0.3-2.3,0.3
			c-1.2,0-2.2-0.4-2.8-1.1c-0.7-0.8-1-2-1-3.7v-7.7h-2.2v-2h2.2V49L793.4,48.4z"/>
		<path d="M802.8,48.4c0,0.9-0.6,1.6-1.6,1.6c-0.9,0-1.5-0.7-1.5-1.6c0-0.9,0.7-1.6,1.6-1.6C802.2,46.8,802.8,47.5,802.8,48.4z
			 M799.9,66.5V52.4h2.6v14.1H799.9z"/>
		<path d="M819.5,59.3c0,5.2-3.6,7.5-7,7.5c-3.8,0-6.8-2.8-6.8-7.3c0-4.7,3.1-7.5,7-7.5C816.8,52.1,819.5,55,819.5,59.3z
			 M808.3,59.5c0,3.1,1.8,5.4,4.3,5.4c2.4,0,4.3-2.3,4.3-5.5c0-2.4-1.2-5.4-4.2-5.4C809.6,54,808.3,56.8,808.3,59.5z"/>
		<path d="M822.8,56.2c0-1.5,0-2.7-0.1-3.8h2.3l0.1,2.3h0.1c0.7-1.3,2.3-2.7,4.7-2.7c2,0,5,1.2,5,6v8.4h-2.6v-8.1
			c0-2.3-0.8-4.2-3.3-4.2c-1.7,0-3,1.2-3.4,2.6c-0.1,0.3-0.2,0.8-0.2,1.2v8.5h-2.6V56.2z"/>
	</g>
	<g>
		<path d="M452.9,181h10.6v2.1h-8v6.5h7.4v2.1h-7.4v8.9h-2.5V181z"/>
		<path d="M467.1,181h10.6v2.1h-8v6.5h7.4v2.1h-7.4v8.9h-2.5V181z"/>
		<path d="M481.3,181h10.6v2.1h-8v6.5h7.4v2.1h-7.4v8.9h-2.5V181z"/>
		<path d="M505.4,183.5c-0.5,0-1.2,0-1.9,0.1c-4,0.7-6.1,3.6-6.6,6.7h0.1c0.9-1.2,2.5-2.2,4.6-2.2c3.4,0,5.7,2.4,5.7,6.1
			c0,3.5-2.4,6.7-6.3,6.7c-4,0-6.7-3.1-6.7-8.1c0-3.7,1.3-6.7,3.2-8.5c1.6-1.5,3.7-2.5,6.1-2.8c0.8-0.1,1.4-0.1,1.9-0.1V183.5z
			 M504.7,194.4c0-2.7-1.5-4.3-3.9-4.3c-1.5,0-3,1-3.7,2.3c-0.2,0.3-0.3,0.7-0.3,1.1c0.1,3.1,1.5,5.4,4.2,5.4
			C503.2,198.9,504.7,197.1,504.7,194.4z"/>
		<path d="M520.4,183.5c-0.5,0-1.2,0-1.9,0.1c-4,0.7-6.1,3.6-6.6,6.7h0.1c0.9-1.2,2.5-2.2,4.6-2.2c3.4,0,5.7,2.4,5.7,6.1
			c0,3.5-2.4,6.7-6.3,6.7c-4,0-6.7-3.1-6.7-8.1c0-3.7,1.3-6.7,3.2-8.5c1.6-1.5,3.7-2.5,6.1-2.8c0.8-0.1,1.4-0.1,1.9-0.1V183.5z
			 M519.6,194.4c0-2.7-1.5-4.3-3.9-4.3c-1.5,0-3,1-3.7,2.3c-0.2,0.3-0.3,0.7-0.3,1.1c0.1,3.1,1.5,5.4,4.2,5.4
			C518.1,198.9,519.6,197.1,519.6,194.4z"/>
		<path d="M535.3,183.5c-0.5,0-1.2,0-1.9,0.1c-4,0.7-6.1,3.6-6.6,6.7h0.1c0.9-1.2,2.5-2.2,4.6-2.2c3.4,0,5.7,2.4,5.7,6.1
			c0,3.5-2.4,6.7-6.3,6.7c-4,0-6.7-3.1-6.7-8.1c0-3.7,1.3-6.7,3.2-8.5c1.6-1.5,3.7-2.5,6.1-2.8c0.8-0.1,1.4-0.1,1.9-0.1V183.5z
			 M534.6,194.4c0-2.7-1.5-4.3-3.9-4.3c-1.5,0-3,1-3.7,2.3c-0.2,0.3-0.3,0.7-0.3,1.1c0.1,3.1,1.5,5.4,4.2,5.4
			C533.1,198.9,534.6,197.1,534.6,194.4z"/>
		<path d="M552.4,191.8v1.9h-7.2v-1.9H552.4z"/>
		<path d="M561.6,181h2.5v17.5h8.4v2.1h-10.9V181z"/>
		<path d="M587.7,193.4c0,5.2-3.6,7.5-7,7.5c-3.8,0-6.8-2.8-6.8-7.3c0-4.7,3.1-7.5,7-7.5C584.9,186.2,587.7,189.1,587.7,193.4z
			 M576.5,193.6c0,3.1,1.8,5.4,4.3,5.4c2.4,0,4.3-2.3,4.3-5.5c0-2.4-1.2-5.4-4.2-5.4C577.8,188.1,576.5,190.9,576.5,193.6z"/>
		<path d="M591.7,186.5l1.9,7.2c0.4,1.6,0.8,3,1,4.5h0.1c0.3-1.4,0.8-2.9,1.3-4.5l2.3-7.2h2.2l2.2,7.1c0.5,1.7,0.9,3.2,1.3,4.6h0.1
			c0.2-1.4,0.6-2.9,1.1-4.6l2-7.1h2.5l-4.5,14.1h-2.3l-2.2-6.7c-0.5-1.6-0.9-3-1.3-4.6h-0.1c-0.3,1.7-0.8,3.1-1.3,4.7l-2.3,6.7h-2.3
			l-4.3-14.1H591.7z"/>
		<path d="M618.4,181.2c1.2-0.2,2.8-0.4,4.9-0.4c2.5,0,4.3,0.6,5.5,1.6c1.1,0.9,1.7,2.4,1.7,4.1c0,1.8-0.5,3.2-1.5,4.2
			c-1.3,1.4-3.5,2.2-6,2.2c-0.8,0-1.5,0-2-0.2v7.9h-2.5V181.2z M620.9,190.7c0.6,0.1,1.3,0.2,2.1,0.2c3.1,0,4.9-1.5,4.9-4.2
			c0-2.6-1.8-3.8-4.6-3.8c-1.1,0-2,0.1-2.4,0.2V190.7z"/>
		<path d="M633.3,190.9c0-1.7,0-3.1-0.1-4.4h2.2l0.1,2.8h0.1c0.6-1.9,2.2-3.1,3.9-3.1c0.3,0,0.5,0,0.7,0.1v2.4
			c-0.3-0.1-0.5-0.1-0.9-0.1c-1.8,0-3.1,1.4-3.4,3.3c-0.1,0.3-0.1,0.8-0.1,1.2v7.5h-2.5V190.9z"/>
		<path d="M644,194c0.1,3.5,2.3,4.9,4.8,4.9c1.8,0,2.9-0.3,3.9-0.7l0.4,1.8c-0.9,0.4-2.4,0.9-4.7,0.9c-4.3,0-6.9-2.9-6.9-7.1
			c0-4.3,2.5-7.6,6.6-7.6c4.6,0,5.8,4.1,5.8,6.6c0,0.5-0.1,0.9-0.1,1.2H644z M651.5,192.2c0-1.6-0.7-4.2-3.6-4.2
			c-2.6,0-3.7,2.4-3.9,4.2H651.5z"/>
		<path d="M667.2,200.1c-0.7,0.3-2.2,0.8-4,0.8c-4.3,0-7-2.9-7-7.2c0-4.3,3-7.5,7.6-7.5c1.5,0,2.9,0.4,3.6,0.7l-0.6,2
			c-0.6-0.3-1.6-0.7-3-0.7c-3.2,0-5,2.4-5,5.3c0,3.3,2.1,5.3,4.9,5.3c1.5,0,2.4-0.4,3.1-0.7L667.2,200.1z"/>
		<path d="M673.1,182.5c0,0.9-0.6,1.6-1.6,1.6c-0.9,0-1.5-0.7-1.5-1.6c0-0.9,0.7-1.6,1.6-1.6C672.5,180.9,673.1,181.6,673.1,182.5z
			 M670.2,200.6v-14.1h2.6v14.1H670.2z"/>
		<path d="M677,191.1c0-1.8-0.1-3.3-0.1-4.6h2.3l0.1,2.4h0.1c1-1.7,2.7-2.7,5-2.7c3.4,0,6,2.9,6,7.2c0,5.1-3.1,7.6-6.4,7.6
			c-1.9,0-3.5-0.8-4.3-2.2h-0.1v7.7H677V191.1z M679.6,194.9c0,0.4,0.1,0.7,0.1,1c0.5,1.8,2,3,3.8,3c2.7,0,4.3-2.2,4.3-5.4
			c0-2.8-1.5-5.2-4.2-5.2c-1.7,0-3.4,1.3-3.9,3.2c-0.1,0.3-0.2,0.7-0.2,1V194.9z"/>
		<path d="M696.5,182.5c0,0.9-0.6,1.6-1.6,1.6c-0.9,0-1.5-0.7-1.5-1.6c0-0.9,0.7-1.6,1.6-1.6C695.9,180.9,696.5,181.6,696.5,182.5z
			 M693.6,200.6v-14.1h2.6v14.1H693.6z"/>
		<path d="M703.5,182.5v4.1h3.7v2h-3.7v7.6c0,1.7,0.5,2.7,1.9,2.7c0.7,0,1.2-0.1,1.5-0.2l0.1,1.9c-0.5,0.2-1.3,0.3-2.3,0.3
			c-1.2,0-2.2-0.4-2.8-1.1c-0.7-0.8-1-2-1-3.7v-7.7h-2.2v-2h2.2v-3.4L703.5,182.5z"/>
		<path d="M717.9,200.6l-0.2-1.8h-0.1c-0.8,1.1-2.3,2.1-4.3,2.1c-2.9,0-4.3-2-4.3-4.1c0-3.4,3-5.3,8.5-5.2v-0.3
			c0-1.2-0.3-3.3-3.2-3.3c-1.3,0-2.7,0.4-3.7,1l-0.6-1.7c1.2-0.8,2.9-1.3,4.6-1.3c4.3,0,5.4,2.9,5.4,5.8v5.3c0,1.2,0.1,2.4,0.2,3.4
			H717.9z M717.5,193.4c-2.8-0.1-6,0.4-6,3.2c0,1.7,1.1,2.4,2.4,2.4c1.8,0,3-1.2,3.4-2.4c0.1-0.3,0.1-0.6,0.1-0.8V193.4z"/>
		<path d="M727.1,182.5v4.1h3.7v2h-3.7v7.6c0,1.7,0.5,2.7,1.9,2.7c0.7,0,1.2-0.1,1.5-0.2l0.1,1.9c-0.5,0.2-1.3,0.3-2.3,0.3
			c-1.2,0-2.2-0.4-2.8-1.1c-0.7-0.8-1-2-1-3.7v-7.7h-2.2v-2h2.2v-3.4L727.1,182.5z"/>
		<path d="M736.5,182.5c0,0.9-0.6,1.6-1.6,1.6c-0.9,0-1.5-0.7-1.5-1.6c0-0.9,0.7-1.6,1.6-1.6C735.9,180.9,736.5,181.6,736.5,182.5z
			 M733.6,200.6v-14.1h2.6v14.1H733.6z"/>
		<path d="M753.2,193.4c0,5.2-3.6,7.5-7,7.5c-3.8,0-6.8-2.8-6.8-7.3c0-4.7,3.1-7.5,7-7.5C750.5,186.2,753.2,189.1,753.2,193.4z
			 M742,193.6c0,3.1,1.8,5.4,4.3,5.4c2.4,0,4.3-2.3,4.3-5.5c0-2.4-1.2-5.4-4.2-5.4C743.3,188.1,742,190.9,742,193.6z"/>
		<path d="M756.4,190.3c0-1.5,0-2.7-0.1-3.8h2.3l0.1,2.3h0.1c0.7-1.3,2.3-2.7,4.7-2.7c2,0,5,1.2,5,6v8.4h-2.6v-8.1
			c0-2.3-0.8-4.2-3.3-4.2c-1.7,0-3,1.2-3.4,2.6c-0.1,0.3-0.2,0.8-0.2,1.2v8.5h-2.6V190.3z"/>
	</g>
	<g>
		<path d="M463.3,306.3h-7.2l-0.7,4.9c0.4-0.1,0.8-0.1,1.5-0.1c1.5,0,2.9,0.3,4.1,1c1.5,0.8,2.7,2.5,2.7,4.9c0,3.7-2.9,6.5-7.1,6.5
			c-2.1,0-3.8-0.6-4.7-1.2l0.6-2c0.8,0.5,2.3,1,4,1c2.4,0,4.5-1.6,4.5-4.1c0-2.4-1.7-4.2-5.4-4.2c-1.1,0-1.9,0.1-2.6,0.2l1.2-9.1
			h9.1V306.3z"/>
		<path d="M466.8,318.3c0-2.4,1.4-4.1,3.8-5.1l0-0.1c-2.1-1-3-2.6-3-4.3c0-3,2.5-5,5.9-5c3.7,0,5.5,2.3,5.5,4.7
			c0,1.6-0.8,3.3-3.1,4.4v0.1c2.4,0.9,3.8,2.6,3.8,4.9c0,3.3-2.8,5.5-6.4,5.5C469.1,323.4,466.8,321,466.8,318.3z M476.9,318.1
			c0-2.3-1.6-3.4-4.2-4.1c-2.2,0.6-3.4,2.1-3.4,3.9c-0.1,1.9,1.4,3.6,3.8,3.6C475.5,321.5,476.9,320.1,476.9,318.1z M469.9,308.7
			c0,1.9,1.4,2.9,3.6,3.5c1.6-0.6,2.9-1.7,2.9-3.4c0-1.5-0.9-3.1-3.2-3.1C471.1,305.6,469.9,307,469.9,308.7z"/>
		<path d="M493,313.9h-7.6v7.1h8.5v2.1h-11v-19.6h10.6v2.1h-8.1v6.2h7.6V313.9z"/>
		<path d="M501.8,306.5L501.8,306.5l-3.4,1.8l-0.5-2l4.1-2.2h2.2v18.9h-2.5V306.5z"/>
		<path d="M511.2,323.1v-1.6l2-2c4.8-4.6,7-7.1,7.1-9.9c0-1.9-0.9-3.7-3.8-3.7c-1.7,0-3.1,0.9-4,1.6l-0.8-1.8
			c1.3-1.1,3.2-1.9,5.4-1.9c4.1,0,5.8,2.8,5.8,5.5c0,3.5-2.5,6.3-6.5,10.2l-1.5,1.4v0.1h8.5v2.1H511.2z"/>
		<path d="M534.1,323.1v-5.2h-8.8v-1.7l8.5-12.1h2.8v11.8h2.7v2h-2.7v5.2H534.1z M534.1,315.9v-6.3c0-1,0-2,0.1-3h-0.1
			c-0.6,1.1-1,1.9-1.6,2.8l-4.6,6.4v0.1H534.1z"/>
		<path d="M554,314.2v1.9h-7.2v-1.9H554z"/>
		<path d="M566.6,323.1l-6.4-19.6h2.7l3.1,9.7c0.8,2.7,1.6,5,2.1,7.3h0.1c0.6-2.3,1.4-4.7,2.2-7.3l3.3-9.7h2.7l-7,19.6H566.6z"/>
		<path d="M578.9,316.5c0.1,3.5,2.3,4.9,4.8,4.9c1.8,0,2.9-0.3,3.9-0.7l0.4,1.8c-0.9,0.4-2.4,0.9-4.7,0.9c-4.3,0-6.9-2.9-6.9-7.1
			c0-4.3,2.5-7.6,6.6-7.6c4.6,0,5.8,4.1,5.8,6.6c0,0.5-0.1,0.9-0.1,1.2H578.9z M586.4,314.6c0-1.6-0.7-4.2-3.6-4.2
			c-2.6,0-3.7,2.4-3.9,4.2H586.4z"/>
		<path d="M592.1,313.4c0-1.7,0-3.1-0.1-4.4h2.2l0.1,2.8h0.1c0.6-1.9,2.2-3.1,3.9-3.1c0.3,0,0.5,0,0.7,0.1v2.4
			c-0.3-0.1-0.5-0.1-0.9-0.1c-1.8,0-3.1,1.4-3.4,3.3c-0.1,0.3-0.1,0.8-0.1,1.2v7.5h-2.5V313.4z"/>
		<path d="M603.2,309l3.1,8.3c0.3,0.9,0.7,2,0.9,2.9h0.1c0.3-0.8,0.6-1.9,0.9-2.9l2.8-8.3h2.7l-3.8,10.1c-1.8,4.8-3.1,7.3-4.8,8.8
			c-1.3,1.1-2.5,1.5-3.1,1.7l-0.6-2.2c0.6-0.2,1.5-0.6,2.2-1.3c0.7-0.6,1.6-1.5,2.2-2.9c0.1-0.3,0.2-0.5,0.2-0.6
			c0-0.1-0.1-0.3-0.2-0.7l-5.2-13H603.2z"/>
		<path d="M638.8,314.4c-0.1-2.7-0.3-6-0.3-8.5h-0.1c-0.7,2.3-1.5,4.7-2.5,7.5l-3.5,9.5h-1.9l-3.2-9.4c-0.9-2.8-1.7-5.3-2.3-7.6
			h-0.1c-0.1,2.4-0.2,5.7-0.4,8.7l-0.5,8.4h-2.4l1.4-19.6h3.2l3.4,9.5c0.8,2.4,1.5,4.6,2,6.6h0.1c0.5-2,1.2-4.1,2.1-6.6l3.5-9.5h3.2
			l1.2,19.6h-2.5L638.8,314.4z"/>
		<path d="M658.6,315.9c0,5.2-3.6,7.5-7,7.5c-3.8,0-6.8-2.8-6.8-7.3c0-4.7,3.1-7.5,7-7.5C655.8,308.6,658.6,311.6,658.6,315.9z
			 M647.4,316c0,3.1,1.8,5.4,4.3,5.4c2.4,0,4.3-2.3,4.3-5.5c0-2.4-1.2-5.4-4.2-5.4C648.7,310.6,647.4,313.4,647.4,316z"/>
		<path d="M674,302.4v17c0,1.3,0,2.7,0.1,3.6h-2.3l-0.1-2.4h-0.1c-0.8,1.6-2.5,2.8-4.8,2.8c-3.4,0-6-2.9-6-7.2
			c0-4.7,2.9-7.6,6.3-7.6c2.2,0,3.6,1,4.3,2.2h0.1v-8.4H674z M671.4,314.7c0-0.3,0-0.8-0.1-1.1c-0.4-1.6-1.8-3-3.7-3
			c-2.7,0-4.2,2.3-4.2,5.4c0,2.9,1.4,5.2,4.2,5.2c1.7,0,3.3-1.1,3.8-3.1c0.1-0.3,0.1-0.7,0.1-1.1V314.7z"/>
		<path d="M679.7,316.5c0.1,3.5,2.3,4.9,4.8,4.9c1.8,0,2.9-0.3,3.9-0.7l0.4,1.8c-0.9,0.4-2.4,0.9-4.7,0.9c-4.3,0-6.9-2.9-6.9-7.1
			c0-4.3,2.5-7.6,6.6-7.6c4.6,0,5.8,4.1,5.8,6.6c0,0.5-0.1,0.9-0.1,1.2H679.7z M687.2,314.6c0-1.6-0.7-4.2-3.6-4.2
			c-2.6,0-3.7,2.4-3.9,4.2H687.2z"/>
		<path d="M692.8,313.4c0-1.7,0-3.1-0.1-4.4h2.2l0.1,2.8h0.1c0.6-1.9,2.2-3.1,3.9-3.1c0.3,0,0.5,0,0.7,0.1v2.4
			c-0.3-0.1-0.5-0.1-0.9-0.1c-1.8,0-3.1,1.4-3.4,3.3c-0.1,0.3-0.1,0.8-0.1,1.2v7.5h-2.5V313.4z"/>
		<path d="M710,323.1l-0.2-1.8h-0.1c-0.8,1.1-2.3,2.1-4.3,2.1c-2.9,0-4.3-2-4.3-4.1c0-3.4,3-5.3,8.5-5.2v-0.3c0-1.2-0.3-3.3-3.2-3.3
			c-1.3,0-2.7,0.4-3.7,1l-0.6-1.7c1.2-0.8,2.9-1.3,4.6-1.3c4.3,0,5.4,2.9,5.4,5.8v5.3c0,1.2,0.1,2.4,0.2,3.4H710z M709.6,315.9
			c-2.8-0.1-6,0.4-6,3.2c0,1.7,1.1,2.4,2.4,2.4c1.8,0,3-1.2,3.4-2.4c0.1-0.3,0.1-0.6,0.1-0.8V315.9z"/>
		<path d="M719.2,304.9v4.1h3.7v2h-3.7v7.6c0,1.7,0.5,2.7,1.9,2.7c0.7,0,1.2-0.1,1.5-0.2l0.1,1.9c-0.5,0.2-1.3,0.3-2.3,0.3
			c-1.2,0-2.2-0.4-2.8-1.1c-0.7-0.8-1-2-1-3.7v-7.7h-2.2v-2h2.2v-3.4L719.2,304.9z"/>
		<path d="M727,316.5c0.1,3.5,2.3,4.9,4.8,4.9c1.8,0,2.9-0.3,3.9-0.7l0.4,1.8c-0.9,0.4-2.4,0.9-4.7,0.9c-4.3,0-6.9-2.9-6.9-7.1
			c0-4.3,2.5-7.6,6.6-7.6c4.6,0,5.8,4.1,5.8,6.6c0,0.5-0.1,0.9-0.1,1.2H727z M734.5,314.6c0-1.6-0.7-4.2-3.6-4.2
			c-2.6,0-3.7,2.4-3.9,4.2H734.5z"/>
		<path d="M746.5,303.7c1.2-0.2,2.8-0.4,4.9-0.4c2.5,0,4.3,0.6,5.5,1.6c1.1,0.9,1.7,2.4,1.7,4.1c0,1.8-0.5,3.2-1.5,4.2
			c-1.3,1.4-3.5,2.2-6,2.2c-0.8,0-1.5,0-2-0.2v7.9h-2.5V303.7z M749,313.1c0.6,0.1,1.3,0.2,2.1,0.2c3.1,0,4.9-1.5,4.9-4.2
			c0-2.6-1.8-3.8-4.6-3.8c-1.1,0-2,0.1-2.4,0.2V313.1z"/>
		<path d="M761.4,313.4c0-1.7,0-3.1-0.1-4.4h2.2l0.1,2.8h0.1c0.6-1.9,2.2-3.1,3.9-3.1c0.3,0,0.5,0,0.7,0.1v2.4
			c-0.3-0.1-0.5-0.1-0.9-0.1c-1.8,0-3.1,1.4-3.4,3.3c-0.1,0.3-0.1,0.8-0.1,1.2v7.5h-2.5V313.4z"/>
		<path d="M772.1,316.5c0.1,3.5,2.3,4.9,4.8,4.9c1.8,0,2.9-0.3,3.9-0.7l0.4,1.8c-0.9,0.4-2.4,0.9-4.7,0.9c-4.3,0-6.9-2.9-6.9-7.1
			c0-4.3,2.5-7.6,6.6-7.6c4.6,0,5.8,4.1,5.8,6.6c0,0.5-0.1,0.9-0.1,1.2H772.1z M779.6,314.6c0-1.6-0.7-4.2-3.6-4.2
			c-2.6,0-3.7,2.4-3.9,4.2H779.6z"/>
		<path d="M795.3,322.5c-0.7,0.3-2.2,0.8-4,0.8c-4.3,0-7-2.9-7-7.2c0-4.3,3-7.5,7.6-7.5c1.5,0,2.9,0.4,3.6,0.7l-0.6,2
			c-0.6-0.3-1.6-0.7-3-0.7c-3.2,0-5,2.4-5,5.3c0,3.3,2.1,5.3,4.9,5.3c1.5,0,2.4-0.4,3.1-0.7L795.3,322.5z"/>
		<path d="M801.1,305c0,0.9-0.6,1.6-1.6,1.6c-0.9,0-1.5-0.7-1.5-1.6c0-0.9,0.7-1.6,1.6-1.6C800.5,303.4,801.1,304.1,801.1,305z
			 M798.3,323.1V309h2.6v14.1H798.3z"/>
		<path d="M805.1,313.6c0-1.8-0.1-3.3-0.1-4.6h2.3l0.1,2.4h0.1c1-1.7,2.7-2.7,5-2.7c3.4,0,6,2.9,6,7.2c0,5.1-3.1,7.6-6.4,7.6
			c-1.9,0-3.5-0.8-4.3-2.2h-0.1v7.7h-2.5V313.6z M807.6,317.3c0,0.4,0.1,0.7,0.1,1c0.5,1.8,2,3,3.8,3c2.7,0,4.3-2.2,4.3-5.4
			c0-2.8-1.5-5.2-4.2-5.2c-1.7,0-3.4,1.3-3.9,3.2c-0.1,0.3-0.2,0.7-0.2,1V317.3z"/>
		<path d="M824.5,305c0,0.9-0.6,1.6-1.6,1.6c-0.9,0-1.5-0.7-1.5-1.6c0-0.9,0.7-1.6,1.6-1.6C823.9,303.4,824.5,304.1,824.5,305z
			 M821.7,323.1V309h2.6v14.1H821.7z"/>
		<path d="M831.6,304.9v4.1h3.7v2h-3.7v7.6c0,1.7,0.5,2.7,1.9,2.7c0.7,0,1.2-0.1,1.5-0.2l0.1,1.9c-0.5,0.2-1.3,0.3-2.3,0.3
			c-1.2,0-2.2-0.4-2.8-1.1c-0.7-0.8-1-2-1-3.7v-7.7h-2.2v-2h2.2v-3.4L831.6,304.9z"/>
		<path d="M845.9,323.1l-0.2-1.8h-0.1c-0.8,1.1-2.3,2.1-4.3,2.1c-2.9,0-4.3-2-4.3-4.1c0-3.4,3-5.3,8.5-5.2v-0.3
			c0-1.2-0.3-3.3-3.2-3.3c-1.3,0-2.7,0.4-3.7,1l-0.6-1.7c1.2-0.8,2.9-1.3,4.6-1.3c4.3,0,5.4,2.9,5.4,5.8v5.3c0,1.2,0.1,2.4,0.2,3.4
			H845.9z M845.6,315.9c-2.8-0.1-6,0.4-6,3.2c0,1.7,1.1,2.4,2.4,2.4c1.8,0,3-1.2,3.4-2.4c0.1-0.3,0.1-0.6,0.1-0.8V315.9z"/>
		<path d="M855.2,304.9v4.1h3.7v2h-3.7v7.6c0,1.7,0.5,2.7,1.9,2.7c0.7,0,1.2-0.1,1.5-0.2l0.1,1.9c-0.5,0.2-1.3,0.3-2.3,0.3
			c-1.2,0-2.2-0.4-2.8-1.1c-0.7-0.8-1-2-1-3.7v-7.7h-2.2v-2h2.2v-3.4L855.2,304.9z"/>
		<path d="M864.6,305c0,0.9-0.6,1.6-1.6,1.6c-0.9,0-1.5-0.7-1.5-1.6c0-0.9,0.7-1.6,1.6-1.6C864,303.4,864.6,304.1,864.6,305z
			 M861.7,323.1V309h2.6v14.1H861.7z"/>
		<path d="M881.3,315.9c0,5.2-3.6,7.5-7,7.5c-3.8,0-6.8-2.8-6.8-7.3c0-4.7,3.1-7.5,7-7.5C878.5,308.6,881.3,311.6,881.3,315.9z
			 M870.1,316c0,3.1,1.8,5.4,4.3,5.4c2.4,0,4.3-2.3,4.3-5.5c0-2.4-1.2-5.4-4.2-5.4C871.4,310.6,870.1,313.4,870.1,316z"/>
		<path d="M884.5,312.8c0-1.5,0-2.7-0.1-3.8h2.3l0.1,2.3h0.1c0.7-1.3,2.3-2.7,4.7-2.7c2,0,5,1.2,5,6v8.4H894v-8.1
			c0-2.3-0.8-4.2-3.3-4.2c-1.7,0-3,1.2-3.4,2.6c-0.1,0.3-0.2,0.8-0.2,1.2v8.5h-2.6V312.8z"/>
	</g>
	<g>
		<path d="M456.1,436.4l-2,6.2h-2.6l6.7-19.6h3.1l6.7,19.6h-2.7l-2.1-6.2H456.1z M462.6,434.4l-1.9-5.7c-0.4-1.3-0.7-2.4-1-3.6h-0.1
			c-0.3,1.2-0.6,2.4-1,3.6l-1.9,5.7H462.6z"/>
		<path d="M471.4,440.8c0.6,0.1,1.2,0,2.1-0.1c1.5-0.2,2.9-0.8,4-1.8c1.3-1.1,2.2-2.8,2.5-5h-0.1c-1,1.3-2.6,2-4.5,2
			c-3.4,0-5.6-2.6-5.6-5.8c0-3.6,2.6-6.7,6.5-6.7c3.9,0,6.3,3.1,6.3,8c0,4.2-1.4,7.1-3.3,8.9c-1.5,1.4-3.5,2.3-5.5,2.5
			c-0.9,0.1-1.7,0.2-2.4,0.1V440.8z M472.3,429.9c0,2.4,1.4,4,3.6,4c1.7,0,3.1-0.8,3.7-2c0.1-0.2,0.2-0.5,0.2-0.9
			c0-3.2-1.2-5.7-3.9-5.7C473.8,425.3,472.3,427.2,472.3,429.9z"/>
		<path d="M486.3,440.8c0.6,0.1,1.2,0,2.1-0.1c1.5-0.2,2.9-0.8,4-1.8c1.3-1.1,2.2-2.8,2.5-5h-0.1c-1,1.3-2.6,2-4.5,2
			c-3.4,0-5.6-2.6-5.6-5.8c0-3.6,2.6-6.7,6.5-6.7c3.9,0,6.3,3.1,6.3,8c0,4.2-1.4,7.1-3.3,8.9c-1.5,1.4-3.5,2.3-5.5,2.5
			c-0.9,0.1-1.7,0.2-2.4,0.1V440.8z M487.2,429.9c0,2.4,1.4,4,3.6,4c1.7,0,3.1-0.8,3.7-2c0.1-0.2,0.2-0.5,0.2-0.9
			c0-3.2-1.2-5.7-3.9-5.7C488.8,425.3,487.2,427.2,487.2,429.9z"/>
		<path d="M507.7,442.6v-5.2h-8.8v-1.7l8.5-12.1h2.8v11.8h2.7v2h-2.7v5.2H507.7z M507.7,435.4v-6.3c0-1,0-2,0.1-3h-0.1
			c-0.6,1.1-1,1.9-1.6,2.8l-4.6,6.4v0.1H507.7z"/>
		<path d="M527,423.7v1.7l-8.2,17.2h-2.7l8.2-16.8v-0.1h-9.3v-2.1H527z"/>
		<path d="M531.1,440.8c0.6,0.1,1.2,0,2.1-0.1c1.5-0.2,2.9-0.8,4-1.8c1.3-1.1,2.2-2.8,2.5-5h-0.1c-1,1.3-2.6,2-4.5,2
			c-3.4,0-5.6-2.6-5.6-5.8c0-3.6,2.6-6.7,6.5-6.7c3.9,0,6.3,3.1,6.3,8c0,4.2-1.4,7.1-3.3,8.9c-1.5,1.4-3.5,2.3-5.5,2.5
			c-0.9,0.1-1.7,0.2-2.4,0.1V440.8z M532.1,429.9c0,2.4,1.4,4,3.6,4c1.7,0,3.1-0.8,3.7-2c0.1-0.2,0.2-0.5,0.2-0.9
			c0-3.2-1.2-5.7-3.9-5.7C533.6,425.3,532.1,427.2,532.1,429.9z"/>
		<path d="M557.5,433.8v1.9h-7.2v-1.9H557.5z"/>
		<path d="M583.3,434c-0.1-2.7-0.3-6-0.3-8.5H583c-0.7,2.3-1.5,4.7-2.5,7.5l-3.5,9.5h-1.9l-3.2-9.4c-0.9-2.8-1.7-5.3-2.3-7.6h-0.1
			c-0.1,2.4-0.2,5.7-0.4,8.7l-0.5,8.4h-2.4l1.4-19.6h3.2l3.4,9.5c0.8,2.4,1.5,4.6,2,6.6h0.1c0.5-2,1.2-4.1,2.1-6.6l3.5-9.5h3.2
			l1.2,19.6h-2.5L583.3,434z"/>
		<path d="M603.1,435.4c0,5.2-3.6,7.5-7,7.5c-3.8,0-6.8-2.8-6.8-7.3c0-4.7,3.1-7.5,7-7.5C600.3,428.2,603.1,431.1,603.1,435.4z
			 M591.9,435.6c0,3.1,1.8,5.4,4.3,5.4c2.4,0,4.3-2.3,4.3-5.5c0-2.4-1.2-5.4-4.2-5.4C593.2,430.1,591.9,432.9,591.9,435.6z"/>
		<path d="M618.5,421.9v17c0,1.3,0,2.7,0.1,3.6h-2.3l-0.1-2.4h-0.1c-0.8,1.6-2.5,2.8-4.8,2.8c-3.4,0-6-2.9-6-7.2
			c0-4.7,2.9-7.6,6.3-7.6c2.2,0,3.6,1,4.3,2.2h0.1v-8.4H618.5z M615.9,434.2c0-0.3,0-0.8-0.1-1.1c-0.4-1.6-1.8-3-3.7-3
			c-2.7,0-4.2,2.3-4.2,5.4c0,2.9,1.4,5.2,4.2,5.2c1.7,0,3.3-1.1,3.8-3.1c0.1-0.3,0.1-0.7,0.1-1.1V434.2z"/>
		<path d="M624.2,436c0.1,3.5,2.3,4.9,4.8,4.9c1.8,0,2.9-0.3,3.9-0.7l0.4,1.8c-0.9,0.4-2.4,0.9-4.7,0.9c-4.3,0-6.9-2.9-6.9-7.1
			s2.5-7.6,6.6-7.6c4.6,0,5.8,4.1,5.8,6.6c0,0.5-0.1,0.9-0.1,1.2H624.2z M631.7,434.2c0-1.6-0.7-4.2-3.6-4.2c-2.6,0-3.7,2.4-3.9,4.2
			H631.7z"/>
		<path d="M637.3,432.9c0-1.7,0-3.1-0.1-4.4h2.2l0.1,2.8h0.1c0.6-1.9,2.2-3.1,3.9-3.1c0.3,0,0.5,0,0.7,0.1v2.4
			c-0.3-0.1-0.5-0.1-0.9-0.1c-1.8,0-3.1,1.4-3.4,3.3c-0.1,0.3-0.1,0.8-0.1,1.2v7.5h-2.5V432.9z"/>
		<path d="M654.5,442.6l-0.2-1.8h-0.1c-0.8,1.1-2.3,2.1-4.3,2.1c-2.9,0-4.3-2-4.3-4.1c0-3.4,3-5.3,8.5-5.2v-0.3
			c0-1.2-0.3-3.3-3.2-3.3c-1.3,0-2.7,0.4-3.7,1l-0.6-1.7c1.2-0.8,2.9-1.3,4.6-1.3c4.3,0,5.4,2.9,5.4,5.8v5.3c0,1.2,0.1,2.4,0.2,3.4
			H654.5z M654.1,435.4c-2.8-0.1-6,0.4-6,3.2c0,1.7,1.1,2.4,2.4,2.4c1.8,0,3-1.2,3.4-2.4c0.1-0.3,0.1-0.6,0.1-0.8V435.4z"/>
		<path d="M663.7,424.4v4.1h3.7v2h-3.7v7.6c0,1.7,0.5,2.7,1.9,2.7c0.7,0,1.2-0.1,1.5-0.2l0.1,1.9c-0.5,0.2-1.3,0.3-2.3,0.3
			c-1.2,0-2.2-0.4-2.8-1.1c-0.7-0.8-1-2-1-3.7v-7.7H659v-2h2.2v-3.4L663.7,424.4z"/>
		<path d="M671.5,436c0.1,3.5,2.3,4.9,4.8,4.9c1.8,0,2.9-0.3,3.9-0.7l0.4,1.8c-0.9,0.4-2.4,0.9-4.7,0.9c-4.3,0-6.9-2.9-6.9-7.1
			s2.5-7.6,6.6-7.6c4.6,0,5.8,4.1,5.8,6.6c0,0.5-0.1,0.9-0.1,1.2H671.5z M679,434.2c0-1.6-0.7-4.2-3.6-4.2c-2.6,0-3.7,2.4-3.9,4.2
			H679z"/>
		<path d="M691,423.2c1.2-0.2,2.8-0.4,4.9-0.4c2.5,0,4.3,0.6,5.5,1.6c1.1,0.9,1.7,2.4,1.7,4.1c0,1.8-0.5,3.2-1.5,4.2
			c-1.3,1.4-3.5,2.2-6,2.2c-0.8,0-1.5,0-2-0.2v7.9H691V423.2z M693.5,432.7c0.6,0.1,1.3,0.2,2.1,0.2c3.1,0,4.9-1.5,4.9-4.2
			c0-2.6-1.8-3.8-4.6-3.8c-1.1,0-2,0.1-2.4,0.2V432.7z"/>
		<path d="M705.9,432.9c0-1.7,0-3.1-0.1-4.4h2.2l0.1,2.8h0.1c0.6-1.9,2.2-3.1,3.9-3.1c0.3,0,0.5,0,0.7,0.1v2.4
			c-0.3-0.1-0.5-0.1-0.9-0.1c-1.8,0-3.1,1.4-3.4,3.3c-0.1,0.3-0.1,0.8-0.1,1.2v7.5h-2.5V432.9z"/>
		<path d="M716.6,436c0.1,3.5,2.3,4.9,4.8,4.9c1.8,0,2.9-0.3,3.9-0.7l0.4,1.8c-0.9,0.4-2.4,0.9-4.7,0.9c-4.3,0-6.9-2.9-6.9-7.1
			s2.5-7.6,6.6-7.6c4.6,0,5.8,4.1,5.8,6.6c0,0.5-0.1,0.9-0.1,1.2H716.6z M724.1,434.2c0-1.6-0.7-4.2-3.6-4.2c-2.6,0-3.7,2.4-3.9,4.2
			H724.1z"/>
		<path d="M739.8,442.1c-0.7,0.3-2.2,0.8-4,0.8c-4.3,0-7-2.9-7-7.2c0-4.3,3-7.5,7.6-7.5c1.5,0,2.9,0.4,3.6,0.7l-0.6,2
			c-0.6-0.3-1.6-0.7-3-0.7c-3.2,0-5,2.4-5,5.3c0,3.3,2.1,5.3,4.9,5.3c1.5,0,2.4-0.4,3.1-0.7L739.8,442.1z"/>
		<path d="M745.6,424.5c0,0.9-0.6,1.6-1.6,1.6c-0.9,0-1.5-0.7-1.5-1.6c0-0.9,0.7-1.6,1.6-1.6C745,422.9,745.6,423.6,745.6,424.5z
			 M742.8,442.6v-14.1h2.6v14.1H742.8z"/>
		<path d="M749.6,433.1c0-1.8-0.1-3.3-0.1-4.6h2.3l0.1,2.4h0.1c1-1.7,2.7-2.7,5-2.7c3.4,0,6,2.9,6,7.2c0,5.1-3.1,7.6-6.4,7.6
			c-1.9,0-3.5-0.8-4.3-2.2h-0.1v7.7h-2.5V433.1z M752.1,436.9c0,0.4,0.1,0.7,0.1,1c0.5,1.8,2,3,3.8,3c2.7,0,4.3-2.2,4.3-5.4
			c0-2.8-1.5-5.2-4.2-5.2c-1.7,0-3.4,1.3-3.9,3.2c-0.1,0.3-0.2,0.7-0.2,1V436.9z"/>
		<path d="M769,424.5c0,0.9-0.6,1.6-1.6,1.6c-0.9,0-1.5-0.7-1.5-1.6c0-0.9,0.7-1.6,1.6-1.6C768.4,422.9,769,423.6,769,424.5z
			 M766.2,442.6v-14.1h2.6v14.1H766.2z"/>
		<path d="M776.1,424.4v4.1h3.7v2h-3.7v7.6c0,1.7,0.5,2.7,1.9,2.7c0.7,0,1.2-0.1,1.5-0.2l0.1,1.9c-0.5,0.2-1.3,0.3-2.3,0.3
			c-1.2,0-2.2-0.4-2.8-1.1c-0.7-0.8-1-2-1-3.7v-7.7h-2.2v-2h2.2v-3.4L776.1,424.4z"/>
		<path d="M790.4,442.6l-0.2-1.8h-0.1c-0.8,1.1-2.3,2.1-4.3,2.1c-2.9,0-4.3-2-4.3-4.1c0-3.4,3-5.3,8.5-5.2v-0.3
			c0-1.2-0.3-3.3-3.2-3.3c-1.3,0-2.7,0.4-3.7,1l-0.6-1.7c1.2-0.8,2.9-1.3,4.6-1.3c4.3,0,5.4,2.9,5.4,5.8v5.3c0,1.2,0.1,2.4,0.2,3.4
			H790.4z M790.1,435.4c-2.8-0.1-6,0.4-6,3.2c0,1.7,1.1,2.4,2.4,2.4c1.8,0,3-1.2,3.4-2.4c0.1-0.3,0.1-0.6,0.1-0.8V435.4z"/>
		<path d="M799.7,424.4v4.1h3.7v2h-3.7v7.6c0,1.7,0.5,2.7,1.9,2.7c0.7,0,1.2-0.1,1.5-0.2l0.1,1.9c-0.5,0.2-1.3,0.3-2.3,0.3
			c-1.2,0-2.2-0.4-2.8-1.1c-0.7-0.8-1-2-1-3.7v-7.7H795v-2h2.2v-3.4L799.7,424.4z"/>
		<path d="M809.1,424.5c0,0.9-0.6,1.6-1.6,1.6c-0.9,0-1.5-0.7-1.5-1.6c0-0.9,0.7-1.6,1.6-1.6C808.5,422.9,809.1,423.6,809.1,424.5z
			 M806.2,442.6v-14.1h2.6v14.1H806.2z"/>
		<path d="M825.8,435.4c0,5.2-3.6,7.5-7,7.5c-3.8,0-6.8-2.8-6.8-7.3c0-4.7,3.1-7.5,7-7.5C823,428.2,825.8,431.1,825.8,435.4z
			 M814.6,435.6c0,3.1,1.8,5.4,4.3,5.4c2.4,0,4.3-2.3,4.3-5.5c0-2.4-1.2-5.4-4.2-5.4C815.9,430.1,814.6,432.9,814.6,435.6z"/>
		<path d="M829,432.3c0-1.5,0-2.7-0.1-3.8h2.3l0.1,2.3h0.1c0.7-1.3,2.3-2.7,4.7-2.7c2,0,5,1.2,5,6v8.4h-2.6v-8.1
			c0-2.3-0.8-4.2-3.3-4.2c-1.7,0-3,1.2-3.4,2.6c-0.1,0.3-0.2,0.8-0.2,1.2v8.5H829V432.3z"/>
	</g>
</g>
</svg>
