<?xml version="1.0" encoding="utf-8"?>
<!-- Generator: Adobe Illustrator 28.4.1, SVG Export Plug-In . SVG Version: 6.00 Build 0)  -->
<svg version="1.1" id="Layer_1" xmlns="http://www.w3.org/2000/svg" xmlns:xlink="http://www.w3.org/1999/xlink" x="0px" y="0px"
	 viewBox="0 0 1280 720" style="enable-background:new 0 0 1280 720;" xml:space="preserve">
<style type="text/css">
	.st0{fill:#BDE325;enable-background:new    ;}
	.st1{enable-background:new    ;}
	.st2{fill:#D1B723;enable-background:new    ;}
	.st3{fill:#EEEAEB;enable-background:new    ;}
</style>
<g>
	<circle class="st0" cx="426.9" cy="269.4" r="42.3"/>
	<circle class="st1" cx="426.9" cy="647" r="42.3"/>
	<circle class="st2" cx="426.9" cy="465.8" r="42.3"/>
	<circle class="st3" cx="426.9" cy="73" r="42.3"/>
	<g>
		<path d="M502.7,74.2h-11.3v10.5H504v3.2h-16.4V58.7h15.7v3.2h-12v9.2h11.3V74.2z"/>
		<path d="M524,74.2h-11.3v10.5h12.6v3.2h-16.4V58.7h15.7v3.2h-12v9.2H524V74.2z"/>
		<path d="M545.3,74.2h-11.3v10.5h12.6v3.2h-16.4V58.7h15.7v3.2h-12v9.2h11.3V74.2z"/>
		<path d="M556.1,78.7l-3,9.2h-3.9l9.9-29.1h4.5l9.9,29.1h-4l-3.1-9.2H556.1z M565.7,75.7l-2.9-8.4c-0.6-1.9-1.1-3.6-1.5-5.3h-0.1
			c-0.4,1.7-0.9,3.5-1.5,5.3l-2.9,8.4H565.7z"/>
		<path d="M593,74.2h-11.3v10.5h12.6v3.2h-16.4V58.7h15.7v3.2h-12v9.2H593V74.2z"/>
		<path d="M599.2,59.1c1.6-0.3,4.2-0.6,6.9-0.6c3.8,0,6.2,0.6,8,2.1c1.5,1.1,2.4,2.9,2.4,5.1c0,2.8-1.9,5.3-4.9,6.4v0.1
			c2.8,0.7,6,3,6,7.3c0,2.5-1,4.4-2.5,5.8c-2,1.9-5.3,2.7-10.1,2.7c-2.6,0-4.6-0.2-5.8-0.3V59.1z M602.9,71h3.4c4,0,6.3-2.1,6.3-4.9
			c0-3.4-2.6-4.8-6.4-4.8c-1.7,0-2.7,0.1-3.3,0.3V71z M602.9,85c0.7,0.1,1.8,0.2,3.2,0.2c3.9,0,7.5-1.4,7.5-5.7c0-4-3.4-5.6-7.5-5.6
			h-3.1V85z"/>
		<path d="M640.4,74.7v2.8h-10.7v-2.8H640.4z"/>
		<path d="M659,87.8l-9.5-29.1h4.1l4.5,14.4c1.3,3.9,2.3,7.5,3.1,10.9h0.1c0.8-3.4,2-7,3.3-10.8l4.9-14.4h4l-10.4,29.1H659z"/>
		<path d="M677.3,78.1c0.1,5.1,3.4,7.3,7.2,7.3c2.7,0,4.4-0.5,5.8-1.1l0.6,2.7c-1.3,0.6-3.6,1.3-7,1.3c-6.4,0-10.3-4.2-10.3-10.5
			s3.7-11.3,9.8-11.3c6.8,0,8.6,6,8.6,9.9c0,0.8-0.1,1.4-0.1,1.8H677.3z M688.5,75.3c0-2.4-1-6.2-5.3-6.2c-3.8,0-5.5,3.5-5.8,6.2
			H688.5z"/>
		<path d="M696.9,73.4c0-2.5,0-4.6-0.2-6.5h3.3l0.1,4.1h0.2c1-2.8,3.2-4.6,5.8-4.6c0.4,0,0.7,0,1.1,0.1v3.6
			c-0.4-0.1-0.8-0.1-1.3-0.1c-2.7,0-4.6,2-5.1,4.9c-0.1,0.5-0.2,1.1-0.2,1.8v11.2h-3.8V73.4z"/>
		<path d="M713.5,66.9l4.6,12.4c0.5,1.4,1,3,1.3,4.3h0.1c0.4-1.3,0.8-2.9,1.3-4.4l4.1-12.3h4l-5.7,14.9c-2.7,7.2-4.6,10.8-7.2,13.1
			c-1.9,1.6-3.7,2.3-4.7,2.5l-1-3.2c1-0.3,2.2-0.9,3.3-1.9c1-0.8,2.3-2.3,3.2-4.2c0.2-0.4,0.3-0.7,0.3-0.9c0-0.2-0.1-0.5-0.3-1
			l-7.7-19.3H713.5z"/>
		<path d="M741.7,59.1c2.3-0.3,5-0.6,8-0.6c5.4,0,9.3,1.3,11.8,3.6c2.6,2.4,4.1,5.7,4.1,10.5c0,4.8-1.5,8.6-4.2,11.3
			c-2.7,2.7-7.2,4.2-12.9,4.2c-2.7,0-4.9-0.1-6.8-0.3V59.1z M745.5,84.8c1,0.2,2.3,0.2,3.8,0.2c8,0,12.4-4.5,12.4-12.4
			c0-6.9-3.8-11.2-11.8-11.2c-1.9,0-3.4,0.2-4.4,0.4V84.8z"/>
		<path d="M770.4,73.4c0-2.5,0-4.6-0.2-6.5h3.3l0.1,4.1h0.2c1-2.8,3.2-4.6,5.8-4.6c0.4,0,0.7,0,1.1,0.1v3.6
			c-0.4-0.1-0.8-0.1-1.3-0.1c-2.7,0-4.6,2-5.1,4.9c-0.1,0.5-0.2,1.1-0.2,1.8v11.2h-3.8V73.4z"/>
		<path d="M787,66.9l4.6,12.4c0.5,1.4,1,3,1.3,4.3h0.1c0.4-1.3,0.8-2.9,1.3-4.4l4.1-12.3h4l-5.7,14.9c-2.7,7.2-4.6,10.8-7.2,13.1
			c-1.9,1.6-3.7,2.3-4.7,2.5l-1-3.2c1-0.3,2.2-0.9,3.3-1.9c1-0.8,2.3-2.3,3.2-4.2c0.2-0.4,0.3-0.7,0.3-0.9c0-0.2-0.1-0.5-0.3-1
			l-7.7-19.3H787z"/>
		<path d="M814.7,83.2c1.7,1,4.2,1.9,6.7,1.9c3.8,0,6.1-2,6.1-5c0-2.7-1.6-4.3-5.5-5.8c-4.8-1.7-7.7-4.1-7.7-8.3
			c0-4.5,3.8-7.9,9.4-7.9c3,0,5.1,0.7,6.4,1.4l-1,3.1c-1-0.5-2.9-1.4-5.5-1.4c-4,0-5.5,2.4-5.5,4.4c0,2.7,1.8,4.1,5.8,5.6
			c4.9,1.9,7.4,4.3,7.4,8.6c0,4.5-3.3,8.4-10.2,8.4c-2.8,0-5.9-0.8-7.4-1.9L814.7,83.2z"/>
		<path d="M855.6,77.2c0,7.7-5.4,11.1-10.4,11.1c-5.7,0-10-4.1-10-10.8c0-7,4.6-11.1,10.4-11.1C851.6,66.4,855.6,70.8,855.6,77.2z
			 M839,77.4c0,4.6,2.6,8,6.4,8c3.6,0,6.4-3.4,6.4-8.1c0-3.5-1.8-8-6.3-8C841,69.3,839,73.4,839,77.4z"/>
		<path d="M864.7,61c0,1.3-0.9,2.3-2.4,2.3c-1.3,0-2.3-1-2.3-2.3c0-1.3,1-2.4,2.4-2.4C863.7,58.6,864.7,59.7,864.7,61z M860.4,87.8
			V66.9h3.8v20.9H860.4z"/>
		<path d="M870.5,57.1h3.8v30.7h-3.8V57.1z"/>
	</g>
	<g>
		<path d="M487.6,253.7c1.6-0.3,4.2-0.6,6.9-0.6c3.8,0,6.2,0.6,8,2.1c1.5,1.1,2.4,2.9,2.4,5.1c0,2.8-1.9,5.3-4.9,6.4v0.1
			c2.8,0.7,6,3,6,7.3c0,2.5-1,4.4-2.5,5.8c-2,1.9-5.3,2.7-10.1,2.7c-2.6,0-4.6-0.2-5.8-0.3V253.7z M491.4,265.7h3.4
			c4,0,6.3-2.1,6.3-4.9c0-3.4-2.6-4.8-6.4-4.8c-1.7,0-2.7,0.1-3.3,0.3V265.7z M491.4,279.6c0.7,0.1,1.8,0.2,3.2,0.2
			c3.9,0,7.5-1.4,7.5-5.7c0-4-3.4-5.6-7.5-5.6h-3.1V279.6z"/>
		<path d="M511.1,253.7c2.3-0.3,5-0.6,8-0.6c5.4,0,9.3,1.3,11.8,3.6c2.6,2.4,4.1,5.7,4.1,10.5c0,4.8-1.5,8.6-4.2,11.3
			c-2.7,2.7-7.2,4.2-12.9,4.2c-2.7,0-4.9-0.1-6.8-0.3V253.7z M514.8,279.5c1,0.2,2.3,0.2,3.8,0.2c8,0,12.4-4.5,12.4-12.4
			c0-6.9-3.8-11.2-11.8-11.2c-1.9,0-3.4,0.2-4.4,0.4V279.5z"/>
		<path d="M554.9,268.8h-11.3v10.5h12.6v3.2h-16.4v-29.1h15.7v3.2h-12v9.2h11.3V268.8z"/>
		<path d="M560.7,278.1c1.1,0.7,3.6,1.8,6.2,1.8c4.9,0,6.4-3.1,6.4-5.4c0-3.9-3.6-5.6-7.3-5.6h-2.1V266h2.1c2.8,0,6.3-1.4,6.3-4.8
			c0-2.2-1.4-4.2-4.9-4.2c-2.2,0-4.4,1-5.6,1.9l-1-2.8c1.5-1.1,4.3-2.2,7.3-2.2c5.5,0,8,3.3,8,6.7c0,2.9-1.7,5.4-5.2,6.6v0.1
			c3.5,0.7,6.3,3.3,6.3,7.2c0,4.5-3.5,8.4-10.2,8.4c-3.2,0-5.9-1-7.3-1.9L560.7,278.1z"/>
		<path d="M582,282.5v-2.3l3-2.9c7.2-6.8,10.4-10.5,10.5-14.7c0-2.9-1.4-5.5-5.6-5.5c-2.6,0-4.7,1.3-6,2.4l-1.2-2.7
			c1.9-1.6,4.7-2.9,8-2.9c6.1,0,8.6,4.2,8.6,8.2c0,5.2-3.8,9.4-9.7,15.1l-2.2,2.1v0.1h12.6v3.2H582z"/>
		<path d="M620.9,257.6h-10.7l-1.1,7.2c0.6-0.1,1.3-0.2,2.3-0.2c2.2,0,4.3,0.5,6.1,1.5c2.2,1.3,4,3.7,4,7.2c0,5.5-4.4,9.6-10.5,9.6
			c-3.1,0-5.7-0.9-7-1.7l1-2.9c1.2,0.7,3.5,1.6,6,1.6c3.6,0,6.7-2.3,6.7-6.1c0-3.6-2.5-6.2-8.1-6.2c-1.6,0-2.9,0.2-3.9,0.3l1.8-13.5
			h13.4V257.6z"/>
		<path d="M645.5,269.4v2.8h-10.7v-2.8H645.5z"/>
		<path d="M659.2,253.7c2.3-0.3,5-0.6,8-0.6c5.4,0,9.3,1.3,11.8,3.6c2.6,2.4,4.1,5.7,4.1,10.5c0,4.8-1.5,8.6-4.2,11.3
			c-2.7,2.7-7.2,4.2-12.9,4.2c-2.7,0-4.9-0.1-6.8-0.3V253.7z M663,279.5c1,0.2,2.3,0.2,3.8,0.2c8,0,12.4-4.5,12.4-12.4
			c0-6.9-3.8-11.2-11.8-11.2c-1.9,0-3.4,0.2-4.4,0.4V279.5z"/>
		<path d="M687.9,268.1c0-2.5,0-4.6-0.2-6.5h3.3l0.1,4.1h0.2c1-2.8,3.2-4.6,5.8-4.6c0.4,0,0.7,0,1.1,0.1v3.6
			c-0.4-0.1-0.8-0.1-1.3-0.1c-2.7,0-4.6,2-5.1,4.9c-0.1,0.5-0.2,1.1-0.2,1.8v11.2h-3.8V268.1z"/>
		<path d="M704.5,261.6l4.6,12.4c0.5,1.4,1,3,1.3,4.3h0.1c0.4-1.3,0.8-2.9,1.3-4.4l4.1-12.3h4l-5.7,14.9c-2.7,7.2-4.6,10.8-7.2,13.1
			c-1.9,1.6-3.7,2.3-4.7,2.5l-1-3.2c1-0.3,2.2-0.9,3.3-1.9c1-0.8,2.3-2.3,3.2-4.2c0.2-0.4,0.3-0.7,0.3-0.9s-0.1-0.5-0.3-1l-7.7-19.3
			H704.5z"/>
		<path d="M732.3,277.9c1.7,1,4.2,1.9,6.7,1.9c3.8,0,6.1-2,6.1-5c0-2.7-1.6-4.3-5.5-5.8c-4.8-1.7-7.7-4.1-7.7-8.3
			c0-4.5,3.8-7.9,9.4-7.9c3,0,5.1,0.7,6.4,1.4l-1,3.1c-1-0.5-2.9-1.4-5.5-1.4c-4,0-5.5,2.4-5.5,4.4c0,2.7,1.8,4.1,5.8,5.6
			c4.9,1.9,7.4,4.3,7.4,8.6c0,4.5-3.3,8.4-10.2,8.4c-2.8,0-5.9-0.8-7.4-1.9L732.3,277.9z"/>
		<path d="M773.1,271.9c0,7.7-5.4,11.1-10.4,11.1c-5.7,0-10-4.2-10-10.8c0-7,4.6-11.1,10.4-11.1
			C769.1,261.1,773.1,265.5,773.1,271.9z M756.5,272.1c0,4.6,2.6,8,6.4,8c3.6,0,6.4-3.4,6.4-8.1c0-3.5-1.8-8-6.3-8
			C758.5,263.9,756.5,268.1,756.5,272.1z"/>
		<path d="M782.2,255.7c0,1.3-0.9,2.3-2.4,2.3c-1.3,0-2.3-1-2.3-2.3c0-1.3,1-2.4,2.4-2.4C781.3,253.3,782.2,254.3,782.2,255.7z
			 M777.9,282.5v-20.9h3.8v20.9H777.9z"/>
		<path d="M788.1,251.8h3.8v30.7h-3.8V251.8z"/>
	</g>
	<g>
		<path d="M487.6,452.7c2.3-0.3,5-0.6,8-0.6c5.4,0,9.3,1.3,11.8,3.6c2.6,2.4,4.1,5.7,4.1,10.5c0,4.8-1.5,8.6-4.2,11.3
			c-2.7,2.7-7.2,4.2-12.9,4.2c-2.7,0-4.9-0.1-6.8-0.3V452.7z M491.4,478.5c1,0.2,2.3,0.2,3.8,0.2c8,0,12.4-4.5,12.4-12.4
			c0-6.9-3.8-11.2-11.8-11.2c-1.9,0-3.4,0.2-4.4,0.4V478.5z"/>
		<path d="M523.3,456.9L523.3,456.9l-5,2.6l-0.7-2.9l6.1-3.3h3.2v28.1h-3.7V456.9z"/>
		<path d="M538.6,452.7c1.6-0.3,4.2-0.6,6.9-0.6c3.8,0,6.2,0.6,8,2.1c1.5,1.1,2.4,2.9,2.4,5.1c0,2.8-1.9,5.3-4.9,6.4v0.1
			c2.8,0.7,6,3,6,7.3c0,2.5-1,4.4-2.5,5.8c-2,1.9-5.3,2.7-10.1,2.7c-2.6,0-4.6-0.2-5.8-0.3V452.7z M542.4,464.6h3.4
			c4,0,6.3-2.1,6.3-4.9c0-3.4-2.6-4.8-6.4-4.8c-1.7,0-2.7,0.1-3.3,0.3V464.6z M542.4,478.6c0.7,0.1,1.8,0.2,3.2,0.2
			c3.9,0,7.5-1.4,7.5-5.7c0-4-3.4-5.6-7.5-5.6h-3.1V478.6z"/>
		<path d="M578.9,453.4v2.5l-12.2,25.6h-3.9l12.2-24.9v-0.1h-13.7v-3.2H578.9z"/>
		<path d="M582.9,481.5v-2.3l3-2.9c7.2-6.8,10.4-10.5,10.5-14.7c0-2.9-1.4-5.5-5.6-5.5c-2.6,0-4.7,1.3-6,2.4l-1.2-2.7
			c1.9-1.6,4.7-2.9,8-2.9c6.1,0,8.6,4.2,8.6,8.2c0,5.2-3.8,9.4-9.7,15.1l-2.2,2.1v0.1h12.6v3.2H582.9z"/>
		<path d="M605.9,477.1c1.1,0.7,3.6,1.8,6.2,1.8c4.9,0,6.4-3.1,6.4-5.4c0-3.9-3.6-5.6-7.3-5.6h-2.1V465h2.1c2.8,0,6.3-1.4,6.3-4.8
			c0-2.2-1.4-4.2-4.9-4.2c-2.2,0-4.4,1-5.6,1.9l-1-2.8c1.5-1.1,4.3-2.2,7.3-2.2c5.5,0,8,3.3,8,6.7c0,2.9-1.7,5.4-5.2,6.6v0.1
			c3.5,0.7,6.3,3.3,6.3,7.2c0,4.5-3.5,8.4-10.2,8.4c-3.2,0-5.9-1-7.3-1.9L605.9,477.1z"/>
		<path d="M646.4,468.4v2.8h-10.7v-2.8H646.4z"/>
		<path d="M684.7,468.7c-0.2-4.1-0.5-8.9-0.4-12.6h-0.1c-1,3.4-2.2,7-3.7,11.1l-5.1,14.1h-2.9l-4.7-13.9c-1.4-4.1-2.6-7.9-3.4-11.3
			h-0.1c-0.1,3.6-0.3,8.5-0.6,12.9l-0.8,12.5h-3.6l2-29.1h4.8l5,14.1c1.2,3.6,2.2,6.8,2.9,9.8h0.1c0.7-2.9,1.8-6.1,3.1-9.8l5.2-14.1
			h4.8l1.8,29.1h-3.7L684.7,468.7z"/>
		<path d="M714,470.8c0,7.7-5.4,11.1-10.4,11.1c-5.7,0-10-4.2-10-10.8c0-7,4.6-11.1,10.4-11.1C709.9,460.1,714,464.4,714,470.8z
			 M697.4,471c0,4.6,2.6,8,6.4,8c3.6,0,6.4-3.4,6.4-8.1c0-3.5-1.8-8-6.3-8C699.3,462.9,697.4,467.1,697.4,471z"/>
		<path d="M723,454.7c0,1.3-0.9,2.3-2.4,2.3c-1.3,0-2.3-1-2.3-2.3c0-1.3,1-2.4,2.4-2.4C722.1,452.3,723,453.3,723,454.7z
			 M718.8,481.5v-20.9h3.8v20.9H718.8z"/>
		<path d="M728.4,477.6c1.1,0.7,3.1,1.5,5,1.5c2.8,0,4.1-1.4,4.1-3.1c0-1.8-1.1-2.8-3.9-3.8c-3.8-1.3-5.5-3.4-5.5-5.9
			c0-3.4,2.7-6.1,7.2-6.1c2.1,0,4,0.6,5.1,1.3l-1,2.8c-0.8-0.5-2.3-1.2-4.3-1.2c-2.2,0-3.5,1.3-3.5,2.9c0,1.7,1.3,2.5,4,3.5
			c3.6,1.4,5.5,3.2,5.5,6.3c0,3.7-2.9,6.3-7.8,6.3c-2.3,0-4.4-0.6-5.9-1.4L728.4,477.6z"/>
		<path d="M750.6,454.5v6h5.4v2.9h-5.4v11.3c0,2.6,0.7,4.1,2.9,4.1c1,0,1.7-0.1,2.2-0.3l0.2,2.9c-0.7,0.3-1.9,0.5-3.4,0.5
			c-1.8,0-3.2-0.6-4.1-1.6c-1.1-1.1-1.5-3-1.5-5.4v-11.4h-3.2v-2.9h3.2v-5L750.6,454.5z"/>
		<path d="M769.1,476.9c1.7,1,4.1,1.9,6.7,1.9c3.8,0,6.1-2,6.1-5c0-2.7-1.6-4.3-5.5-5.8c-4.8-1.7-7.7-4.1-7.7-8.3
			c0-4.5,3.8-7.9,9.4-7.9c3,0,5.1,0.7,6.4,1.4l-1,3.1c-1-0.5-2.9-1.4-5.5-1.4c-4,0-5.5,2.4-5.5,4.4c0,2.7,1.8,4.1,5.8,5.6
			c4.9,1.9,7.4,4.3,7.4,8.6c0,4.5-3.3,8.4-10.2,8.4c-2.8,0-5.9-0.8-7.4-1.9L769.1,476.9z"/>
		<path d="M810,470.8c0,7.7-5.4,11.1-10.4,11.1c-5.7,0-10-4.2-10-10.8c0-7,4.6-11.1,10.4-11.1C805.9,460.1,810,464.4,810,470.8z
			 M793.4,471c0,4.6,2.6,8,6.4,8c3.6,0,6.4-3.4,6.4-8.1c0-3.5-1.8-8-6.3-8C795.3,462.9,793.4,467.1,793.4,471z"/>
		<path d="M819,454.7c0,1.3-0.9,2.3-2.4,2.3c-1.3,0-2.3-1-2.3-2.3c0-1.3,1-2.4,2.4-2.4C818.1,452.3,819,453.3,819,454.7z
			 M814.8,481.5v-20.9h3.8v20.9H814.8z"/>
		<path d="M824.9,450.8h3.8v30.7h-3.8V450.8z"/>
	</g>
	<g>
		<path d="M505,648.8c0,9.6-3.5,14.8-9.8,14.8c-5.5,0-9.2-5.1-9.3-14.4c0-9.4,4.1-14.6,9.8-14.6C501.6,634.6,505,639.9,505,648.8z
			 M489.7,649.2c0,7.3,2.2,11.5,5.7,11.5c3.9,0,5.7-4.5,5.7-11.7c0-6.9-1.8-11.5-5.7-11.5C492.1,637.5,489.7,641.6,489.7,649.2z"/>
		<path d="M527.1,648.8c0,9.6-3.5,14.8-9.8,14.8c-5.5,0-9.2-5.1-9.3-14.4c0-9.4,4.1-14.6,9.8-14.6
			C523.8,634.6,527.1,639.9,527.1,648.8z M511.9,649.2c0,7.3,2.2,11.5,5.7,11.5c3.9,0,5.7-4.5,5.7-11.7c0-6.9-1.8-11.5-5.7-11.5
			C514.3,637.5,511.9,641.6,511.9,649.2z"/>
		<path d="M549.3,648.8c0,9.6-3.5,14.8-9.8,14.8c-5.5,0-9.2-5.1-9.3-14.4c0-9.4,4.1-14.6,9.8-14.6
			C545.9,634.6,549.3,639.9,549.3,648.8z M534.1,649.2c0,7.3,2.2,11.5,5.7,11.5c3.9,0,5.7-4.5,5.7-11.7c0-6.9-1.8-11.5-5.7-11.5
			C536.5,637.5,534.1,641.6,534.1,649.2z"/>
		<path d="M571.5,648.8c0,9.6-3.5,14.8-9.8,14.8c-5.5,0-9.2-5.1-9.3-14.4c0-9.4,4.1-14.6,9.8-14.6
			C568.1,634.6,571.5,639.9,571.5,648.8z M556.2,649.2c0,7.3,2.2,11.5,5.7,11.5c3.9,0,5.7-4.5,5.7-11.7c0-6.9-1.8-11.5-5.7-11.5
			C558.7,637.5,556.2,641.6,556.2,649.2z"/>
		<path d="M593.7,648.8c0,9.6-3.5,14.8-9.8,14.8c-5.5,0-9.2-5.1-9.3-14.4c0-9.4,4.1-14.6,9.8-14.6
			C590.3,634.6,593.7,639.9,593.7,648.8z M578.4,649.2c0,7.3,2.2,11.5,5.7,11.5c3.9,0,5.7-4.5,5.7-11.7c0-6.9-1.8-11.5-5.7-11.5
			C580.8,637.5,578.4,641.6,578.4,649.2z"/>
		<path d="M615.8,648.8c0,9.6-3.5,14.8-9.8,14.8c-5.5,0-9.2-5.1-9.3-14.4c0-9.4,4.1-14.6,9.8-14.6
			C612.5,634.6,615.8,639.9,615.8,648.8z M600.6,649.2c0,7.3,2.2,11.5,5.7,11.5c3.9,0,5.7-4.5,5.7-11.7c0-6.9-1.8-11.5-5.7-11.5
			C603,637.5,600.6,641.6,600.6,649.2z"/>
		<path d="M638.5,650.1v2.8h-10.7v-2.8H638.5z"/>
		<path d="M651.8,658.6c1.7,1,4.1,1.9,6.7,1.9c3.8,0,6.1-2,6.1-5c0-2.7-1.6-4.3-5.5-5.8c-4.8-1.7-7.7-4.1-7.7-8.3
			c0-4.5,3.8-7.9,9.4-7.9c3,0,5.1,0.7,6.4,1.4l-1,3.1c-1-0.5-2.9-1.4-5.5-1.4c-4,0-5.5,2.4-5.5,4.4c0,2.7,1.8,4.1,5.8,5.6
			c4.9,1.9,7.4,4.3,7.4,8.6c0,4.5-3.3,8.4-10.2,8.4c-2.8,0-5.9-0.8-7.4-1.9L651.8,658.6z"/>
		<path d="M685.2,663.1l-0.3-2.6h-0.1c-1.2,1.6-3.4,3.1-6.4,3.1c-4.2,0-6.4-3-6.4-6c0-5.1,4.5-7.8,12.6-7.8v-0.4
			c0-1.7-0.5-4.8-4.8-4.8c-1.9,0-4,0.6-5.4,1.6l-0.9-2.5c1.7-1.1,4.2-1.9,6.9-1.9c6.4,0,8,4.4,8,8.6v7.8c0,1.8,0.1,3.6,0.3,5H685.2z
			 M684.6,652.5c-4.2-0.1-8.9,0.6-8.9,4.7c0,2.5,1.6,3.6,3.6,3.6c2.7,0,4.5-1.7,5.1-3.5c0.1-0.4,0.2-0.8,0.2-1.2V652.5z"/>
		<path d="M698.8,636.2v6h5.4v2.9h-5.4v11.3c0,2.6,0.7,4.1,2.9,4.1c1,0,1.7-0.1,2.2-0.3l0.2,2.9c-0.7,0.3-1.9,0.5-3.4,0.5
			c-1.8,0-3.2-0.6-4.1-1.6c-1.1-1.1-1.5-3-1.5-5.4v-11.4h-3.2v-2.9h3.2v-5L698.8,636.2z"/>
		<path d="M726.1,657.4c0,2.2,0,4.1,0.2,5.7h-3.4l-0.2-3.4h-0.1c-1,1.7-3.2,3.9-6.9,3.9c-3.3,0-7.2-1.8-7.2-9.2v-12.2h3.8v11.6
			c0,4,1.2,6.7,4.7,6.7c2.5,0,4.3-1.8,5-3.5c0.2-0.6,0.3-1.3,0.3-1.9v-12.8h3.8V657.4z"/>
		<path d="M732.4,648.8c0-2.5,0-4.6-0.2-6.5h3.3l0.1,4.1h0.2c1-2.8,3.2-4.6,5.8-4.6c0.4,0,0.7,0,1.1,0.1v3.6
			c-0.4-0.1-0.8-0.1-1.3-0.1c-2.7,0-4.6,2-5.1,4.9c-0.1,0.5-0.2,1.1-0.2,1.8v11.2h-3.8V648.8z"/>
		<path d="M757.9,663.1l-0.3-2.6h-0.1c-1.2,1.6-3.4,3.1-6.4,3.1c-4.2,0-6.4-3-6.4-6c0-5.1,4.5-7.8,12.6-7.8v-0.4
			c0-1.7-0.5-4.8-4.8-4.8c-1.9,0-4,0.6-5.4,1.6l-0.9-2.5c1.7-1.1,4.2-1.9,6.9-1.9c6.4,0,8,4.4,8,8.6v7.8c0,1.8,0.1,3.6,0.3,5H757.9z
			 M757.3,652.5c-4.2-0.1-8.9,0.6-8.9,4.7c0,2.5,1.6,3.6,3.6,3.6c2.7,0,4.5-1.7,5.1-3.5c0.1-0.4,0.2-0.8,0.2-1.2V652.5z"/>
		<path d="M771.5,636.2v6h5.4v2.9h-5.4v11.3c0,2.6,0.7,4.1,2.9,4.1c1,0,1.7-0.1,2.2-0.3l0.2,2.9c-0.7,0.3-1.9,0.5-3.4,0.5
			c-1.8,0-3.2-0.6-4.1-1.6c-1.1-1.1-1.5-3-1.5-5.4v-11.4h-3.2v-2.9h3.2v-5L771.5,636.2z"/>
		<path d="M783.1,653.4c0.1,5.1,3.4,7.3,7.2,7.3c2.7,0,4.4-0.5,5.8-1.1l0.6,2.7c-1.3,0.6-3.6,1.3-7,1.3c-6.4,0-10.3-4.2-10.3-10.5
			s3.7-11.3,9.8-11.3c6.8,0,8.6,6,8.6,9.9c0,0.8-0.1,1.4-0.1,1.8H783.1z M794.3,650.7c0-2.4-1-6.2-5.3-6.2c-3.8,0-5.5,3.5-5.8,6.2
			H794.3z"/>
		<path d="M820.7,632.5v25.3c0,1.9,0,4,0.2,5.4h-3.4l-0.2-3.6h-0.1c-1.2,2.3-3.7,4.1-7.1,4.1c-5.1,0-8.9-4.3-8.9-10.6
			c0-7,4.3-11.2,9.4-11.2c3.2,0,5.4,1.5,6.3,3.2h0.1v-12.5H820.7z M816.9,650.7c0-0.5,0-1.1-0.2-1.6c-0.6-2.4-2.6-4.4-5.5-4.4
			c-3.9,0-6.3,3.5-6.3,8.1c0,4.2,2.1,7.7,6.2,7.7c2.6,0,4.9-1.7,5.6-4.5c0.1-0.5,0.2-1,0.2-1.6V650.7z"/>
		<path d="M835.8,658.6c1.7,1,4.1,1.9,6.7,1.9c3.8,0,6.1-2,6.1-5c0-2.7-1.6-4.3-5.5-5.8c-4.8-1.7-7.7-4.1-7.7-8.3
			c0-4.5,3.8-7.9,9.4-7.9c3,0,5.1,0.7,6.4,1.4l-1,3.1c-1-0.5-2.9-1.4-5.5-1.4c-4,0-5.5,2.4-5.5,4.4c0,2.7,1.8,4.1,5.8,5.6
			c4.9,1.9,7.4,4.3,7.4,8.6c0,4.5-3.3,8.4-10.2,8.4c-2.8,0-5.9-0.8-7.4-1.9L835.8,658.6z"/>
		<path d="M876.7,652.5c0,7.7-5.4,11.1-10.4,11.1c-5.7,0-10-4.2-10-10.8c0-7,4.6-11.1,10.4-11.1
			C872.7,641.8,876.7,646.1,876.7,652.5z M860.1,652.7c0,4.6,2.6,8,6.4,8c3.6,0,6.4-3.4,6.4-8.1c0-3.5-1.8-8-6.3-8
			C862.1,644.6,860.1,648.8,860.1,652.7z"/>
		<path d="M885.8,636.4c0,1.3-0.9,2.3-2.4,2.3c-1.3,0-2.3-1-2.3-2.3c0-1.3,1-2.4,2.4-2.4C884.8,634,885.8,635,885.8,636.4z
			 M881.5,663.1v-20.9h3.8v20.9H881.5z"/>
		<path d="M891.6,632.5h3.8v30.7h-3.8V632.5z"/>
	</g>
</g>
</svg>
